# .PCD v0.7 - map_manager
VERSION 0.7
FIELDS x y z
SIZE 4 4 4
TYPE F F F
COUNT 1 1 1
WIDTH 1153
HEIGHT 1
VIEWPOINT 0 0 0 1 0 0 0
POINTS 1153
DATA ascii
-5.600 20.000 0.200
-5.600 20.000 1.200
-5.600 20.000 2.000
-5.400 20.000 0.200
-5.400 20.000 1.200
-5.400 20.000 2.000
-5.200 20.000 0.200
-5.200 20.000 1.200
-5.200 20.000 2.000
-5.000 20.000 0.200
-5.000 20.000 1.200
-5.000 20.000 2.000
-4.800 20.000 0.200
-4.800 20.000 1.200
-4.800 20.000 2.000
-4.600 20.000 0.200
-4.600 20.000 1.200
-4.600 20.000 2.000
-4.400 20.000 0.200
-4.400 20.000 1.200
-4.400 20.000 2.000
-4.200 20.000 0.200
-4.200 20.000 1.200
-4.200 20.000 2.000
-4.000 20.000 0.200
-4.000 20.000 1.200
-4.000 20.000 2.000
-3.800 20.000 0.200
-3.800 20.000 1.200
-3.800 20.000 2.000
-3.600 20.000 0.200
-3.600 20.000 1.200
-3.600 20.000 2.000
-3.400 20.000 0.200
-3.400 20.000 1.200
-3.400 20.000 2.000
-3.200 20.000 0.200
-3.200 20.000 1.200
-3.200 20.000 2.000
-3.000 20.000 0.200
-3.000 20.000 1.200
-3.000 20.000 2.000
-2.800 20.000 0.200
-2.800 20.000 1.200
-2.800 20.000 2.000
-2.600 20.000 0.200
-2.600 20.000 1.200
-2.600 20.000 2.000
-2.400 20.000 0.200
-2.400 20.000 1.200
-2.400 20.000 2.000
-2.200 20.000 0.200
-2.200 20.000 1.200
-2.200 20.000 2.000
-2.000 20.000 0.200
-2.000 20.000 1.200
-2.000 20.000 2.000
-1.800 20.000 0.200
-1.800 20.000 1.200
-1.800 20.000 2.000
-1.600 20.000 0.200
-1.600 20.000 1.200
-1.600 20.000 2.000
-1.400 20.000 0.200
-1.400 20.000 1.200
-1.400 20.000 2.000
-1.200 20.000 0.200
-1.200 20.000 1.200
-1.200 20.000 2.000
-1.000 20.000 0.200
-1.000 20.000 1.200
-1.000 20.000 2.000
-0.800 20.000 0.200
-0.800 20.000 1.200
-0.800 20.000 2.000
-0.600 20.000 0.200
-0.600 20.000 1.200
-0.600 20.000 2.000
-0.400 20.000 0.200
-0.400 20.000 1.200
-0.400 20.000 2.000
-0.200 20.000 0.200
-0.200 20.000 1.200
-0.200 20.000 2.000
0.000 20.000 0.200
0.000 20.000 1.200
0.000 20.000 2.000
0.200 20.000 0.200
0.200 20.000 1.200
0.200 20.000 2.000
0.400 20.000 0.200
0.400 20.000 1.200
0.400 20.000 2.000
0.600 20.000 0.200
0.600 20.000 1.200
0.600 20.000 2.000
0.800 20.000 0.200
0.800 20.000 1.200
0.800 20.000 2.000
1.000 20.000 0.200
1.000 20.000 1.200
1.000 20.000 2.000
1.200 20.000 0.200
1.200 20.000 1.200
1.200 20.000 2.000
1.400 20.000 0.200
1.400 20.000 1.200
1.400 20.000 2.000
1.600 20.000 0.200
1.600 20.000 1.200
1.600 20.000 2.000
1.800 20.000 0.200
1.800 20.000 1.200
1.800 20.000 2.000
2.000 20.000 0.200
2.000 20.000 1.200
2.000 20.000 2.000
2.200 20.000 0.200
2.200 20.000 1.200
2.200 20.000 2.000
2.400 20.000 0.200
2.400 20.000 1.200
2.400 20.000 2.000
2.600 20.000 0.200
2.600 20.000 1.200
2.600 20.000 2.000
2.800 20.000 0.200
2.800 20.000 1.200
2.800 20.000 2.000
3.000 20.000 0.200
3.000 20.000 1.200
3.000 20.000 2.000
3.200 20.000 0.200
3.200 20.000 1.200
3.200 20.000 2.000
3.400 20.000 0.200
3.400 20.000 1.200
3.400 20.000 2.000
3.600 20.000 0.200
3.600 20.000 1.200
3.600 20.000 2.000
3.800 20.000 0.200
3.800 20.000 1.200
3.800 20.000 2.000
4.000 20.000 0.200
4.000 20.000 1.200
4.000 20.000 2.000
4.200 20.000 0.200
4.200 20.000 1.200
4.200 20.000 2.000
4.400 20.000 0.200
4.400 20.000 1.200
4.400 20.000 2.000
7.881 14.017 0.200
7.881 14.017 0.800
7.881 14.017 1.400
7.881 14.017 2.000
7.950 14.109 0.200
7.950 14.109 0.800
7.950 14.109 1.400
7.950 14.109 2.000
7.904 14.072 0.200
7.904 14.072 0.800
7.904 14.072 1.400
7.904 14.072 2.000
7.922 13.909 0.200
7.922 13.909 0.800
7.922 13.909 1.400
7.922 13.909 2.000
7.975 13.883 0.200
7.975 13.883 0.800
7.975 13.883 1.400
7.975 13.883 2.000
8.065 14.101 0.200
8.065 14.101 0.800
8.065 14.101 1.400
8.065 14.101 2.000
4.600 20.000 0.200
4.600 20.000 1.200
4.600 20.000 2.000
8.120 14.000 0.200
8.120 14.000 0.800
8.120 14.000 1.400
8.120 14.000 2.000
8.085 13.915 0.200
8.085 13.915 0.800
8.085 13.915 1.400
8.085 13.915 2.000
4.800 20.000 0.200
4.800 20.000 1.200
4.800 20.000 2.000
5.000 20.000 0.200
5.000 20.000 1.200
5.000 20.000 2.000
5.200 20.000 0.200
5.200 20.000 1.200
5.200 20.000 2.000
5.400 20.000 0.200
5.400 20.000 1.200
5.400 20.000 2.000
5.600 20.000 0.200
5.600 20.000 1.200
5.600 20.000 2.000
5.800 20.000 0.200
5.800 20.000 1.200
5.800 20.000 2.000
6.000 20.000 0.200
6.000 20.000 1.200
6.000 20.000 2.000
6.200 20.000 0.200
6.200 20.000 1.200
6.200 20.000 2.000
6.400 20.000 0.200
6.400 20.000 1.200
6.400 20.000 2.000
6.600 20.000 0.200
6.600 20.000 1.200
6.600 20.000 2.000
6.800 20.000 0.200
6.800 20.000 1.200
6.800 20.000 2.000
7.000 20.000 0.200
7.000 20.000 1.200
7.000 20.000 2.000
7.200 20.000 0.200
7.200 20.000 1.200
7.200 20.000 2.000
7.400 20.000 0.200
7.400 20.000 1.200
7.400 20.000 2.000
7.600 20.000 0.200
7.600 20.000 1.200
7.600 20.000 2.000
7.800 20.000 0.200
7.800 20.000 1.200
7.800 20.000 2.000
8.000 20.000 0.200
8.000 20.000 1.200
8.000 20.000 2.000
8.200 20.000 0.200
8.200 20.000 1.200
8.200 20.000 2.000
8.400 20.000 0.200
8.400 20.000 1.200
8.400 20.000 2.000
8.600 20.000 0.200
8.600 20.000 1.200
8.600 20.000 2.000
8.800 20.000 0.200
8.800 20.000 1.200
8.800 20.000 2.000
9.000 20.000 0.200
9.000 20.000 1.200
9.000 20.000 2.000
9.200 20.000 0.200
9.200 20.000 1.200
9.200 20.000 2.000
9.400 20.000 0.200
9.400 20.000 1.200
9.400 20.000 2.000
9.600 20.000 0.200
9.600 20.000 1.200
9.600 20.000 2.000
9.800 20.000 0.200
9.800 20.000 1.200
9.800 20.000 2.000
10.000 20.000 0.200
10.000 20.000 1.200
10.000 20.000 2.000
10.200 20.000 0.200
10.200 20.000 1.200
10.200 20.000 2.000
10.400 20.000 0.200
10.400 20.000 1.200
10.400 20.000 2.000
10.600 20.000 0.200
10.600 20.000 1.200
10.600 20.000 2.000
10.800 20.000 0.200
10.800 20.000 1.200
10.800 20.000 2.000
11.000 20.000 0.200
11.000 20.000 1.200
11.000 20.000 2.000
11.200 20.000 0.200
11.200 20.000 1.200
11.200 20.000 2.000
11.400 20.000 0.200
11.400 20.000 1.200
11.400 20.000 2.000
11.600 20.000 0.200
11.600 20.000 1.200
11.600 20.000 2.000
11.800 20.000 0.200
11.800 20.000 1.200
11.800 20.000 2.000
12.000 20.000 0.200
12.000 20.000 1.200
12.000 20.000 2.000
12.200 20.000 0.200
12.200 20.000 1.200
12.200 20.000 2.000
12.400 20.000 0.200
12.400 20.000 1.200
12.400 20.000 2.000
12.600 20.000 0.200
12.600 20.000 1.200
12.600 20.000 2.000
12.800 20.000 0.200
12.800 20.000 1.200
12.800 20.000 2.000
13.000 20.000 0.200
13.000 20.000 1.200
13.000 20.000 2.000
13.200 20.000 0.200
13.200 20.000 1.200
13.200 20.000 2.000
13.400 20.000 0.200
13.400 20.000 1.200
13.400 20.000 2.000
13.600 20.000 0.200
13.600 20.000 1.200
13.600 20.000 2.000
13.800 20.000 0.200
13.800 20.000 1.200
13.800 20.000 2.000
14.000 20.000 0.200
14.000 20.000 1.200
14.000 20.000 2.000
14.200 20.000 0.200
14.200 20.000 1.200
14.200 20.000 2.000
14.400 20.000 0.200
14.400 20.000 1.200
14.400 20.000 2.000
15.881 16.017 0.200
15.881 16.017 0.800
15.881 16.017 1.400
15.881 16.017 2.000
15.950 16.109 0.200
15.950 16.109 0.800
15.950 16.109 1.400
15.950 16.109 2.000
15.904 16.072 0.200
15.904 16.072 0.800
15.904 16.072 1.400
15.904 16.072 2.000
15.922 15.909 0.200
15.922 15.909 0.800
15.922 15.909 1.400
15.922 15.909 2.000
15.975 15.883 0.200
15.975 15.883 0.800
15.975 15.883 1.400
15.975 15.883 2.000
14.600 20.000 0.200
14.600 20.000 1.200
14.600 20.000 2.000
16.065 16.101 0.200
16.065 16.101 0.800
16.065 16.101 1.400
16.065 16.101 2.000
16.085 15.915 0.200
16.085 15.915 0.800
16.085 15.915 1.400
16.085 15.915 2.000
16.120 16.000 0.200
16.120 16.000 0.800
16.120 16.000 1.400
16.120 16.000 2.000
14.800 20.000 0.200
14.800 20.000 1.200
14.800 20.000 2.000
15.000 20.000 0.200
15.000 20.000 1.200
15.000 20.000 2.000
12.750 8.650 0.200
12.750 8.650 0.500
12.750 8.650 0.900
12.750 8.650 1.400
12.750 8.650 1.700
12.750 8.600 0.200
12.750 8.600 0.500
12.750 8.600 0.900
12.750 8.600 1.400
12.750 8.600 1.700
15.200 20.000 0.200
15.200 20.000 1.200
15.200 20.000 2.000
12.750 8.650 0.200
12.750 8.650 0.500
12.750 8.650 0.900
12.750 8.650 1.400
12.750 8.650 1.700
15.400 20.000 0.200
15.400 20.000 1.200
15.400 20.000 2.000
12.750 8.600 0.200
12.750 8.600 0.500
12.750 8.600 0.900
12.750 8.600 1.400
12.750 8.600 1.700
13.000 8.600 0.200
13.000 8.600 0.500
13.000 8.600 0.900
13.000 8.600 1.400
13.000 8.600 1.700
15.600 20.000 0.200
15.600 20.000 1.200
15.600 20.000 2.000
12.750 8.400 0.200
12.750 8.400 0.500
12.750 8.400 0.900
12.750 8.400 1.400
12.750 8.400 1.700
12.750 8.400 0.200
12.750 8.400 0.500
12.750 8.400 0.900
12.750 8.400 1.400
12.750 8.400 1.700
15.800 20.000 0.200
15.800 20.000 1.200
15.800 20.000 2.000
13.250 8.600 0.200
13.250 8.600 0.500
13.250 8.600 0.900
13.250 8.600 1.400
13.250 8.600 1.700
13.250 8.600 0.200
13.250 8.600 0.500
13.250 8.600 0.900
13.250 8.600 1.400
13.250 8.600 1.700
16.000 20.000 0.200
16.000 20.000 1.200
16.000 20.000 2.000
13.500 8.600 0.200
13.500 8.600 0.500
13.500 8.600 0.900
13.500 8.600 1.400
13.500 8.600 1.700
16.200 20.000 0.200
16.200 20.000 1.200
16.200 20.000 2.000
16.400 20.000 0.200
16.400 20.000 1.200
16.400 20.000 2.000
12.750 8.150 0.200
12.750 8.150 0.500
12.750 8.150 0.900
12.750 8.150 1.400
12.750 8.150 1.700
13.750 8.600 0.200
13.750 8.600 0.500
13.750 8.600 0.900
13.750 8.600 1.400
13.750 8.600 1.700
16.600 20.000 0.200
16.600 20.000 1.200
16.600 20.000 2.000
13.750 8.600 0.200
13.750 8.600 0.500
13.750 8.600 0.900
13.750 8.600 1.400
13.750 8.600 1.700
12.750 8.150 0.200
12.750 8.150 0.500
12.750 8.150 0.900
12.750 8.150 1.400
12.750 8.150 1.700
16.800 20.000 0.200
16.800 20.000 1.200
16.800 20.000 2.000
14.000 8.600 0.200
14.000 8.600 0.500
14.000 8.600 0.900
14.000 8.600 1.400
14.000 8.600 1.700
17.000 20.000 0.200
17.000 20.000 1.200
17.000 20.000 2.000
17.200 20.000 0.200
17.200 20.000 1.200
17.200 20.000 2.000
14.250 8.600 0.200
14.250 8.600 0.500
14.250 8.600 0.900
14.250 8.600 1.400
14.250 8.600 1.700
17.400 20.000 0.200
17.400 20.000 1.200
17.400 20.000 2.000
14.500 8.600 0.200
14.500 8.600 0.500
14.500 8.600 0.900
14.500 8.600 1.400
14.500 8.600 1.700
17.600 20.000 0.200
17.600 20.000 1.200
17.600 20.000 2.000
17.800 20.000 0.200
17.800 20.000 1.200
17.800 20.000 2.000
14.750 8.600 0.200
14.750 8.600 0.500
14.750 8.600 0.900
14.750 8.600 1.400
14.750 8.600 1.700
12.750 7.900 0.200
12.750 7.900 0.500
12.750 7.900 0.900
12.750 7.900 1.400
12.750 7.900 1.700
18.000 20.000 0.200
18.000 20.000 1.200
18.000 20.000 2.000
14.250 8.600 0.200
14.250 8.600 0.500
14.250 8.600 0.900
14.250 8.600 1.400
14.250 8.600 1.700
12.750 7.900 0.200
12.750 7.900 0.500
12.750 7.900 0.900
12.750 7.900 1.400
12.750 7.900 1.700
14.750 8.600 0.200
14.750 8.600 0.500
14.750 8.600 0.900
14.750 8.600 1.400
14.750 8.600 1.700
18.200 20.000 0.200
18.200 20.000 1.200
18.200 20.000 2.000
15.000 8.600 0.200
15.000 8.600 0.500
15.000 8.600 0.900
15.000 8.600 1.400
15.000 8.600 1.700
18.400 20.000 0.200
18.400 20.000 1.200
18.400 20.000 2.000
15.250 8.650 0.200
15.250 8.650 0.500
15.250 8.650 0.900
15.250 8.650 1.400
15.250 8.650 1.700
18.600 20.000 0.200
18.600 20.000 1.200
18.600 20.000 2.000
15.250 8.650 0.200
15.250 8.650 0.500
15.250 8.650 0.900
15.250 8.650 1.400
15.250 8.650 1.700
18.800 20.000 0.200
18.800 20.000 1.200
18.800 20.000 2.000
20.000 14.800 0.200
20.000 14.800 1.200
20.000 14.800 2.000
20.000 15.000 0.200
20.000 15.000 1.200
20.000 15.000 2.000
20.000 15.200 0.200
20.000 15.200 1.200
20.000 15.200 2.000
20.000 15.400 0.200
20.000 15.400 1.200
20.000 15.400 2.000
20.000 15.600 0.200
20.000 15.600 1.200
20.000 15.600 2.000
20.000 15.800 0.200
20.000 15.800 1.200
20.000 15.800 2.000
20.000 16.400 0.200
20.000 16.400 1.200
20.000 16.400 2.000
20.000 16.600 0.200
20.000 16.600 1.200
20.000 16.600 2.000
20.000 16.800 0.200
20.000 16.800 1.200
20.000 16.800 2.000
20.000 17.000 0.200
20.000 17.000 1.200
20.000 17.000 2.000
20.000 14.200 0.200
20.000 14.200 1.200
20.000 14.200 2.000
20.000 14.400 0.200
20.000 14.400 1.200
20.000 14.400 2.000
20.000 14.600 0.200
20.000 14.600 1.200
20.000 14.600 2.000
20.000 17.200 0.200
20.000 17.200 1.200
20.000 17.200 2.000
20.000 17.400 0.200
20.000 17.400 1.200
20.000 17.400 2.000
20.000 17.600 0.200
20.000 17.600 1.200
20.000 17.600 2.000
19.000 20.000 0.200
19.000 20.000 1.200
19.000 20.000 2.000
20.000 13.800 0.200
20.000 13.800 1.200
20.000 13.800 2.000
20.000 14.000 0.200
20.000 14.000 1.200
20.000 14.000 2.000
20.000 17.800 0.200
20.000 17.800 1.200
20.000 17.800 2.000
20.000 18.000 0.200
20.000 18.000 1.200
20.000 18.000 2.000
20.000 13.600 0.200
20.000 13.600 1.200
20.000 13.600 2.000
20.000 18.200 0.200
20.000 18.200 1.200
20.000 18.200 2.000
19.200 20.000 0.200
19.200 20.000 1.200
19.200 20.000 2.000
20.000 13.200 0.200
20.000 13.200 1.200
20.000 13.200 2.000
20.000 13.400 0.200
20.000 13.400 1.200
20.000 13.400 2.000
20.000 18.400 0.200
20.000 18.400 1.200
20.000 18.400 2.000
20.000 18.600 0.200
20.000 18.600 1.200
20.000 18.600 2.000
20.000 13.000 0.200
20.000 13.000 1.200
20.000 13.000 2.000
20.000 18.800 0.200
20.000 18.800 1.200
20.000 18.800 2.000
19.400 20.000 0.200
19.400 20.000 1.200
19.400 20.000 2.000
20.000 12.800 0.200
20.000 12.800 1.200
20.000 12.800 2.000
20.000 19.000 0.200
20.000 19.000 1.200
20.000 19.000 2.000
20.000 12.600 0.200
20.000 12.600 1.200
20.000 12.600 2.000
20.000 19.200 0.200
20.000 19.200 1.200
20.000 19.200 2.000
20.000 19.400 0.200
20.000 19.400 1.200
20.000 19.400 2.000
19.600 20.000 0.200
19.600 20.000 1.200
19.600 20.000 2.000
20.000 12.400 0.200
20.000 12.400 1.200
20.000 12.400 2.000
20.000 19.600 0.200
20.000 19.600 1.200
20.000 19.600 2.000
20.000 12.200 0.200
20.000 12.200 1.200
20.000 12.200 2.000
20.000 19.800 0.200
19.800 20.000 0.200
20.000 19.800 1.200
19.800 20.000 1.200
20.000 19.800 2.000
19.800 20.000 2.000
20.000 12.000 0.200
20.000 12.000 1.200
20.000 12.000 2.000
20.000 20.000 0.200
20.000 20.000 1.200
20.000 20.000 2.000
20.000 11.800 0.200
20.000 11.800 1.200
20.000 11.800 2.000
20.000 11.600 0.200
20.000 11.600 1.200
20.000 11.600 2.000
20.000 11.400 0.200
20.000 11.400 1.200
20.000 11.400 2.000
20.000 11.200 0.200
20.000 11.200 1.200
20.000 11.200 2.000
20.000 11.000 0.200
20.000 11.000 1.200
20.000 11.000 2.000
20.000 16.200 0.200
20.000 16.200 1.200
20.000 16.200 2.000
20.000 10.800 0.200
20.000 10.800 1.200
20.000 10.800 2.000
20.000 10.600 0.200
20.000 10.600 1.200
20.000 10.600 2.000
15.250 8.650 0.200
15.250 8.650 0.500
15.250 8.650 0.900
15.250 8.650 1.400
15.250 8.650 1.700
20.000 10.400 0.200
20.000 10.400 1.200
20.000 10.400 2.000
15.250 8.650 0.200
15.250 8.650 0.500
15.250 8.650 0.900
15.250 8.650 1.400
15.250 8.650 1.700
20.000 10.200 0.200
20.000 10.200 1.200
20.000 10.200 2.000
20.000 10.000 0.200
20.000 10.000 1.200
20.000 10.000 2.000
20.000 16.000 0.200
20.000 16.000 1.200
20.000 16.000 2.000
20.000 9.800 0.200
20.000 9.800 1.200
20.000 9.800 2.000
20.000 9.600 0.200
20.000 9.600 1.200
20.000 9.600 2.000
20.000 9.400 0.200
20.000 9.400 1.200
20.000 9.400 2.000
20.000 9.200 0.200
20.000 9.200 1.200
20.000 9.200 2.000
20.000 9.000 0.200
20.000 9.000 1.200
20.000 9.000 2.000
20.000 8.800 0.200
20.000 8.800 1.200
20.000 8.800 2.000
20.000 8.600 0.200
20.000 8.600 1.200
20.000 8.600 2.000
20.000 8.400 0.200
20.000 8.400 1.200
20.000 8.400 2.000
15.250 7.400 0.200
15.250 7.400 0.500
15.250 7.400 0.900
15.250 7.400 1.400
15.250 7.400 1.700
15.250 7.650 0.200
15.250 7.650 0.500
15.250 7.650 0.900
15.250 7.650 1.400
15.250 7.650 1.700
15.250 7.900 0.200
15.250 7.900 0.500
15.250 7.900 0.900
15.250 7.900 1.400
15.250 7.900 1.700
15.250 8.150 0.200
15.250 8.150 0.500
15.250 8.150 0.900
15.250 8.150 1.400
15.250 8.150 1.700
15.250 8.400 0.200
15.250 8.400 0.500
15.250 8.400 0.900
15.250 8.400 1.400
15.250 8.400 1.700
20.000 8.200 0.200
20.000 8.200 1.200
20.000 8.200 2.000
15.250 7.400 0.200
15.250 7.400 0.500
15.250 7.400 0.900
15.250 7.400 1.400
15.250 7.400 1.700
15.250 7.650 0.200
15.250 7.650 0.500
15.250 7.650 0.900
15.250 7.650 1.400
15.250 7.650 1.700
15.250 7.900 0.200
15.250 7.900 0.500
15.250 7.900 0.900
15.250 7.900 1.400
15.250 7.900 1.700
20.000 8.000 0.200
20.000 8.000 1.200
20.000 8.000 2.000
15.250 8.150 0.200
15.250 8.150 0.500
15.250 8.150 0.900
15.250 8.150 1.400
15.250 8.150 1.700
20.000 7.800 0.200
20.000 7.800 1.200
20.000 7.800 2.000
20.000 7.600 0.200
20.000 7.600 1.200
20.000 7.600 2.000
15.250 8.150 0.200
15.250 8.150 0.500
15.250 8.150 0.900
15.250 8.150 1.400
15.250 8.150 1.700
15.250 8.150 0.200
15.250 8.150 0.500
15.250 8.150 0.900
15.250 8.150 1.400
15.250 8.150 1.700
15.250 8.400 0.200
15.250 8.400 0.500
15.250 8.400 0.900
15.250 8.400 1.400
15.250 8.400 1.700
20.000 7.400 0.200
20.000 7.400 1.200
20.000 7.400 2.000
20.000 7.200 0.200
20.000 7.200 1.200
20.000 7.200 2.000
20.000 7.000 0.200
20.000 7.000 1.200
20.000 7.000 2.000
15.250 7.650 0.200
15.250 7.650 0.500
15.250 7.650 0.900
15.250 7.650 1.400
15.250 7.650 1.700
20.000 6.800 0.200
20.000 6.800 1.200
20.000 6.800 2.000
20.000 6.600 0.200
20.000 6.600 1.200
20.000 6.600 2.000
20.000 6.400 0.200
20.000 6.400 1.200
20.000 6.400 2.000
20.000 6.200 0.200
20.000 6.200 1.200
20.000 6.200 2.000
15.250 7.650 0.200
15.250 7.650 0.500
15.250 7.650 0.900
15.250 7.650 1.400
15.250 7.650 1.700
20.000 6.000 0.200
20.000 6.000 1.200
20.000 6.000 2.000
20.000 5.800 0.200
20.000 5.800 1.200
20.000 5.800 2.000
20.000 5.600 0.200
20.000 5.600 1.200
20.000 5.600 2.000
20.000 5.400 0.200
20.000 5.400 1.200
20.000 5.400 2.000
20.000 5.200 0.200
20.000 5.200 1.200
20.000 5.200 2.000
20.000 5.000 0.200
20.000 5.000 1.200
20.000 5.000 2.000
20.000 4.800 0.200
20.000 4.800 1.200
20.000 4.800 2.000
20.000 4.600 0.200
20.000 4.600 1.200
20.000 4.600 2.000
20.000 4.400 0.200
20.000 4.400 1.200
20.000 4.400 2.000
20.000 4.200 0.200
20.000 4.200 1.200
20.000 4.200 2.000
20.000 4.000 0.200
20.000 4.000 1.200
20.000 4.000 2.000
20.000 3.800 0.200
20.000 3.800 1.200
20.000 3.800 2.000
20.000 3.600 0.200
20.000 3.600 1.200
20.000 3.600 2.000
20.000 3.400 0.200
20.000 3.400 1.200
20.000 3.400 2.000
20.000 3.200 0.200
20.000 3.200 1.200
20.000 3.200 2.000
20.000 3.000 0.200
20.000 3.000 1.200
20.000 3.000 2.000
20.000 2.800 0.200
20.000 2.800 1.200
20.000 2.800 2.000
20.000 2.600 0.200
20.000 2.600 1.200
20.000 2.600 2.000
20.000 2.400 0.200
20.000 2.400 1.200
20.000 2.400 2.000
20.000 2.200 0.200
20.000 2.200 1.200
20.000 2.200 2.000
20.000 2.000 0.200
20.000 2.000 1.200
20.000 2.000 2.000
20.000 1.800 0.200
20.000 1.800 1.200
20.000 1.800 2.000
20.000 1.600 0.200
20.000 1.600 1.200
20.000 1.600 2.000
20.000 1.400 0.200
20.000 1.400 1.200
20.000 1.400 2.000
20.000 1.200 0.200
20.000 1.200 1.200
20.000 1.200 2.000
20.000 1.000 0.200
20.000 1.000 1.200
20.000 1.000 2.000
20.000 0.800 0.200
20.000 0.800 1.200
20.000 0.800 2.000
20.000 0.600 0.200
20.000 0.600 1.200
20.000 0.600 2.000
20.000 0.400 0.200
20.000 0.400 1.200
20.000 0.400 2.000
20.000 0.200 0.200
20.000 0.200 1.200
20.000 0.200 2.000
20.000 0.000 0.200
20.000 0.000 1.200
20.000 0.000 2.000
20.000 -0.200 0.200
20.000 -0.200 1.200
20.000 -0.200 2.000
12.750 7.400 0.200
12.750 7.400 0.500
12.750 7.400 0.900
12.750 7.400 1.400
12.750 7.400 1.700
13.000 7.400 0.200
13.000 7.400 0.500
13.000 7.400 0.900
13.000 7.400 1.400
13.000 7.400 1.700
13.250 7.400 0.200
13.250 7.400 0.500
13.250 7.400 0.900
13.250 7.400 1.400
13.250 7.400 1.700
13.500 7.400 0.200
13.500 7.400 0.500
13.500 7.400 0.900
13.500 7.400 1.400
13.500 7.400 1.700
13.750 7.400 0.200
13.750 7.400 0.500
13.750 7.400 0.900
13.750 7.400 1.400
13.750 7.400 1.700
14.000 7.400 0.200
14.000 7.400 0.500
14.000 7.400 0.900
14.000 7.400 1.400
14.000 7.400 1.700
14.250 7.400 0.200
14.250 7.400 0.500
14.250 7.400 0.900
14.250 7.400 1.400
14.250 7.400 1.700
14.500 7.400 0.200
14.500 7.400 0.500
14.500 7.400 0.900
14.500 7.400 1.400
14.500 7.400 1.700
14.750 7.400 0.200
14.750 7.400 0.500
14.750 7.400 0.900
14.750 7.400 1.400
14.750 7.400 1.700
15.000 7.400 0.200
15.000 7.400 0.500
15.000 7.400 0.900
15.000 7.400 1.400
15.000 7.400 1.700
20.000 -0.400 0.200
20.000 -0.400 1.200
20.000 -0.400 2.000
20.000 -0.600 0.200
20.000 -0.600 1.200
20.000 -0.600 2.000
20.000 -0.800 0.200
20.000 -0.800 1.200
20.000 -0.800 2.000
20.000 -1.000 0.200
20.000 -1.000 1.200
20.000 -1.000 2.000
20.000 -1.200 0.200
20.000 -1.200 1.200
20.000 -1.200 2.000
12.750 7.400 0.200
12.750 7.400 0.500
12.750 7.400 0.900
12.750 7.400 1.400
12.750 7.400 1.700
14.750 7.400 0.200
14.750 7.400 0.500
14.750 7.400 0.900
14.750 7.400 1.400
14.750 7.400 1.700
13.250 7.400 0.200
13.250 7.400 0.500
13.250 7.400 0.900
13.250 7.400 1.400
13.250 7.400 1.700
13.750 7.400 0.200
13.750 7.400 0.500
13.750 7.400 0.900
13.750 7.400 1.400
13.750 7.400 1.700
20.000 -1.400 0.200
20.000 -1.400 1.200
20.000 -1.400 2.000
14.250 7.400 0.200
14.250 7.400 0.500
14.250 7.400 0.900
14.250 7.400 1.400
14.250 7.400 1.700
20.000 -1.600 0.200
20.000 -1.600 1.200
20.000 -1.600 2.000
20.000 -1.800 0.200
20.000 -1.800 1.200
20.000 -1.800 2.000
20.000 -2.000 0.200
20.000 -2.000 1.200
20.000 -2.000 2.000
14.120 -2.000 0.200
14.120 -2.000 0.800
14.120 -2.000 1.400
14.120 -2.000 2.000
14.105 -1.942 0.200
14.105 -1.942 0.800
14.105 -1.942 1.400
14.105 -1.942 2.000
14.008 -1.880 0.200
14.008 -1.880 0.800
14.008 -1.880 1.400
14.008 -1.880 2.000
13.904 -1.928 0.200
13.904 -1.928 0.800
13.904 -1.928 1.400
13.904 -1.928 2.000
13.881 -1.983 0.200
13.881 -1.983 0.800
13.881 -1.983 1.400
13.881 -1.983 2.000
14.085 -2.085 0.200
14.085 -2.085 0.800
14.085 -2.085 1.400
14.085 -2.085 2.000
20.000 -2.200 0.200
20.000 -2.200 1.200
20.000 -2.200 2.000
13.922 -2.091 0.200
13.922 -2.091 0.800
13.922 -2.091 1.400
13.922 -2.091 2.000
13.975 -2.117 0.200
13.975 -2.117 0.800
13.975 -2.117 1.400
13.975 -2.117 2.000
20.000 -2.400 0.200
20.000 -2.400 1.200
20.000 -2.400 2.000
20.000 -2.600 0.200
20.000 -2.600 1.200
20.000 -2.600 2.000
20.000 -2.800 0.200
20.000 -2.800 1.200
20.000 -2.800 2.000
20.000 -3.000 0.200
20.000 -3.000 1.200
20.000 -3.000 2.000
20.000 -3.200 0.200
20.000 -3.200 1.200
20.000 -3.200 2.000
20.000 -3.400 0.200
20.000 -3.400 1.200
20.000 -3.400 2.000
20.000 -3.600 0.200
20.000 -3.600 1.200
20.000 -3.600 2.000
20.000 -3.800 0.200
20.000 -3.800 1.200
20.000 -3.800 2.000
20.000 -4.000 0.200
20.000 -4.000 1.200
20.000 -4.000 2.000
12.750 7.650 0.200
12.750 7.650 0.500
12.750 7.650 0.900
12.750 7.650 1.400
12.750 7.650 1.700
12.750 8.150 0.200
12.750 8.150 0.500
12.750 8.150 0.900
12.750 8.150 1.400
12.750 8.150 1.700
12.750 7.650 0.200
12.750 7.650 0.500
12.750 7.650 0.900
12.750 7.650 1.400
12.750 7.650 1.700
12.750 8.150 0.200
12.750 8.150 0.500
12.750 8.150 0.900
12.750 8.150 1.400
12.750 8.150 1.700
12.750 7.650 0.200
12.750 7.650 0.500
12.750 7.650 0.900
12.750 7.650 1.400
12.750 7.650 1.700
12.750 7.650 0.200
12.750 7.650 0.500
12.750 7.650 0.900
12.750 7.650 1.400
12.750 7.650 1.700
