# .PCD v0.7 - map_manager
VERSION 0.7
FIELDS x y z
SIZE 4 4 4
TYPE F F F
COUNT 1 1 1
WIDTH 2730
HEIGHT 1
VIEWPOINT 0 0 0 1 0 0 0
POINTS 2730
DATA ascii
-7.880 -14.000 0.200
-7.880 -14.000 0.800
-7.880 -14.000 1.400
-7.880 -14.000 2.000
-7.895 -13.942 0.200
-7.895 -13.942 0.800
-7.895 -13.942 1.400
-7.895 -13.942 2.000
-7.992 -13.880 0.200
-7.992 -13.880 0.800
-7.992 -13.880 1.400
-7.992 -13.880 2.000
-8.096 -13.928 0.200
-8.096 -13.928 0.800
-8.096 -13.928 1.400
-8.096 -13.928 2.000
-8.119 -13.983 0.200
-8.119 -13.983 0.800
-8.119 -13.983 1.400
-8.119 -13.983 2.000
-8.078 -14.091 0.200
-8.078 -14.091 0.800
-8.078 -14.091 1.400
-8.078 -14.091 2.000
-8.025 -14.117 0.200
-8.025 -14.117 0.800
-8.025 -14.117 1.400
-8.025 -14.117 2.000
-7.915 -14.085 0.200
-7.915 -14.085 0.800
-7.915 -14.085 1.400
-7.915 -14.085 2.000
8.120 14.000 0.200
8.120 14.000 0.800
8.120 14.000 1.400
8.120 14.000 2.000
8.105 14.058 0.200
8.105 14.058 0.800
8.105 14.058 1.400
8.105 14.058 2.000
8.008 14.120 0.200
8.008 14.120 0.800
8.008 14.120 1.400
8.008 14.120 2.000
7.904 14.072 0.200
7.904 14.072 0.800
7.904 14.072 1.400
7.904 14.072 2.000
7.881 14.017 0.200
7.881 14.017 0.800
7.881 14.017 1.400
7.881 14.017 2.000
7.922 13.909 0.200
7.922 13.909 0.800
7.922 13.909 1.400
7.922 13.909 2.000
7.975 13.883 0.200
7.975 13.883 0.800
7.975 13.883 1.400
7.975 13.883 2.000
8.085 13.915 0.200
8.085 13.915 0.800
8.085 13.915 1.400
8.085 13.915 2.000
-13.880 2.000 0.200
-13.880 2.000 0.800
-13.880 2.000 1.400
-13.880 2.000 2.000
-13.895 2.058 0.200
-13.895 2.058 0.800
-13.895 2.058 1.400
-13.895 2.058 2.000
-13.992 2.120 0.200
-13.992 2.120 0.800
-13.992 2.120 1.400
-13.992 2.120 2.000
-14.096 2.072 0.200
-14.096 2.072 0.800
-14.096 2.072 1.400
-14.096 2.072 2.000
-14.119 2.017 0.200
-14.119 2.017 0.800
-14.119 2.017 1.400
-14.119 2.017 2.000
-14.078 1.909 0.200
-14.078 1.909 0.800
-14.078 1.909 1.400
-14.078 1.909 2.000
-14.025 1.883 0.200
-14.025 1.883 0.800
-14.025 1.883 1.400
-14.025 1.883 2.000
-13.915 1.915 0.200
-13.915 1.915 0.800
-13.915 1.915 1.400
-13.915 1.915 2.000
14.120 -2.000 0.200
14.120 -2.000 0.800
14.120 -2.000 1.400
14.120 -2.000 2.000
14.105 -1.942 0.200
14.105 -1.942 0.800
14.105 -1.942 1.400
14.105 -1.942 2.000
14.008 -1.880 0.200
14.008 -1.880 0.800
14.008 -1.880 1.400
14.008 -1.880 2.000
13.904 -1.928 0.200
13.904 -1.928 0.800
13.904 -1.928 1.400
13.904 -1.928 2.000
13.881 -1.983 0.200
13.881 -1.983 0.800
13.881 -1.983 1.400
13.881 -1.983 2.000
13.922 -2.091 0.200
13.922 -2.091 0.800
13.922 -2.091 1.400
13.922 -2.091 2.000
13.975 -2.117 0.200
13.975 -2.117 0.800
13.975 -2.117 1.400
13.975 -2.117 2.000
14.085 -2.085 0.200
14.085 -2.085 0.800
14.085 -2.085 1.400
14.085 -2.085 2.000
-13.000 -7.250 0.200
-13.000 -7.250 0.500
-13.000 -7.250 0.900
-13.000 -7.250 1.400
-13.000 -7.250 1.700
-12.750 -7.250 0.200
-12.750 -7.250 0.500
-12.750 -7.250 0.900
-12.750 -7.250 1.400
-12.750 -7.250 1.700
-12.500 -7.250 0.200
-12.500 -7.250 0.500
-12.500 -7.250 0.900
-12.500 -7.250 1.400
-12.500 -7.250 1.700
-12.250 -7.250 0.200
-12.250 -7.250 0.500
-12.250 -7.250 0.900
-12.250 -7.250 1.400
-12.250 -7.250 1.700
-12.000 -7.250 0.200
-12.000 -7.250 0.500
-12.000 -7.250 0.900
-12.000 -7.250 1.400
-12.000 -7.250 1.700
-11.750 -7.250 0.200
-11.750 -7.250 0.500
-11.750 -7.250 0.900
-11.750 -7.250 1.400
-11.750 -7.250 1.700
-11.500 -7.250 0.200
-11.500 -7.250 0.500
-11.500 -7.250 0.900
-11.500 -7.250 1.400
-11.500 -7.250 1.700
-11.250 -7.250 0.200
-11.250 -7.250 0.500
-11.250 -7.250 0.900
-11.250 -7.250 1.400
-11.250 -7.250 1.700
-11.000 -8.750 0.200
-11.000 -7.250 0.200
-11.000 -8.750 0.500
-11.000 -7.250 0.500
-11.000 -8.750 0.900
-11.000 -7.250 0.900
-11.000 -8.750 1.400
-11.000 -7.250 1.400
-11.000 -8.750 1.700
-11.000 -7.250 1.700
-11.000 -8.500 0.200
-11.000 -8.500 0.500
-11.000 -8.500 0.900
-11.000 -8.500 1.400
-11.000 -8.500 1.700
-11.000 -8.250 0.200
-11.000 -8.250 0.500
-11.000 -8.250 0.900
-11.000 -8.250 1.400
-11.000 -8.250 1.700
-11.000 -8.000 0.200
-11.000 -8.000 0.500
-11.000 -8.000 0.900
-11.000 -8.000 1.400
-11.000 -8.000 1.700
-11.000 -7.750 0.200
-11.000 -7.750 0.500
-11.000 -7.750 0.900
-11.000 -7.750 1.400
-11.000 -7.750 1.700
-11.000 -7.500 0.200
-11.000 -7.500 0.500
-11.000 -7.500 0.900
-11.000 -7.500 1.400
-11.000 -7.500 1.700
9.100 -12.900 0.200
9.100 -11.100 0.200
9.100 -12.900 0.500
9.100 -11.100 0.500
9.100 -12.900 0.900
9.100 -11.100 0.900
9.100 -12.900 1.400
9.100 -11.100 1.400
9.100 -12.900 1.700
9.100 -11.100 1.700
9.350 -11.100 0.200
9.350 -11.100 0.500
9.350 -11.100 0.900
9.350 -11.100 1.400
9.350 -11.100 1.700
9.600 -11.100 0.200
9.600 -11.100 0.500
9.600 -11.100 0.900
9.600 -11.100 1.400
9.600 -11.100 1.700
9.850 -11.100 0.200
9.850 -11.100 0.500
9.850 -11.100 0.900
9.850 -11.100 1.400
9.850 -11.100 1.700
10.100 -11.100 0.200
10.100 -11.100 0.500
10.100 -11.100 0.900
10.100 -11.100 1.400
10.100 -11.100 1.700
10.350 -11.100 0.200
10.350 -11.100 0.500
10.350 -11.100 0.900
10.350 -11.100 1.400
10.350 -11.100 1.700
10.600 -11.100 0.200
10.600 -11.100 0.500
10.600 -11.100 0.900
10.600 -11.100 1.400
10.600 -11.100 1.700
10.850 -11.100 0.200
10.850 -11.100 0.500
10.850 -11.100 0.900
10.850 -11.100 1.400
10.850 -11.100 1.700
9.100 -12.650 0.200
9.100 -12.650 0.500
9.100 -12.650 0.900
9.100 -12.650 1.400
9.100 -12.650 1.700
9.100 -12.400 0.200
9.100 -12.400 0.500
9.100 -12.400 0.900
9.100 -12.400 1.400
9.100 -12.400 1.700
9.100 -12.150 0.200
9.100 -12.150 0.500
9.100 -12.150 0.900
9.100 -12.150 1.400
9.100 -12.150 1.700
9.100 -11.900 0.200
9.100 -11.900 0.500
9.100 -11.900 0.900
9.100 -11.900 1.400
9.100 -11.900 1.700
9.100 -11.650 0.200
9.100 -11.650 0.500
9.100 -11.650 0.900
9.100 -11.650 1.400
9.100 -11.650 1.700
9.100 -11.400 0.200
9.100 -11.400 0.500
9.100 -11.400 0.900
9.100 -11.400 1.400
9.100 -11.400 1.700
12.750 7.400 0.200
12.750 8.600 0.200
12.750 7.400 0.500
12.750 8.600 0.500
12.750 7.400 0.900
12.750 8.600 0.900
12.750 7.400 1.400
12.750 8.600 1.400
12.750 7.400 1.700
12.750 8.600 1.700
13.000 7.400 0.200
13.000 8.600 0.200
13.000 7.400 0.500
13.000 8.600 0.500
13.000 7.400 0.900
13.000 8.600 0.900
13.000 7.400 1.400
13.000 8.600 1.400
13.000 7.400 1.700
13.000 8.600 1.700
13.250 7.400 0.200
13.250 7.400 0.500
13.250 7.400 0.900
13.250 7.400 1.400
13.250 7.400 1.700
13.500 7.400 0.200
13.500 7.400 0.500
13.500 7.400 0.900
13.500 7.400 1.400
13.500 7.400 1.700
13.750 7.400 0.200
13.750 7.400 0.500
13.750 7.400 0.900
13.750 7.400 1.400
13.750 7.400 1.700
14.000 7.400 0.200
14.000 7.400 0.500
14.000 7.400 0.900
14.000 7.400 1.400
14.000 7.400 1.700
14.250 7.400 0.200
14.250 7.400 0.500
14.250 7.400 0.900
14.250 7.400 1.400
14.250 7.400 1.700
14.500 7.400 0.200
14.500 7.400 0.500
14.500 7.400 0.900
14.500 7.400 1.400
14.500 7.400 1.700
14.750 7.400 0.200
14.750 7.400 0.500
14.750 7.400 0.900
14.750 7.400 1.400
14.750 7.400 1.700
15.000 7.400 0.200
15.000 7.400 0.500
15.000 7.400 0.900
15.000 7.400 1.400
15.000 7.400 1.700
15.250 7.400 0.200
15.250 7.400 0.500
15.250 7.400 0.900
15.250 7.400 1.400
15.250 7.400 1.700
12.750 7.650 0.200
12.750 7.650 0.500
12.750 7.650 0.900
12.750 7.650 1.400
12.750 7.650 1.700
12.750 7.900 0.200
12.750 7.900 0.500
12.750 7.900 0.900
12.750 7.900 1.400
12.750 7.900 1.700
12.750 8.150 0.200
12.750 8.150 0.500
12.750 8.150 0.900
12.750 8.150 1.400
12.750 8.150 1.700
12.750 8.400 0.200
12.750 8.400 0.500
12.750 8.400 0.900
12.750 8.400 1.400
12.750 8.400 1.700
-14.000 11.250 0.200
-14.000 11.250 0.500
-14.000 11.250 0.900
-14.000 11.250 1.400
-14.000 11.250 1.700
-13.750 11.250 0.200
-13.750 11.250 0.500
-13.750 11.250 0.900
-13.750 11.250 1.400
-13.750 11.250 1.700
-13.500 11.250 0.200
-13.500 11.250 0.500
-13.500 11.250 0.900
-13.500 11.250 1.400
-13.500 11.250 1.700
-13.250 11.250 0.200
-13.250 11.250 0.500
-13.250 11.250 0.900
-13.250 11.250 1.400
-13.250 11.250 1.700
-13.250 11.500 0.200
-13.250 11.500 0.500
-13.250 11.500 0.900
-13.250 11.500 1.400
-13.250 11.500 1.700
-13.250 11.750 0.200
-13.250 11.750 0.500
-13.250 11.750 0.900
-13.250 11.750 1.400
-13.250 11.750 1.700
-13.250 12.000 0.200
-13.250 12.000 0.500
-13.250 12.000 0.900
-13.250 12.000 1.400
-13.250 12.000 1.700
-0.300 -17.800 0.200
-0.300 -17.800 0.400
-0.300 -17.900 0.200
0.300 -17.900 0.200
-0.300 -17.900 0.400
0.300 -17.900 0.400
0.300 -17.800 0.200
0.300 -17.800 0.400
-0.200 -17.800 0.200
-0.200 -17.800 0.400
-0.100 -17.800 0.200
-0.100 -17.800 0.400
0.000 -17.800 0.200
0.000 -17.800 0.400
0.100 -17.800 0.200
0.100 -17.800 0.400
0.200 -17.800 0.200
0.200 -17.800 0.400
-12.750 -7.250 0.200
-12.750 -7.250 0.500
-12.750 -7.250 0.900
-12.750 -7.250 1.400
-12.750 -7.250 1.700
-12.250 -7.250 0.200
-12.250 -7.250 0.500
-12.250 -7.250 0.900
-12.250 -7.250 1.400
-12.250 -7.250 1.700
-11.750 -7.250 0.200
-11.750 -7.250 0.500
-11.750 -7.250 0.900
-11.750 -7.250 1.400
-11.750 -7.250 1.700
-11.250 -7.250 0.200
-11.250 -7.250 0.500
-11.250 -7.250 0.900
-11.250 -7.250 1.400
-11.250 -7.250 1.700
9.350 -11.100 0.200
9.350 -11.100 0.500
9.350 -11.100 0.900
9.350 -11.100 1.400
9.350 -11.100 1.700
9.850 -11.100 0.200
9.850 -11.100 0.500
9.850 -11.100 0.900
9.850 -11.100 1.400
9.850 -11.100 1.700
10.350 -11.100 0.200
10.350 -11.100 0.500
10.350 -11.100 0.900
10.350 -11.100 1.400
10.350 -11.100 1.700
10.850 -11.100 0.200
10.850 -11.100 0.500
10.850 -11.100 0.900
10.850 -11.100 1.400
10.850 -11.100 1.700
12.750 7.400 0.200
12.750 8.600 0.200
12.750 7.400 0.500
12.750 8.600 0.500
12.750 7.400 0.900
12.750 8.600 0.900
12.750 7.400 1.400
12.750 8.600 1.400
12.750 7.400 1.700
12.750 8.600 1.700
13.250 7.400 0.200
13.250 7.400 0.500
13.250 7.400 0.900
13.250 7.400 1.400
13.250 7.400 1.700
13.750 7.400 0.200
13.750 7.400 0.500
13.750 7.400 0.900
13.750 7.400 1.400
13.750 7.400 1.700
14.250 7.400 0.200
14.250 7.400 0.500
14.250 7.400 0.900
14.250 7.400 1.400
14.250 7.400 1.700
14.750 7.400 0.200
14.750 7.400 0.500
14.750 7.400 0.900
14.750 7.400 1.400
14.750 7.400 1.700
15.250 7.400 0.200
15.250 7.400 0.500
15.250 7.400 0.900
15.250 7.400 1.400
15.250 7.400 1.700
12.750 7.650 0.200
12.750 7.650 0.500
12.750 7.650 0.900
12.750 7.650 1.400
12.750 7.650 1.700
12.750 7.900 0.200
12.750 7.900 0.500
12.750 7.900 0.900
12.750 7.900 1.400
12.750 7.900 1.700
12.750 8.150 0.200
12.750 8.150 0.500
12.750 8.150 0.900
12.750 8.150 1.400
12.750 8.150 1.700
12.750 8.400 0.200
12.750 8.400 0.500
12.750 8.400 0.900
12.750 8.400 1.400
12.750 8.400 1.700
-13.750 11.250 0.200
-13.750 11.250 0.500
-13.750 11.250 0.900
-13.750 11.250 1.400
-13.750 11.250 1.700
-13.250 11.250 0.200
-13.250 11.250 0.500
-13.250 11.250 0.900
-13.250 11.250 1.400
-13.250 11.250 1.700
-13.250 11.500 0.200
-13.250 11.500 0.500
-13.250 11.500 0.900
-13.250 11.500 1.400
-13.250 11.500 1.700
-13.250 11.750 0.200
-13.250 11.750 0.500
-13.250 11.750 0.900
-13.250 11.750 1.400
-13.250 11.750 1.700
-13.250 12.000 0.200
-13.250 12.000 0.500
-13.250 12.000 0.900
-13.250 12.000 1.400
-13.250 12.000 1.700
-11.250 -8.750 0.200
-11.250 -8.750 0.500
-11.250 -8.750 0.900
-11.250 -8.750 1.400
-11.250 -8.750 1.700
-11.250 -8.750 0.200
-11.250 -8.750 0.500
-11.250 -8.750 0.900
-11.250 -8.750 1.400
-11.250 -8.750 1.700
20.000 -0.600 0.200
20.000 -0.600 1.200
20.000 -0.600 2.000
20.000 -0.400 0.200
20.000 -0.400 1.200
20.000 -0.400 2.000
20.000 -0.200 0.200
20.000 -0.200 1.200
20.000 -0.200 2.000
20.000 -0.000 0.200
20.000 -0.000 1.200
20.000 -0.000 2.000
20.000 0.200 0.200
20.000 0.200 1.200
20.000 0.200 2.000
20.000 0.400 0.200
20.000 0.400 1.200
20.000 0.400 2.000
20.000 0.600 0.200
20.000 0.600 1.200
20.000 0.600 2.000
20.000 -1.600 0.200
20.000 -1.600 1.200
20.000 -1.600 2.000
20.000 -1.400 0.200
20.000 -1.400 1.200
20.000 -1.400 2.000
20.000 -1.200 0.200
20.000 -1.200 1.200
20.000 -1.200 2.000
20.000 -1.000 0.200
20.000 -1.000 1.200
20.000 -1.000 2.000
20.000 -0.800 0.200
20.000 -0.800 1.200
20.000 -0.800 2.000
20.000 0.800 0.200
20.000 0.800 1.200
20.000 0.800 2.000
20.000 1.000 0.200
20.000 1.000 1.200
20.000 1.000 2.000
20.000 1.200 0.200
20.000 1.200 1.200
20.000 1.200 2.000
20.000 1.400 0.200
20.000 1.400 1.200
20.000 1.400 2.000
20.000 1.600 0.200
20.000 1.600 1.200
20.000 1.600 2.000
20.000 -2.200 0.200
20.000 -2.200 1.200
20.000 -2.200 2.000
20.000 -2.000 0.200
20.000 -2.000 1.200
20.000 -2.000 2.000
20.000 -1.800 0.200
20.000 -1.800 1.200
20.000 -1.800 2.000
20.000 1.800 0.200
20.000 1.800 1.200
20.000 1.800 2.000
20.000 2.000 0.200
20.000 2.000 1.200
20.000 2.000 2.000
20.000 2.200 0.200
20.000 2.200 1.200
20.000 2.200 2.000
20.000 -2.600 0.200
20.000 -2.600 1.200
20.000 -2.600 2.000
20.000 -2.400 0.200
20.000 -2.400 1.200
20.000 -2.400 2.000
20.000 2.400 0.200
20.000 2.400 1.200
20.000 2.400 2.000
20.000 2.600 0.200
20.000 2.600 1.200
20.000 2.600 2.000
20.000 -2.800 0.200
20.000 -2.800 1.200
20.000 -2.800 2.000
20.000 2.800 0.200
20.000 2.800 1.200
20.000 2.800 2.000
20.000 3.000 0.200
20.000 3.000 1.200
20.000 3.000 2.000
20.000 3.200 0.200
20.000 3.200 1.200
20.000 3.200 2.000
20.000 -3.600 0.200
20.000 -3.600 1.200
20.000 -3.600 2.000
20.000 -3.400 0.200
20.000 -3.400 1.200
20.000 -3.400 2.000
20.000 3.400 0.200
20.000 3.400 1.200
20.000 3.400 2.000
20.000 3.600 0.200
20.000 3.600 1.200
20.000 3.600 2.000
20.000 -3.800 0.200
20.000 -3.800 1.200
20.000 -3.800 2.000
20.000 3.800 0.200
20.000 3.800 1.200
20.000 3.800 2.000
20.000 -4.000 0.200
20.000 -4.000 1.200
20.000 -4.000 2.000
20.000 4.000 0.200
20.000 4.000 1.200
20.000 4.000 2.000
20.000 -4.400 0.200
20.000 -4.400 1.200
20.000 -4.400 2.000
20.000 -4.200 0.200
20.000 -4.200 1.200
20.000 -4.200 2.000
20.000 4.200 0.200
20.000 4.200 1.200
20.000 4.200 2.000
20.000 4.400 0.200
20.000 4.400 1.200
20.000 4.400 2.000
20.000 -4.600 0.200
20.000 -4.600 1.200
20.000 -4.600 2.000
20.000 4.600 0.200
20.000 4.600 1.200
20.000 4.600 2.000
20.000 -4.800 0.200
20.000 -4.800 1.200
20.000 -4.800 2.000
20.000 4.800 0.200
20.000 4.800 1.200
20.000 4.800 2.000
20.000 -5.000 0.200
20.000 -5.000 1.200
20.000 -5.000 2.000
20.000 5.000 0.200
20.000 5.000 1.200
20.000 5.000 2.000
20.000 -5.200 0.200
20.000 -5.200 1.200
20.000 -5.200 2.000
20.000 5.200 0.200
20.000 5.200 1.200
20.000 5.200 2.000
20.000 -5.400 0.200
20.000 -5.400 1.200
20.000 -5.400 2.000
20.000 5.400 0.200
20.000 5.400 1.200
20.000 5.400 2.000
20.000 -5.600 0.200
20.000 -5.600 1.200
20.000 -5.600 2.000
20.000 5.600 0.200
20.000 5.600 1.200
20.000 5.600 2.000
20.000 -5.800 0.200
20.000 -5.800 1.200
20.000 -5.800 2.000
20.000 5.800 0.200
20.000 5.800 1.200
20.000 5.800 2.000
20.000 -6.000 0.200
20.000 -6.000 1.200
20.000 -6.000 2.000
20.000 6.000 0.200
20.000 6.000 1.200
20.000 6.000 2.000
20.000 -6.200 0.200
20.000 -6.200 1.200
20.000 -6.200 2.000
20.000 6.200 0.200
20.000 6.200 1.200
20.000 6.200 2.000
20.000 -6.400 0.200
20.000 -6.400 1.200
20.000 -6.400 2.000
20.000 6.400 0.200
20.000 6.400 1.200
20.000 6.400 2.000
20.000 -6.600 0.200
20.000 -6.600 1.200
20.000 -6.600 2.000
20.000 6.600 0.200
20.000 6.600 1.200
20.000 6.600 2.000
20.000 -6.800 0.200
20.000 -6.800 1.200
20.000 -6.800 2.000
20.000 6.800 0.200
20.000 6.800 1.200
20.000 6.800 2.000
20.000 -7.000 0.200
20.000 -7.000 1.200
20.000 -7.000 2.000
20.000 7.000 0.200
20.000 7.000 1.200
20.000 7.000 2.000
20.000 -7.200 0.200
20.000 -7.200 1.200
20.000 -7.200 2.000
20.000 7.200 0.200
20.000 7.200 1.200
20.000 7.200 2.000
20.000 -7.400 0.200
20.000 -7.400 1.200
20.000 -7.400 2.000
20.000 7.400 0.200
20.000 7.400 1.200
20.000 7.400 2.000
20.000 -7.600 0.200
20.000 -7.600 1.200
20.000 -7.600 2.000
20.000 7.600 0.200
20.000 7.600 1.200
20.000 7.600 2.000
20.000 -7.800 0.200
20.000 -7.800 1.200
20.000 -7.800 2.000
20.000 7.800 0.200
20.000 7.800 1.200
20.000 7.800 2.000
20.000 -8.000 0.200
20.000 -8.000 1.200
20.000 -8.000 2.000
20.000 8.000 0.200
20.000 8.000 1.200
20.000 8.000 2.000
20.000 -8.200 0.200
20.000 -8.200 1.200
20.000 -8.200 2.000
20.000 -3.000 0.200
20.000 -3.000 1.200
20.000 -3.000 2.000
20.000 8.200 0.200
20.000 8.200 1.200
20.000 8.200 2.000
20.000 -8.400 0.200
20.000 -8.400 1.200
20.000 -8.400 2.000
20.000 8.400 0.200
20.000 8.400 1.200
20.000 8.400 2.000
20.000 -8.600 0.200
20.000 -8.600 1.200
20.000 -8.600 2.000
20.000 8.600 0.200
20.000 8.600 1.200
20.000 8.600 2.000
20.000 -8.800 0.200
20.000 -8.800 1.200
20.000 -8.800 2.000
20.000 8.800 0.200
20.000 8.800 1.200
20.000 8.800 2.000
20.000 -9.000 0.200
20.000 -9.000 1.200
20.000 -9.000 2.000
20.000 9.000 0.200
20.000 9.000 1.200
20.000 9.000 2.000
20.000 -9.200 0.200
20.000 -9.200 1.200
20.000 -9.200 2.000
20.000 9.200 0.200
20.000 9.200 1.200
20.000 9.200 2.000
20.000 -9.400 0.200
20.000 -9.400 1.200
20.000 -9.400 2.000
20.000 9.400 0.200
20.000 9.400 1.200
20.000 9.400 2.000
20.000 -9.600 0.200
20.000 -9.600 1.200
20.000 -9.600 2.000
20.000 9.600 0.200
20.000 9.600 1.200
20.000 9.600 2.000
20.000 -9.800 0.200
20.000 -9.800 1.200
20.000 -9.800 2.000
20.000 9.800 0.200
20.000 9.800 1.200
20.000 9.800 2.000
20.000 -10.000 0.200
20.000 -10.000 1.200
20.000 -10.000 2.000
20.000 10.000 0.200
20.000 10.000 1.200
20.000 10.000 2.000
20.000 -10.200 0.200
20.000 -10.200 1.200
20.000 -10.200 2.000
20.000 10.200 0.200
20.000 10.200 1.200
20.000 10.200 2.000
20.000 -10.400 0.200
20.000 -10.400 1.200
20.000 -10.400 2.000
20.000 10.400 0.200
20.000 10.400 1.200
20.000 10.400 2.000
20.000 -10.600 0.200
20.000 -10.600 1.200
20.000 -10.600 2.000
20.000 -3.200 0.200
20.000 -3.200 1.200
20.000 -3.200 2.000
20.000 10.600 0.200
20.000 10.600 1.200
20.000 10.600 2.000
20.000 -10.800 0.200
20.000 -10.800 1.200
20.000 -10.800 2.000
20.000 10.800 0.200
20.000 10.800 1.200
20.000 10.800 2.000
20.000 -11.000 0.200
20.000 -11.000 1.200
20.000 -11.000 2.000
20.000 11.000 0.200
20.000 11.000 1.200
20.000 11.000 2.000
20.000 -11.200 0.200
20.000 -11.200 1.200
20.000 -11.200 2.000
20.000 11.200 0.200
20.000 11.200 1.200
20.000 11.200 2.000
20.000 -11.400 0.200
20.000 -11.400 1.200
20.000 -11.400 2.000
20.000 -11.600 0.200
20.000 -11.600 1.200
20.000 -11.600 2.000
20.000 -11.800 0.200
20.000 -11.800 1.200
20.000 -11.800 2.000
20.000 11.400 0.200
20.000 11.400 1.200
20.000 11.400 2.000
20.000 -12.000 0.200
20.000 -12.000 1.200
20.000 -12.000 2.000
20.000 -12.200 0.200
20.000 -12.200 1.200
20.000 -12.200 2.000
20.000 11.600 0.200
20.000 11.600 1.200
20.000 11.600 2.000
20.000 -12.400 0.200
20.000 -12.400 1.200
20.000 -12.400 2.000
20.000 -12.600 0.200
20.000 -12.600 1.200
20.000 -12.600 2.000
20.000 11.800 0.200
20.000 11.800 1.200
20.000 11.800 2.000
20.000 -12.800 0.200
20.000 -12.800 1.200
20.000 -12.800 2.000
16.008 -15.880 0.200
16.008 -15.880 0.800
16.008 -15.880 1.400
16.008 -15.880 2.000
15.904 -15.928 0.200
15.904 -15.928 0.800
15.904 -15.928 1.400
15.904 -15.928 2.000
15.922 15.909 0.200
15.922 15.909 0.800
15.922 15.909 1.400
15.922 15.909 2.000
15.975 15.883 0.200
15.975 15.883 0.800
15.975 15.883 1.400
15.975 15.883 2.000
20.000 -13.000 0.200
20.000 -13.000 1.200
20.000 -13.000 2.000
15.888 15.958 0.200
15.888 15.958 0.800
15.888 15.958 1.400
15.888 15.958 2.000
20.000 12.000 0.200
20.000 12.000 1.200
20.000 12.000 2.000
16.065 -15.899 0.200
16.065 -15.899 0.800
16.065 -15.899 1.400
16.065 -15.899 2.000
15.881 -15.983 0.200
15.881 -15.983 0.800
15.881 -15.983 1.400
15.881 -15.983 2.000
16.085 15.915 0.200
16.085 15.915 0.800
16.085 15.915 1.400
16.085 15.915 2.000
20.000 -13.200 0.200
20.000 -13.200 1.200
20.000 -13.200 2.000
15.904 16.072 0.200
15.904 16.072 0.800
15.904 16.072 1.400
15.904 16.072 2.000
16.115 15.966 0.200
16.115 15.966 0.800
16.115 15.966 1.400
16.115 15.966 2.000
16.120 -16.000 0.200
16.120 -16.000 0.800
16.120 -16.000 1.400
16.120 -16.000 2.000
15.922 -16.091 0.200
15.922 -16.091 0.800
15.922 -16.091 1.400
15.922 -16.091 2.000
20.000 12.200 0.200
20.000 12.200 1.200
20.000 12.200 2.000
15.950 16.109 0.200
15.950 16.109 0.800
15.950 16.109 1.400
15.950 16.109 2.000
20.000 -13.400 0.200
20.000 -13.400 1.200
20.000 -13.400 2.000
15.975 -16.117 0.200
15.975 -16.117 0.800
15.975 -16.117 1.400
15.975 -16.117 2.000
16.085 -16.085 0.200
16.085 -16.085 0.800
16.085 -16.085 1.400
16.085 -16.085 2.000
16.105 16.058 0.200
16.105 16.058 0.800
16.105 16.058 1.400
16.105 16.058 2.000
20.000 -13.600 0.200
20.000 -13.600 1.200
20.000 -13.600 2.000
20.000 12.400 0.200
20.000 12.400 1.200
20.000 12.400 2.000
20.000 -13.800 0.200
20.000 -13.800 1.200
20.000 -13.800 2.000
20.000 12.600 0.200
20.000 12.600 1.200
20.000 12.600 2.000
20.000 -14.000 0.200
20.000 -14.000 1.200
20.000 -14.000 2.000
20.000 12.800 0.200
20.000 12.800 1.200
20.000 12.800 2.000
20.000 -14.200 0.200
20.000 -14.200 1.200
20.000 -14.200 2.000
20.000 13.000 0.200
20.000 13.000 1.200
20.000 13.000 2.000
20.000 -14.400 0.200
20.000 -14.400 1.200
20.000 -14.400 2.000
20.000 13.200 0.200
20.000 13.200 1.200
20.000 13.200 2.000
20.000 13.400 0.200
20.000 13.400 1.200
20.000 13.400 2.000
20.000 -14.600 0.200
20.000 -14.600 1.200
20.000 -14.600 2.000
20.000 13.600 0.200
20.000 13.600 1.200
20.000 13.600 2.000
20.000 -14.800 0.200
20.000 -14.800 1.200
20.000 -14.800 2.000
20.000 13.800 0.200
20.000 13.800 1.200
20.000 13.800 2.000
20.000 14.000 0.200
20.000 14.000 1.200
20.000 14.000 2.000
20.000 -15.000 0.200
20.000 -15.000 1.200
20.000 -15.000 2.000
20.000 14.200 0.200
20.000 14.200 1.200
20.000 14.200 2.000
20.000 14.400 0.200
20.000 14.400 1.200
20.000 14.400 2.000
20.000 -15.200 0.200
20.000 -15.200 1.200
20.000 -15.200 2.000
20.000 14.600 0.200
20.000 14.600 1.200
20.000 14.600 2.000
20.000 14.800 0.200
20.000 14.800 1.200
20.000 14.800 2.000
20.000 15.000 0.200
20.000 15.000 1.200
20.000 15.000 2.000
20.000 -15.400 0.200
20.000 -15.400 1.200
20.000 -15.400 2.000
20.000 15.200 0.200
20.000 15.200 1.200
20.000 15.200 2.000
20.000 15.400 0.200
20.000 15.400 1.200
20.000 15.400 2.000
10.900 -12.900 0.200
10.900 -12.900 0.500
10.900 -12.900 0.900
10.900 -12.900 1.400
10.900 -12.900 1.700
10.900 -12.650 0.200
10.900 -12.650 0.500
10.900 -12.650 0.900
10.900 -12.650 1.400
10.900 -12.650 1.700
10.900 -12.400 0.200
10.900 -12.400 0.500
10.900 -12.400 0.900
10.900 -12.400 1.400
10.900 -12.400 1.700
10.900 -12.150 0.200
10.900 -12.150 0.500
10.900 -12.150 0.900
10.900 -12.150 1.400
10.900 -12.150 1.700
10.900 -11.900 0.200
10.900 -11.900 0.500
10.900 -11.900 0.900
10.900 -11.900 1.400
10.900 -11.900 1.700
10.900 -11.650 0.200
10.900 -11.650 0.500
10.900 -11.650 0.900
10.900 -11.650 1.400
10.900 -11.650 1.700
10.900 -11.400 0.200
10.900 -11.400 0.500
10.900 -11.400 0.900
10.900 -11.400 1.400
10.900 -11.400 1.700
20.000 -15.600 0.200
20.000 -15.600 1.200
20.000 -15.600 2.000
20.000 15.600 0.200
20.000 15.600 1.200
20.000 15.600 2.000
20.000 -15.800 0.200
20.000 -15.800 1.200
20.000 -15.800 2.000
20.000 15.800 0.200
20.000 15.800 1.200
20.000 15.800 2.000
20.000 -16.000 0.200
20.000 -16.000 1.200
20.000 -16.000 2.000
20.000 16.000 0.200
20.000 16.000 1.200
20.000 16.000 2.000
20.000 -16.200 0.200
20.000 -16.200 1.200
20.000 -16.200 2.000
20.000 16.200 0.200
20.000 16.200 1.200
20.000 16.200 2.000
20.000 -16.400 0.200
20.000 -16.400 1.200
20.000 -16.400 2.000
20.000 16.400 0.200
20.000 16.400 1.200
20.000 16.400 2.000
20.000 16.600 0.200
20.000 16.600 1.200
20.000 16.600 2.000
20.000 -16.600 0.200
20.000 -16.600 1.200
20.000 -16.600 2.000
10.850 -12.900 0.200
10.850 -12.900 0.500
10.850 -12.900 0.900
10.850 -12.900 1.400
10.850 -12.900 1.700
20.000 -16.800 0.200
20.000 -16.800 1.200
20.000 -16.800 2.000
20.000 16.800 0.200
20.000 16.800 1.200
20.000 16.800 2.000
20.000 -17.000 0.200
20.000 -17.000 1.200
20.000 -17.000 2.000
10.900 -12.650 0.200
10.900 -12.650 0.500
10.900 -12.650 0.900
10.900 -12.650 1.400
10.900 -12.650 1.700
10.900 -12.150 0.200
10.900 -12.150 0.500
10.900 -12.150 0.900
10.900 -12.150 1.400
10.900 -12.150 1.700
10.900 -11.650 0.200
10.900 -11.650 0.500
10.900 -11.650 0.900
10.900 -11.650 1.400
10.900 -11.650 1.700
9.100 -11.150 0.200
10.900 -11.150 0.200
9.100 -11.150 0.500
10.900 -11.150 0.500
9.100 -11.150 0.900
10.900 -11.150 0.900
9.100 -11.150 1.400
10.900 -11.150 1.400
9.100 -11.150 1.700
10.900 -11.150 1.700
20.000 -17.200 0.200
20.000 -17.200 1.200
20.000 -17.200 2.000
20.000 -17.400 0.200
20.000 -17.400 1.200
20.000 -17.400 2.000
20.000 -17.600 0.200
20.000 -17.600 1.200
20.000 -17.600 2.000
20.000 -17.800 0.200
20.000 -17.800 1.200
20.000 -17.800 2.000
20.000 -18.000 0.200
20.000 -18.000 1.200
20.000 -18.000 2.000
20.000 -18.400 0.200
20.000 -18.400 1.200
20.000 -18.400 2.000
20.000 -18.200 0.200
20.000 -18.200 1.200
20.000 -18.200 2.000
20.000 -18.600 0.200
20.000 -18.600 1.200
20.000 -18.600 2.000
20.000 -18.800 0.200
20.000 -18.800 1.200
20.000 -18.800 2.000
12.600 -20.000 0.200
12.600 -20.000 1.200
12.600 -20.000 2.000
12.800 -20.000 0.200
12.800 -20.000 1.200
12.800 -20.000 2.000
13.000 -20.000 0.200
13.000 -20.000 1.200
13.000 -20.000 2.000
13.200 -20.000 0.200
13.200 -20.000 1.200
13.200 -20.000 2.000
13.400 -20.000 0.200
13.400 -20.000 1.200
13.400 -20.000 2.000
13.600 -20.000 0.200
13.600 -20.000 1.200
13.600 -20.000 2.000
13.800 -20.000 0.200
13.800 -20.000 1.200
13.800 -20.000 2.000
14.000 -20.000 0.200
14.000 -20.000 1.200
14.000 -20.000 2.000
14.200 -20.000 0.200
14.200 -20.000 1.200
14.200 -20.000 2.000
14.400 -20.000 0.200
14.400 -20.000 1.200
14.400 -20.000 2.000
14.600 -20.000 0.200
14.600 -20.000 1.200
14.600 -20.000 2.000
14.800 -20.000 0.200
14.800 -20.000 1.200
14.800 -20.000 2.000
15.000 -20.000 0.200
15.000 -20.000 1.200
15.000 -20.000 2.000
12.000 -20.000 0.200
12.000 -20.000 1.200
12.000 -20.000 2.000
12.200 -20.000 0.200
12.200 -20.000 1.200
12.200 -20.000 2.000
12.400 -20.000 0.200
12.400 -20.000 1.200
12.400 -20.000 2.000
15.200 -20.000 0.200
15.200 -20.000 1.200
15.200 -20.000 2.000
15.400 -20.000 0.200
15.400 -20.000 1.200
15.400 -20.000 2.000
15.600 -20.000 0.200
15.600 -20.000 1.200
15.600 -20.000 2.000
15.800 -20.000 0.200
15.800 -20.000 1.200
15.800 -20.000 2.000
20.000 -19.000 0.200
20.000 -19.000 1.200
20.000 -19.000 2.000
11.400 -20.000 0.200
11.400 -20.000 1.200
11.400 -20.000 2.000
11.600 -20.000 0.200
11.600 -20.000 1.200
11.600 -20.000 2.000
11.800 -20.000 0.200
11.800 -20.000 1.200
11.800 -20.000 2.000
16.000 -20.000 0.200
16.000 -20.000 1.200
16.000 -20.000 2.000
16.200 -20.000 0.200
16.200 -20.000 1.200
16.200 -20.000 2.000
11.000 -20.000 0.200
11.000 -20.000 1.200
11.000 -20.000 2.000
11.200 -20.000 0.200
11.200 -20.000 1.200
11.200 -20.000 2.000
16.400 -20.000 0.200
16.400 -20.000 1.200
16.400 -20.000 2.000
10.600 -20.000 0.200
10.600 -20.000 1.200
10.600 -20.000 2.000
10.800 -20.000 0.200
10.800 -20.000 1.200
10.800 -20.000 2.000
16.800 -20.000 0.200
16.800 -20.000 1.200
16.800 -20.000 2.000
17.000 -20.000 0.200
17.000 -20.000 1.200
17.000 -20.000 2.000
10.400 -20.000 0.200
10.400 -20.000 1.200
10.400 -20.000 2.000
17.200 -20.000 0.200
17.200 -20.000 1.200
17.200 -20.000 2.000
20.000 -19.200 0.200
20.000 -19.200 1.200
20.000 -19.200 2.000
10.000 -20.000 0.200
10.000 -20.000 1.200
10.000 -20.000 2.000
10.200 -20.000 0.200
10.200 -20.000 1.200
10.200 -20.000 2.000
17.400 -20.000 0.200
17.400 -20.000 1.200
17.400 -20.000 2.000
17.600 -20.000 0.200
17.600 -20.000 1.200
17.600 -20.000 2.000
9.800 -20.000 0.200
9.800 -20.000 1.200
9.800 -20.000 2.000
17.800 -20.000 0.200
17.800 -20.000 1.200
17.800 -20.000 2.000
9.600 -20.000 0.200
9.600 -20.000 1.200
9.600 -20.000 2.000
18.000 -20.000 0.200
18.000 -20.000 1.200
18.000 -20.000 2.000
20.000 -19.400 0.200
20.000 -19.400 1.200
20.000 -19.400 2.000
9.400 -20.000 0.200
9.400 -20.000 1.200
9.400 -20.000 2.000
18.200 -20.000 0.200
18.200 -20.000 1.200
18.200 -20.000 2.000
18.400 -20.000 0.200
18.400 -20.000 1.200
18.400 -20.000 2.000
9.200 -20.000 0.200
9.200 -20.000 1.200
9.200 -20.000 2.000
18.600 -20.000 0.200
18.600 -20.000 1.200
18.600 -20.000 2.000
9.000 -20.000 0.200
9.000 -20.000 1.200
9.000 -20.000 2.000
18.800 -20.000 0.200
18.800 -20.000 1.200
18.800 -20.000 2.000
20.000 -19.600 0.200
20.000 -19.600 1.200
20.000 -19.600 2.000
19.000 -20.000 0.200
19.000 -20.000 1.200
19.000 -20.000 2.000
19.200 -20.000 0.200
19.200 -20.000 1.200
19.200 -20.000 2.000
19.400 -20.000 0.200
19.400 -20.000 1.200
19.400 -20.000 2.000
20.000 -19.800 0.200
20.000 -19.800 1.200
20.000 -19.800 2.000
19.600 -20.000 0.200
19.600 -20.000 1.200
19.600 -20.000 2.000
8.800 -20.000 0.200
8.800 -20.000 1.200
8.800 -20.000 2.000
19.800 -20.000 0.200
19.800 -20.000 1.200
19.800 -20.000 2.000
20.000 -20.000 0.200
20.000 -20.000 1.200
20.000 -20.000 2.000
8.600 -20.000 0.200
8.600 -20.000 1.200
8.600 -20.000 2.000
8.400 -20.000 0.200
8.400 -20.000 1.200
8.400 -20.000 2.000
16.600 -20.000 0.200
16.600 -20.000 1.200
16.600 -20.000 2.000
12.750 7.650 0.200
15.250 7.650 0.200
12.750 7.650 0.500
15.250 7.650 0.500
12.750 7.650 0.900
15.250 7.650 0.900
12.750 7.650 1.400
15.250 7.650 1.400
12.750 7.650 1.700
15.250 7.650 1.700
15.250 7.650 0.200
15.250 7.650 0.500
15.250 7.650 0.900
15.250 7.650 1.400
15.250 7.650 1.700
8.200 -20.000 0.200
8.200 -20.000 1.200
8.200 -20.000 2.000
8.000 -20.000 0.200
8.000 -20.000 1.200
8.000 -20.000 2.000
12.750 7.650 0.200
15.250 7.650 0.200
12.750 7.650 0.500
15.250 7.650 0.500
12.750 7.650 0.900
15.250 7.650 0.900
12.750 7.650 1.400
15.250 7.650 1.400
12.750 7.650 1.700
15.250 7.650 1.700
0.300 -18.000 0.200
0.300 -18.000 0.400
0.300 -18.100 0.200
0.300 -18.100 0.400
0.300 -18.200 0.200
0.300 -18.200 0.400
0.200 -18.200 0.200
0.200 -18.200 0.400
0.100 -18.200 0.200
0.100 -18.200 0.400
1.800 -20.000 0.200
1.800 -20.000 1.200
1.800 -20.000 2.000
2.000 -20.000 0.200
2.000 -20.000 1.200
2.000 -20.000 2.000
-0.300 -18.000 0.200
-0.300 -18.000 0.400
2.200 -20.000 0.200
2.200 -20.000 1.200
2.200 -20.000 2.000
1.600 -20.000 0.200
1.600 -20.000 1.200
1.600 -20.000 2.000
2.400 -20.000 0.200
2.400 -20.000 1.200
2.400 -20.000 2.000
2.600 -20.000 0.200
2.600 -20.000 1.200
2.600 -20.000 2.000
1.400 -20.000 0.200
1.400 -20.000 1.200
1.400 -20.000 2.000
2.800 -20.000 0.200
2.800 -20.000 1.200
2.800 -20.000 2.000
1.200 -20.000 0.200
1.200 -20.000 1.200
1.200 -20.000 2.000
3.000 -20.000 0.200
3.000 -20.000 1.200
3.000 -20.000 2.000
3.200 -20.000 0.200
3.200 -20.000 1.200
3.200 -20.000 2.000
1.000 -20.000 0.200
1.000 -20.000 1.200
1.000 -20.000 2.000
3.400 -20.000 0.200
3.400 -20.000 1.200
3.400 -20.000 2.000
3.600 -20.000 0.200
3.600 -20.000 1.200
3.600 -20.000 2.000
0.800 -20.000 0.200
0.800 -20.000 1.200
0.800 -20.000 2.000
3.800 -20.000 0.200
3.800 -20.000 1.200
3.800 -20.000 2.000
4.000 -20.000 0.200
4.000 -20.000 1.200
4.000 -20.000 2.000
0.600 -20.000 0.200
0.600 -20.000 1.200
0.600 -20.000 2.000
4.200 -20.000 0.200
4.200 -20.000 1.200
4.200 -20.000 2.000
0.400 -20.000 0.200
0.400 -20.000 1.200
0.400 -20.000 2.000
4.400 -20.000 0.200
4.400 -20.000 1.200
4.400 -20.000 2.000
4.600 -20.000 0.200
4.600 -20.000 1.200
4.600 -20.000 2.000
0.200 -20.000 0.200
0.200 -20.000 1.200
0.200 -20.000 2.000
4.800 -20.000 0.200
4.800 -20.000 1.200
4.800 -20.000 2.000
5.000 -20.000 0.200
5.000 -20.000 1.200
5.000 -20.000 2.000
0.000 -20.000 0.200
0.000 -20.000 1.200
0.000 -20.000 2.000
5.200 -20.000 0.200
5.200 -20.000 1.200
5.200 -20.000 2.000
-0.200 -20.000 0.200
-0.200 -20.000 1.200
-0.200 -20.000 2.000
5.400 -20.000 0.200
5.400 -20.000 1.200
5.400 -20.000 2.000
5.600 -20.000 0.200
5.600 -20.000 1.200
5.600 -20.000 2.000
5.800 -20.000 0.200
5.800 -20.000 1.200
5.800 -20.000 2.000
-0.400 -20.000 0.200
-0.400 -20.000 1.200
-0.400 -20.000 2.000
6.000 -20.000 0.200
6.000 -20.000 1.200
6.000 -20.000 2.000
-0.600 -20.000 0.200
-0.600 -20.000 1.200
-0.600 -20.000 2.000
6.200 -20.000 0.200
6.200 -20.000 1.200
6.200 -20.000 2.000
6.400 -20.000 0.200
6.400 -20.000 1.200
6.400 -20.000 2.000
-0.800 -20.000 0.200
-0.800 -20.000 1.200
-0.800 -20.000 2.000
6.600 -20.000 0.200
6.600 -20.000 1.200
6.600 -20.000 2.000
6.800 -20.000 0.200
6.800 -20.000 1.200
6.800 -20.000 2.000
-1.000 -20.000 0.200
-1.000 -20.000 1.200
-1.000 -20.000 2.000
7.000 -20.000 0.200
7.000 -20.000 1.200
7.000 -20.000 2.000
7.200 -20.000 0.200
7.200 -20.000 1.200
7.200 -20.000 2.000
7.400 -20.000 0.200
7.400 -20.000 1.200
7.400 -20.000 2.000
7.600 -20.000 0.200
7.600 -20.000 1.200
7.600 -20.000 2.000
7.800 -20.000 0.200
7.800 -20.000 1.200
7.800 -20.000 2.000
-2.200 -20.000 0.200
-2.200 -20.000 1.200
-2.200 -20.000 2.000
9.100 -12.650 0.200
9.100 -12.650 0.500
9.100 -12.650 0.900
9.100 -12.650 1.400
9.100 -12.650 1.700
9.100 -12.150 0.200
9.100 -12.150 0.500
9.100 -12.150 0.900
9.100 -12.150 1.400
9.100 -12.150 1.700
9.100 -11.650 0.200
9.100 -11.650 0.500
9.100 -11.650 0.900
9.100 -11.650 1.400
9.100 -11.650 1.700
-2.400 -20.000 0.200
-2.400 -20.000 1.200
-2.400 -20.000 2.000
-2.600 -20.000 0.200
-2.600 -20.000 1.200
-2.600 -20.000 2.000
-2.000 -20.000 0.200
-2.000 -20.000 1.200
-2.000 -20.000 2.000
-2.800 -20.000 0.200
-2.800 -20.000 1.200
-2.800 -20.000 2.000
-3.000 -20.000 0.200
-3.000 -20.000 1.200
-3.000 -20.000 2.000
-3.200 -20.000 0.200
-3.200 -20.000 1.200
-3.200 -20.000 2.000
-3.400 -20.000 0.200
-3.400 -20.000 1.200
-3.400 -20.000 2.000
-3.600 -20.000 0.200
-3.600 -20.000 1.200
-3.600 -20.000 2.000
-1.800 -20.000 0.200
-1.800 -20.000 1.200
-1.800 -20.000 2.000
-3.800 -20.000 0.200
-3.800 -20.000 1.200
-3.800 -20.000 2.000
-4.000 -20.000 0.200
-4.000 -20.000 1.200
-4.000 -20.000 2.000
-4.200 -20.000 0.200
-4.200 -20.000 1.200
-4.200 -20.000 2.000
-4.400 -20.000 0.200
-4.400 -20.000 1.200
-4.400 -20.000 2.000
-4.600 -20.000 0.200
-4.600 -20.000 1.200
-4.600 -20.000 2.000
-1.600 -20.000 0.200
-1.600 -20.000 1.200
-1.600 -20.000 2.000
-4.800 -20.000 0.200
-4.800 -20.000 1.200
-4.800 -20.000 2.000
-5.000 -20.000 0.200
-5.000 -20.000 1.200
-5.000 -20.000 2.000
-5.200 -20.000 0.200
-5.200 -20.000 1.200
-5.200 -20.000 2.000
-5.400 -20.000 0.200
-5.400 -20.000 1.200
-5.400 -20.000 2.000
-5.600 -20.000 0.200
-5.600 -20.000 1.200
-5.600 -20.000 2.000
-1.400 -20.000 0.200
-1.400 -20.000 1.200
-1.400 -20.000 2.000
-5.800 -20.000 0.200
-5.800 -20.000 1.200
-5.800 -20.000 2.000
-6.000 -20.000 0.200
-6.000 -20.000 1.200
-6.000 -20.000 2.000
-6.200 -20.000 0.200
-6.200 -20.000 1.200
-6.200 -20.000 2.000
-6.400 -20.000 0.200
-6.400 -20.000 1.200
-6.400 -20.000 2.000
-6.600 -20.000 0.200
-6.600 -20.000 1.200
-6.600 -20.000 2.000
-6.800 -20.000 0.200
-6.800 -20.000 1.200
-6.800 -20.000 2.000
-1.200 -20.000 0.200
-1.200 -20.000 1.200
-1.200 -20.000 2.000
-7.000 -20.000 0.200
-7.000 -20.000 1.200
-7.000 -20.000 2.000
-7.200 -20.000 0.200
-7.200 -20.000 1.200
-7.200 -20.000 2.000
-7.400 -20.000 0.200
-7.400 -20.000 1.200
-7.400 -20.000 2.000
-7.600 -20.000 0.200
-7.600 -20.000 1.200
-7.600 -20.000 2.000
-7.800 -20.000 0.200
-7.800 -20.000 1.200
-7.800 -20.000 2.000
-8.000 -20.000 0.200
-8.000 -20.000 1.200
-8.000 -20.000 2.000
-8.200 -20.000 0.200
-8.200 -20.000 1.200
-8.200 -20.000 2.000
-8.400 -20.000 0.200
-8.400 -20.000 1.200
-8.400 -20.000 2.000
-8.600 -20.000 0.200
-8.600 -20.000 1.200
-8.600 -20.000 2.000
-8.800 -20.000 0.200
-8.800 -20.000 1.200
-8.800 -20.000 2.000
-9.000 -20.000 0.200
-9.000 -20.000 1.200
-9.000 -20.000 2.000
-9.200 -20.000 0.200
-9.200 -20.000 1.200
-9.200 -20.000 2.000
-9.400 -20.000 0.200
-9.400 -20.000 1.200
-9.400 -20.000 2.000
-9.600 -20.000 0.200
-9.600 -20.000 1.200
-9.600 -20.000 2.000
-9.800 -20.000 0.200
-9.800 -20.000 1.200
-9.800 -20.000 2.000
-10.000 -20.000 0.200
-10.000 -20.000 1.200
-10.000 -20.000 2.000
-10.200 -20.000 0.200
-10.200 -20.000 1.200
-10.200 -20.000 2.000
-10.400 -20.000 0.200
-10.400 -20.000 1.200
-10.400 -20.000 2.000
-10.600 -20.000 0.200
-10.600 -20.000 1.200
-10.600 -20.000 2.000
-10.800 -20.000 0.200
-10.800 -20.000 1.200
-10.800 -20.000 2.000
-11.000 -20.000 0.200
-11.000 -20.000 1.200
-11.000 -20.000 2.000
-11.200 -20.000 0.200
-11.200 -20.000 1.200
-11.200 -20.000 2.000
-11.400 -20.000 0.200
-11.400 -20.000 1.200
-11.400 -20.000 2.000
-11.600 -20.000 0.200
-11.600 -20.000 1.200
-11.600 -20.000 2.000
-0.300 -18.200 0.200
-0.300 -18.200 0.400
-0.300 -18.100 0.200
-0.300 -18.100 0.400
-11.800 -20.000 0.200
-11.800 -20.000 1.200
-11.800 -20.000 2.000
-12.000 -20.000 0.200
-12.000 -20.000 1.200
-12.000 -20.000 2.000
-12.200 -20.000 0.200
-12.200 -20.000 1.200
-12.200 -20.000 2.000
-15.880 -16.000 0.200
-15.880 -16.000 0.800
-15.880 -16.000 1.400
-15.880 -16.000 2.000
-15.895 -15.942 0.200
-15.895 -15.942 0.800
-15.895 -15.942 1.400
-15.895 -15.942 2.000
-15.992 -15.880 0.200
-15.992 -15.880 0.800
-15.992 -15.880 1.400
-15.992 -15.880 2.000
-15.915 -16.085 0.200
-15.915 -16.085 0.800
-15.915 -16.085 1.400
-15.915 -16.085 2.000
-12.400 -20.000 0.200
-12.400 -20.000 1.200
-12.400 -20.000 2.000
-16.096 -15.928 0.200
-16.096 -15.928 0.800
-16.096 -15.928 1.400
-16.096 -15.928 2.000
-15.966 -16.115 0.200
-15.966 -16.115 0.800
-15.966 -16.115 1.400
-15.966 -16.115 2.000
-16.119 -15.983 0.200
-16.119 -15.983 0.800
-16.119 -15.983 1.400
-16.119 -15.983 2.000
-16.078 -16.091 0.200
-16.078 -16.091 0.800
-16.078 -16.091 1.400
-16.078 -16.091 2.000
-12.600 -20.000 0.200
-12.600 -20.000 1.200
-12.600 -20.000 2.000
-13.000 -20.000 0.200
-13.000 -20.000 1.200
-13.000 -20.000 2.000
-13.200 -20.000 0.200
-13.200 -20.000 1.200
-13.200 -20.000 2.000
-12.800 -20.000 0.200
-12.800 -20.000 1.200
-12.800 -20.000 2.000
-13.400 -20.000 0.200
-13.400 -20.000 1.200
-13.400 -20.000 2.000
-20.000 -7.200 0.200
-20.000 -7.200 1.200
-20.000 -7.200 2.000
-20.000 -7.000 0.200
-20.000 -7.000 1.200
-20.000 -7.000 2.000
-20.000 -6.800 0.200
-20.000 -6.800 1.200
-20.000 -6.800 2.000
-20.000 -6.600 0.200
-20.000 -6.600 1.200
-20.000 -6.600 2.000
-20.000 -6.400 0.200
-20.000 -6.400 1.200
-20.000 -6.400 2.000
-20.000 -6.200 0.200
-20.000 -6.200 1.200
-20.000 -6.200 2.000
-20.000 -6.000 0.200
-20.000 -6.000 1.200
-20.000 -6.000 2.000
-20.000 -5.800 0.200
-20.000 -5.800 1.200
-20.000 -5.800 2.000
-20.000 -5.600 0.200
-20.000 -5.600 1.200
-20.000 -5.600 2.000
-20.000 -5.400 0.200
-20.000 -5.400 1.200
-20.000 -5.400 2.000
-20.000 -5.200 0.200
-20.000 -5.200 1.200
-20.000 -5.200 2.000
-20.000 -5.000 0.200
-20.000 -5.000 1.200
-20.000 -5.000 2.000
-20.000 -4.800 0.200
-20.000 -4.800 1.200
-20.000 -4.800 2.000
-20.000 -8.000 0.200
-20.000 -8.000 1.200
-20.000 -8.000 2.000
-20.000 -7.800 0.200
-20.000 -7.800 1.200
-20.000 -7.800 2.000
-20.000 -7.600 0.200
-20.000 -7.600 1.200
-20.000 -7.600 2.000
-20.000 -7.400 0.200
-20.000 -7.400 1.200
-20.000 -7.400 2.000
-20.000 -4.600 0.200
-20.000 -4.600 1.200
-20.000 -4.600 2.000
-20.000 -4.400 0.200
-20.000 -4.400 1.200
-20.000 -4.400 2.000
-20.000 -4.200 0.200
-20.000 -4.200 1.200
-20.000 -4.200 2.000
-20.000 -4.000 0.200
-20.000 -4.000 1.200
-20.000 -4.000 2.000
-20.000 -3.800 0.200
-20.000 -3.800 1.200
-20.000 -3.800 2.000
-20.000 -3.600 0.200
-20.000 -3.600 1.200
-20.000 -3.600 2.000
-20.000 -3.400 0.200
-20.000 -3.400 1.200
-20.000 -3.400 2.000
-20.000 -3.200 0.200
-20.000 -3.200 1.200
-20.000 -3.200 2.000
-13.600 -20.000 0.200
-13.600 -20.000 1.200
-13.600 -20.000 2.000
-20.000 -3.000 0.200
-20.000 -3.000 1.200
-20.000 -3.000 2.000
-20.000 -2.800 0.200
-20.000 -2.800 1.200
-20.000 -2.800 2.000
-20.000 -2.600 0.200
-20.000 -2.600 1.200
-20.000 -2.600 2.000
-20.000 -2.400 0.200
-20.000 -2.400 1.200
-20.000 -2.400 2.000
-13.800 -20.000 0.200
-13.800 -20.000 1.200
-13.800 -20.000 2.000
-20.000 -2.200 0.200
-20.000 -2.200 1.200
-20.000 -2.200 2.000
-20.000 -2.000 0.200
-20.000 -2.000 1.200
-20.000 -2.000 2.000
-20.000 -1.800 0.200
-20.000 -1.800 1.200
-20.000 -1.800 2.000
-20.000 -1.600 0.200
-20.000 -1.600 1.200
-20.000 -1.600 2.000
-14.000 -20.000 0.200
-14.000 -20.000 1.200
-14.000 -20.000 2.000
-20.000 -1.400 0.200
-20.000 -1.400 1.200
-20.000 -1.400 2.000
-20.000 -1.200 0.200
-20.000 -1.200 1.200
-20.000 -1.200 2.000
-20.000 -1.000 0.200
-20.000 -1.000 1.200
-20.000 -1.000 2.000
-20.000 -0.800 0.200
-20.000 -0.800 1.200
-20.000 -0.800 2.000
-14.200 -20.000 0.200
-14.200 -20.000 1.200
-14.200 -20.000 2.000
-20.000 -0.600 0.200
-20.000 -0.600 1.200
-20.000 -0.600 2.000
-20.000 -11.800 0.200
-20.000 -11.800 1.200
-20.000 -11.800 2.000
-20.000 -0.400 0.200
-20.000 -0.400 1.200
-20.000 -0.400 2.000
-20.000 -0.200 0.200
-20.000 -0.200 1.200
-20.000 -0.200 2.000
-14.400 -20.000 0.200
-14.400 -20.000 1.200
-14.400 -20.000 2.000
-20.000 -12.000 0.200
-20.000 -12.000 1.200
-20.000 -12.000 2.000
-20.000 0.000 0.200
-20.000 0.000 1.200
-20.000 0.000 2.000
-20.000 -12.200 0.200
-20.000 -12.200 1.200
-20.000 -12.200 2.000
-20.000 0.200 0.200
-20.000 0.200 1.200
-20.000 0.200 2.000
-20.000 -12.400 0.200
-20.000 -12.400 1.200
-20.000 -12.400 2.000
-20.000 0.400 0.200
-20.000 0.400 1.200
-20.000 0.400 2.000
9.350 -12.900 0.200
9.350 -12.900 0.500
9.350 -12.900 0.900
9.350 -12.900 1.400
9.350 -12.900 1.700
-14.600 -20.000 0.200
-14.600 -20.000 1.200
-14.600 -20.000 2.000
-20.000 -12.600 0.200
-20.000 -12.600 1.200
-20.000 -12.600 2.000
-20.000 0.600 0.200
-20.000 0.600 1.200
-20.000 0.600 2.000
-20.000 -12.800 0.200
-20.000 -12.800 1.200
-20.000 -12.800 2.000
-20.000 0.800 0.200
-20.000 0.800 1.200
-20.000 0.800 2.000
-20.000 -13.000 0.200
-20.000 -13.000 1.200
-20.000 -13.000 2.000
-14.800 -20.000 0.200
-14.800 -20.000 1.200
-14.800 -20.000 2.000
-20.000 -13.200 0.200
-20.000 -13.200 1.200
-20.000 -13.200 2.000
-20.000 1.000 0.200
-20.000 1.000 1.200
-20.000 1.000 2.000
-20.000 1.200 0.200
-20.000 1.200 1.200
-20.000 1.200 2.000
-20.000 -13.400 0.200
-20.000 -13.400 1.200
-20.000 -13.400 2.000
-20.000 1.400 0.200
-20.000 1.400 1.200
-20.000 1.400 2.000
9.350 -12.900 0.200
9.350 -12.900 0.500
9.350 -12.900 0.900
9.350 -12.900 1.400
9.350 -12.900 1.700
-15.000 -20.000 0.200
-15.000 -20.000 1.200
-15.000 -20.000 2.000
-20.000 -13.600 0.200
-20.000 -13.600 1.200
-20.000 -13.600 2.000
-20.000 1.600 0.200
-20.000 1.600 1.200
-20.000 1.600 2.000
-20.000 -13.800 0.200
-20.000 -13.800 1.200
-20.000 -13.800 2.000
-15.200 -20.000 0.200
-15.200 -20.000 1.200
-15.200 -20.000 2.000
-20.000 1.800 0.200
-20.000 1.800 1.200
-20.000 1.800 2.000
-20.000 -14.000 0.200
-20.000 -14.000 1.200
-20.000 -14.000 2.000
-20.000 2.000 0.200
-20.000 2.000 1.200
-20.000 2.000 2.000
-20.000 -14.200 0.200
-20.000 -14.200 1.200
-20.000 -14.200 2.000
-20.000 2.200 0.200
-20.000 2.200 1.200
-20.000 2.200 2.000
-15.400 -20.000 0.200
-15.400 -20.000 1.200
-15.400 -20.000 2.000
-20.000 -14.400 0.200
-20.000 -14.400 1.200
-20.000 -14.400 2.000
-20.000 -8.200 0.200
-20.000 -8.200 1.200
-20.000 -8.200 2.000
-20.000 2.400 0.200
-20.000 2.400 1.200
-20.000 2.400 2.000
-20.000 -14.600 0.200
-20.000 -14.600 1.200
-20.000 -14.600 2.000
-20.000 2.600 0.200
-20.000 2.600 1.200
-20.000 2.600 2.000
-15.600 -20.000 0.200
-15.600 -20.000 1.200
-15.600 -20.000 2.000
-20.000 -14.800 0.200
-20.000 -14.800 1.200
-20.000 -14.800 2.000
-20.000 2.800 0.200
-20.000 2.800 1.200
-20.000 2.800 2.000
-20.000 -15.000 0.200
-20.000 -15.000 1.200
-20.000 -15.000 2.000
-15.800 -20.000 0.200
-15.800 -20.000 1.200
-15.800 -20.000 2.000
-20.000 3.000 0.200
-20.000 3.000 1.200
-20.000 3.000 2.000
-20.000 -15.200 0.200
-20.000 -15.200 1.200
-20.000 -15.200 2.000
-20.000 3.200 0.200
-20.000 3.200 1.200
-20.000 3.200 2.000
-20.000 -15.400 0.200
-20.000 -15.400 1.200
-20.000 -15.400 2.000
-16.000 -20.000 0.200
-16.000 -20.000 1.200
-16.000 -20.000 2.000
-20.000 3.400 0.200
-20.000 3.400 1.200
-20.000 3.400 2.000
-20.000 -15.600 0.200
-20.000 -15.600 1.200
-20.000 -15.600 2.000
-20.000 3.600 0.200
-20.000 3.600 1.200
-20.000 3.600 2.000
-16.200 -20.000 0.200
-16.200 -20.000 1.200
-16.200 -20.000 2.000
-20.000 -15.800 0.200
-20.000 -15.800 1.200
-20.000 -15.800 2.000
-20.000 3.800 0.200
-20.000 3.800 1.200
-20.000 3.800 2.000
-16.400 -20.000 0.200
-16.400 -20.000 1.200
-16.400 -20.000 2.000
-20.000 -16.000 0.200
-20.000 -16.000 1.200
-20.000 -16.000 2.000
-20.000 4.000 0.200
-20.000 4.000 1.200
-20.000 4.000 2.000
-20.000 -16.200 0.200
-20.000 -16.200 1.200
-20.000 -16.200 2.000
-20.000 4.200 0.200
-20.000 4.200 1.200
-20.000 4.200 2.000
-0.200 -18.200 0.200
-0.200 -18.200 0.400
-16.600 -20.000 0.200
-16.600 -20.000 1.200
-16.600 -20.000 2.000
-20.000 -16.400 0.200
-20.000 -16.400 1.200
-20.000 -16.400 2.000
-20.000 4.400 0.200
-20.000 4.400 1.200
-20.000 4.400 2.000
-16.800 -20.000 0.200
-16.800 -20.000 1.200
-16.800 -20.000 2.000
-20.000 -16.600 0.200
-20.000 -16.600 1.200
-20.000 -16.600 2.000
-20.000 4.600 0.200
-20.000 4.600 1.200
-20.000 4.600 2.000
-20.000 -16.800 0.200
-20.000 -16.800 1.200
-20.000 -16.800 2.000
-17.000 -20.000 0.200
-17.000 -20.000 1.200
-17.000 -20.000 2.000
-20.000 -8.400 0.200
-20.000 -8.400 1.200
-20.000 -8.400 2.000
-20.000 4.800 0.200
-20.000 4.800 1.200
-20.000 4.800 2.000
-20.000 -17.000 0.200
-20.000 -17.000 1.200
-20.000 -17.000 2.000
-20.000 5.000 0.200
-20.000 5.000 1.200
-20.000 5.000 2.000
-20.000 -17.200 0.200
-17.200 -20.000 0.200
-20.000 -17.200 1.200
-17.200 -20.000 1.200
-20.000 -17.200 2.000
-17.200 -20.000 2.000
-20.000 5.200 0.200
-20.000 5.200 1.200
-20.000 5.200 2.000
-20.000 -17.400 0.200
-17.400 -20.000 0.200
-20.000 -17.400 1.200
-17.400 -20.000 1.200
-20.000 -17.400 2.000
-17.400 -20.000 2.000
-20.000 5.400 0.200
-20.000 5.400 1.200
-20.000 5.400 2.000
-20.000 -17.600 0.200
-17.600 -20.000 0.200
-20.000 -17.600 1.200
-17.600 -20.000 1.200
-20.000 -17.600 2.000
-17.600 -20.000 2.000
-20.000 5.600 0.200
-20.000 5.600 1.200
-20.000 5.600 2.000
-20.000 -17.800 0.200
-20.000 -17.800 1.200
-20.000 -17.800 2.000
-17.800 -20.000 0.200
-17.800 -20.000 1.200
-17.800 -20.000 2.000
-20.000 5.800 0.200
-20.000 5.800 1.200
-20.000 5.800 2.000
-20.000 -18.000 0.200
-20.000 -18.000 1.200
-20.000 -18.000 2.000
-18.000 -20.000 0.200
-18.000 -20.000 1.200
-18.000 -20.000 2.000
-20.000 6.000 0.200
-20.000 6.000 1.200
-20.000 6.000 2.000
-20.000 -8.600 0.200
-20.000 -8.600 1.200
-20.000 -8.600 2.000
-20.000 -18.200 0.200
-20.000 -18.200 1.200
-20.000 -18.200 2.000
-18.200 -20.000 0.200
-18.200 -20.000 1.200
-18.200 -20.000 2.000
-20.000 6.200 0.200
-20.000 6.200 1.200
-20.000 6.200 2.000
-20.000 -18.400 0.200
-20.000 -18.400 1.200
-20.000 -18.400 2.000
-20.000 6.400 0.200
-20.000 6.400 1.200
-20.000 6.400 2.000
-18.400 -20.000 0.200
-18.400 -20.000 1.200
-18.400 -20.000 2.000
-20.000 -18.600 0.200
-20.000 -18.600 1.200
-20.000 -18.600 2.000
-20.000 6.600 0.200
-20.000 6.600 1.200
-20.000 6.600 2.000
-18.600 -20.000 0.200
-18.600 -20.000 1.200
-18.600 -20.000 2.000
-20.000 -18.800 0.200
-20.000 -18.800 1.200
-20.000 -18.800 2.000
-20.000 6.800 0.200
-20.000 6.800 1.200
-20.000 6.800 2.000
-18.800 -20.000 0.200
-18.800 -20.000 1.200
-18.800 -20.000 2.000
-20.000 -19.000 0.200
-20.000 -19.000 1.200
-20.000 -19.000 2.000
-20.000 -8.800 0.200
-20.000 -8.800 1.200
-20.000 -8.800 2.000
-20.000 7.000 0.200
-20.000 7.000 1.200
-20.000 7.000 2.000
-19.000 -20.000 0.200
-19.000 -20.000 1.200
-19.000 -20.000 2.000
-20.000 -19.200 0.200
-20.000 -19.200 1.200
-20.000 -19.200 2.000
-20.000 7.200 0.200
-20.000 7.200 1.200
-20.000 7.200 2.000
-20.000 -19.400 0.200
-20.000 -19.400 1.200
-20.000 -19.400 2.000
-20.000 7.400 0.200
-20.000 7.400 1.200
-20.000 7.400 2.000
-19.400 -20.000 0.200
-19.400 -20.000 1.200
-19.400 -20.000 2.000
-20.000 -19.600 0.200
-20.000 -19.600 1.200
-20.000 -19.600 2.000
-20.000 -9.000 0.200
-20.000 -9.000 1.200
-20.000 -9.000 2.000
-13.250 11.250 0.200
-13.250 11.250 0.500
-13.250 11.250 0.900
-13.250 11.250 1.400
-13.250 11.250 1.700
-19.600 -20.000 0.200
-19.600 -20.000 1.200
-19.600 -20.000 2.000
-20.000 7.600 0.200
-20.000 7.600 1.200
-20.000 7.600 2.000
-13.250 11.250 0.200
-13.250 11.250 0.500
-13.250 11.250 0.900
-13.250 11.250 1.400
-13.250 11.250 1.700
-20.000 -19.800 0.200
-20.000 -19.800 1.200
-20.000 -19.800 2.000
-19.800 -20.000 0.200
-19.800 -20.000 1.200
-19.800 -20.000 2.000
-20.000 7.800 0.200
-20.000 7.800 1.200
-20.000 7.800 2.000
-13.500 11.250 0.200
-13.500 11.250 0.500
-13.500 11.250 0.900
-13.500 11.250 1.400
-13.500 11.250 1.700
-19.200 -20.000 0.200
-19.200 -20.000 1.200
-19.200 -20.000 2.000
-20.000 -20.000 0.200
-20.000 -20.000 1.200
-20.000 -20.000 2.000
-20.000 -9.200 0.200
-20.000 -9.200 1.200
-20.000 -9.200 2.000
-20.000 8.000 0.200
-20.000 8.000 1.200
-20.000 8.000 2.000
-13.750 11.250 0.200
-13.750 11.250 0.500
-13.750 11.250 0.900
-13.750 11.250 1.400
-13.750 11.250 1.700
-13.750 11.250 0.200
-13.750 11.250 0.500
-13.750 11.250 0.900
-13.750 11.250 1.400
-13.750 11.250 1.700
-20.000 8.200 0.200
-20.000 8.200 1.200
-20.000 8.200 2.000
-14.000 11.250 0.200
-14.000 11.250 0.500
-14.000 11.250 0.900
-14.000 11.250 1.400
-14.000 11.250 1.700
-20.000 -9.400 0.200
-20.000 -9.400 1.200
-20.000 -9.400 2.000
-20.000 8.400 0.200
-20.000 8.400 1.200
-20.000 8.400 2.000
-14.250 11.250 0.200
-14.250 11.250 0.500
-14.250 11.250 0.900
-14.250 11.250 1.400
-14.250 11.250 1.700
-14.250 11.250 0.200
-14.250 11.250 0.500
-14.250 11.250 0.900
-14.250 11.250 1.400
-14.250 11.250 1.700
-20.000 -9.600 0.200
-20.000 -9.600 1.200
-20.000 -9.600 2.000
-14.500 11.250 0.200
-14.500 11.250 0.500
-14.500 11.250 0.900
-14.500 11.250 1.400
-14.500 11.250 1.700
-20.000 8.600 0.200
-20.000 8.600 1.200
-20.000 8.600 2.000
-20.000 -9.800 0.200
-20.000 -9.800 1.200
-20.000 -9.800 2.000
-14.750 11.250 0.200
-14.750 11.250 0.500
-14.750 11.250 0.900
-14.750 11.250 1.400
-14.750 11.250 1.700
-14.750 11.250 0.200
-14.750 11.250 0.500
-14.750 11.250 0.900
-14.750 11.250 1.400
-14.750 11.250 1.700
-20.000 8.800 0.200
-20.000 8.800 1.200
-20.000 8.800 2.000
-20.000 -10.000 0.200
-20.000 -10.000 1.200
-20.000 -10.000 2.000
-20.000 -10.200 0.200
-20.000 -10.200 1.200
-20.000 -10.200 2.000
-20.000 9.000 0.200
-20.000 9.000 1.200
-20.000 9.000 2.000
-0.100 -18.200 0.200
-0.100 -18.200 0.400
-20.000 -10.400 0.200
-20.000 -10.400 1.200
-20.000 -10.400 2.000
-20.000 9.200 0.200
-20.000 9.200 1.200
-20.000 9.200 2.000
-20.000 -10.600 0.200
-20.000 -10.600 1.200
-20.000 -10.600 2.000
-13.250 11.750 0.200
-13.250 11.750 0.500
-13.250 11.750 0.900
-13.250 11.750 1.400
-13.250 11.750 1.700
-20.000 -10.800 0.200
-20.000 -10.800 1.200
-20.000 -10.800 2.000
-13.250 11.750 0.200
-13.250 11.750 0.500
-13.250 11.750 0.900
-13.250 11.750 1.400
-13.250 11.750 1.700
-14.750 11.500 0.200
-14.750 11.500 0.500
-14.750 11.500 0.900
-14.750 11.500 1.400
-14.750 11.500 1.700
-20.000 -11.000 0.200
-20.000 -11.000 1.200
-20.000 -11.000 2.000
-20.000 9.400 0.200
-20.000 9.400 1.200
-20.000 9.400 2.000
-20.000 -11.200 0.200
-20.000 -11.200 1.200
-20.000 -11.200 2.000
-14.750 11.500 0.200
-14.750 11.500 0.500
-14.750 11.500 0.900
-14.750 11.500 1.400
-14.750 11.500 1.700
-20.000 -11.400 0.200
-20.000 -11.400 1.200
-20.000 -11.400 2.000
-20.000 -11.600 0.200
-20.000 -11.600 1.200
-20.000 -11.600 2.000
-20.000 9.600 0.200
-20.000 9.600 1.200
-20.000 9.600 2.000
-20.000 9.800 0.200
-20.000 9.800 1.200
-20.000 9.800 2.000
-20.000 10.000 0.200
-20.000 10.000 1.200
-20.000 10.000 2.000
-20.000 10.200 0.200
-20.000 10.200 1.200
-20.000 10.200 2.000
-20.000 10.400 0.200
-20.000 10.400 1.200
-20.000 10.400 2.000
-13.000 -8.750 0.200
-13.000 -8.750 0.500
-13.000 -8.750 0.900
-13.000 -8.750 1.400
-13.000 -8.750 1.700
-13.000 -8.500 0.200
-13.000 -8.500 0.500
-13.000 -8.500 0.900
-13.000 -8.500 1.400
-13.000 -8.500 1.700
-13.000 -8.250 0.200
-13.000 -8.250 0.500
-13.000 -8.250 0.900
-13.000 -8.250 1.400
-13.000 -8.250 1.700
-13.000 -8.000 0.200
-13.000 -8.000 0.500
-13.000 -8.000 0.900
-13.000 -8.000 1.400
-13.000 -8.000 1.700
-13.000 -7.750 0.200
-13.000 -7.750 0.500
-13.000 -7.750 0.900
-13.000 -7.750 1.400
-13.000 -7.750 1.700
-13.000 -7.500 0.200
-13.000 -7.500 0.500
-13.000 -7.500 0.900
-13.000 -7.500 1.400
-13.000 -7.500 1.700
-20.000 10.600 0.200
-20.000 10.600 1.200
-20.000 10.600 2.000
-20.000 10.800 0.200
-20.000 10.800 1.200
-20.000 10.800 2.000
-20.000 11.000 0.200
-20.000 11.000 1.200
-20.000 11.000 2.000
-14.750 11.750 0.200
-14.750 11.750 0.500
-14.750 11.750 0.900
-14.750 11.750 1.400
-14.750 11.750 1.700
-20.000 11.200 0.200
-20.000 11.200 1.200
-20.000 11.200 2.000
-14.750 11.750 0.200
-14.750 11.750 0.500
-14.750 11.750 0.900
-14.750 11.750 1.400
-14.750 11.750 1.700
-13.000 -8.750 0.200
-13.000 -8.750 0.500
-13.000 -8.750 0.900
-13.000 -8.750 1.400
-13.000 -8.750 1.700
-13.000 -8.250 0.200
-13.000 -8.250 0.500
-13.000 -8.250 0.900
-13.000 -8.250 1.400
-13.000 -8.250 1.700
-13.000 -7.250 0.200
-13.000 -7.250 0.500
-13.000 -7.250 0.900
-13.000 -7.250 1.400
-13.000 -7.250 1.700
-12.750 -7.250 0.200
-12.750 -7.250 0.500
-12.750 -7.250 0.900
-12.750 -7.250 1.400
-12.750 -7.250 1.700
-12.500 -7.250 0.200
-12.500 -7.250 0.500
-12.500 -7.250 0.900
-12.500 -7.250 1.400
-12.500 -7.250 1.700
-12.250 -7.250 0.200
-12.250 -7.250 0.500
-12.250 -7.250 0.900
-12.250 -7.250 1.400
-12.250 -7.250 1.700
-12.000 -7.250 0.200
-12.000 -7.250 0.500
-12.000 -7.250 0.900
-12.000 -7.250 1.400
-12.000 -7.250 1.700
-11.750 -7.250 0.200
-11.750 -7.250 0.500
-11.750 -7.250 0.900
-11.750 -7.250 1.400
-11.750 -7.250 1.700
-11.500 -7.250 0.200
-11.500 -7.250 0.500
-11.500 -7.250 0.900
-11.500 -7.250 1.400
-11.500 -7.250 1.700
-11.250 -7.250 0.200
-11.250 -7.250 0.500
-11.250 -7.250 0.900
-11.250 -7.250 1.400
-11.250 -7.250 1.700
-11.000 -7.250 0.200
-11.000 -7.250 0.500
-11.000 -7.250 0.900
-11.000 -7.250 1.400
-11.000 -7.250 1.700
-13.000 -7.750 0.200
-13.000 -7.750 0.500
-13.000 -7.750 0.900
-13.000 -7.750 1.400
-13.000 -7.750 1.700
-14.750 11.250 0.200
-14.750 11.250 0.500
-14.750 11.250 0.900
-14.750 11.250 1.400
-14.750 11.250 1.700
-14.500 11.250 0.200
-14.500 11.250 0.500
-14.500 11.250 0.900
-14.500 11.250 1.400
-14.500 11.250 1.700
-14.250 11.250 0.200
-14.250 11.250 0.500
-14.250 11.250 0.900
-14.250 11.250 1.400
-14.250 11.250 1.700
-12.750 -8.750 0.200
-12.750 -8.750 0.500
-12.750 -8.750 0.900
-12.750 -8.750 1.400
-12.750 -8.750 1.700
-12.500 -8.750 0.200
-12.500 -8.750 0.500
-12.500 -8.750 0.900
-12.500 -8.750 1.400
-12.500 -8.750 1.700
-12.250 -8.750 0.200
-12.250 -8.750 0.500
-12.250 -8.750 0.900
-12.250 -8.750 1.400
-12.250 -8.750 1.700
-12.000 -8.750 0.200
-12.000 -8.750 0.500
-12.000 -8.750 0.900
-12.000 -8.750 1.400
-12.000 -8.750 1.700
-11.750 -8.750 0.200
-11.750 -8.750 0.500
-11.750 -8.750 0.900
-11.750 -8.750 1.400
-11.750 -8.750 1.700
-11.500 -8.750 0.200
-11.500 -8.750 0.500
-11.500 -8.750 0.900
-11.500 -8.750 1.400
-11.500 -8.750 1.700
-11.250 -8.750 0.200
-11.250 -8.750 0.500
-11.250 -8.750 0.900
-11.250 -8.750 1.400
-11.250 -8.750 1.700
-11.000 -8.750 0.200
-11.000 -8.750 0.500
-11.000 -8.750 0.900
-11.000 -8.750 1.400
-11.000 -8.750 1.700
-12.750 -8.750 0.200
-12.750 -8.750 0.500
-12.750 -8.750 0.900
-12.750 -8.750 1.400
-12.750 -8.750 1.700
-12.500 -8.750 0.200
-12.500 -8.750 0.500
-12.500 -8.750 0.900
-12.500 -8.750 1.400
-12.500 -8.750 1.700
-12.250 -8.750 0.200
-12.250 -8.750 0.500
-12.250 -8.750 0.900
-12.250 -8.750 1.400
-12.250 -8.750 1.700
-12.000 -8.750 0.200
-12.000 -8.750 0.500
-12.000 -8.750 0.900
-12.000 -8.750 1.400
-12.000 -8.750 1.700
-11.750 -8.750 0.200
-11.750 -8.750 0.500
-11.750 -8.750 0.900
-11.750 -8.750 1.400
-11.750 -8.750 1.700
-11.500 -8.750 0.200
-11.500 -8.750 0.500
-11.500 -8.750 0.900
-11.500 -8.750 1.400
-11.500 -8.750 1.700
-12.750 -8.750 0.200
-12.750 -8.750 0.500
-12.750 -8.750 0.900
-12.750 -8.750 1.400
-12.750 -8.750 1.700
-12.250 -8.750 0.200
-12.250 -8.750 0.500
-12.250 -8.750 0.900
-12.250 -8.750 1.400
-12.250 -8.750 1.700
-11.750 -8.750 0.200
-11.750 -8.750 0.500
-11.750 -8.750 0.900
-11.750 -8.750 1.400
-11.750 -8.750 1.700
-11.250 -8.750 0.200
-11.250 -8.750 0.500
-11.250 -8.750 0.900
-11.250 -8.750 1.400
-11.250 -8.750 1.700
-11.000 -8.250 0.200
-11.000 -8.250 0.500
-11.000 -8.250 0.900
-11.000 -8.250 1.400
-11.000 -8.250 1.700
-11.000 -7.750 0.200
-11.000 -7.750 0.500
-11.000 -7.750 0.900
-11.000 -7.750 1.400
-11.000 -7.750 1.700
-11.250 -7.250 0.200
-11.250 -7.250 0.500
-11.250 -7.250 0.900
-11.250 -7.250 1.400
-11.250 -7.250 1.700
10.100 -12.900 0.200
10.100 -12.900 0.500
10.100 -12.900 0.900
10.100 -12.900 1.400
10.100 -12.900 1.700
10.350 -12.900 0.200
10.350 -12.900 0.500
10.350 -12.900 0.900
10.350 -12.900 1.400
10.350 -12.900 1.700
10.600 -12.900 0.200
10.600 -12.900 0.500
10.600 -12.900 0.900
10.600 -12.900 1.400
10.600 -12.900 1.700
9.600 -12.900 0.200
9.600 -12.900 0.500
9.600 -12.900 0.900
9.600 -12.900 1.400
9.600 -12.900 1.700
9.850 -12.900 0.200
9.850 -12.900 0.500
9.850 -12.900 0.900
9.850 -12.900 1.400
9.850 -12.900 1.700
10.350 -12.900 0.200
10.350 -12.900 0.500
10.350 -12.900 0.900
10.350 -12.900 1.400
10.350 -12.900 1.700
9.850 -12.900 0.200
9.850 -12.900 0.500
9.850 -12.900 0.900
9.850 -12.900 1.400
9.850 -12.900 1.700
