# .PCD v0.7 - map_manager
VERSION 0.7
FIELDS x y z
SIZE 4 4 4
TYPE F F F
COUNT 1 1 1
WIDTH 1536
HEIGHT 1
VIEWPOINT 0 0 0 1 0 0 0
POINTS 1536
DATA ascii
10.000 -3.800 0.200
10.000 -3.800 1.200
10.000 -3.800 2.000
10.000 -3.600 0.200
10.000 -3.600 1.200
10.000 -3.600 2.000
10.000 -3.400 0.200
10.000 -3.400 1.200
10.000 -3.400 2.000
10.000 -3.200 0.200
10.000 -3.200 1.200
10.000 -3.200 2.000
10.000 -3.000 0.200
10.000 -3.000 1.200
10.000 -3.000 2.000
10.000 -2.800 0.200
10.000 -2.800 1.200
10.000 -2.800 2.000
10.000 -2.600 0.200
10.000 -2.600 1.200
10.000 -2.600 2.000
10.000 -2.400 0.200
10.000 -2.400 1.200
10.000 -2.400 2.000
10.000 -2.200 0.200
10.000 -2.200 1.200
10.000 -2.200 2.000
10.000 -2.000 0.200
10.000 -2.000 1.200
10.000 -2.000 2.000
10.000 -1.800 0.200
10.000 -1.800 1.200
10.000 -1.800 2.000
10.000 -1.600 0.200
10.000 -1.600 1.200
10.000 -1.600 2.000
10.000 -1.400 0.200
10.000 -1.400 1.200
10.000 -1.400 2.000
10.000 -1.200 0.200
10.000 -1.200 1.200
10.000 -1.200 2.000
10.000 -1.000 0.200
10.000 -1.000 1.200
10.000 -1.000 2.000
10.000 -0.800 0.200
10.000 -0.800 1.200
10.000 -0.800 2.000
10.000 -0.600 0.200
10.000 -0.600 1.200
10.000 -0.600 2.000
10.000 -0.400 0.200
10.000 -0.400 1.200
10.000 -0.400 2.000
10.000 -0.200 0.200
10.000 -0.200 1.200
10.000 -0.200 2.000
10.000 0.000 0.200
10.000 0.000 1.200
10.000 0.000 2.000
10.000 0.200 0.200
10.000 0.200 1.200
10.000 0.200 2.000
10.000 0.400 0.200
10.000 0.400 1.200
10.000 0.400 2.000
10.000 0.600 0.200
10.000 0.600 1.200
10.000 0.600 2.000
10.000 0.800 0.200
10.000 0.800 1.200
10.000 0.800 2.000
10.000 1.000 0.200
10.000 1.000 1.200
10.000 1.000 2.000
10.000 1.200 0.200
10.000 1.200 1.200
10.000 1.200 2.000
10.000 1.400 0.200
10.000 1.400 1.200
10.000 1.400 2.000
10.000 1.600 0.200
10.000 1.600 1.200
10.000 1.600 2.000
10.000 1.800 0.200
10.000 1.800 1.200
10.000 1.800 2.000
10.000 2.000 0.200
2.000 10.000 0.200
10.000 2.000 1.200
2.000 10.000 1.200
10.000 2.000 2.000
2.000 10.000 2.000
10.000 2.200 0.200
2.200 10.000 0.200
10.000 2.200 1.200
2.200 10.000 1.200
10.000 2.200 2.000
2.200 10.000 2.000
10.000 2.400 0.200
2.400 10.000 0.200
10.000 2.400 1.200
2.400 10.000 1.200
10.000 2.400 2.000
2.400 10.000 2.000
10.000 2.600 0.200
2.600 10.000 0.200
10.000 2.600 1.200
2.600 10.000 1.200
10.000 2.600 2.000
2.600 10.000 2.000
10.000 2.800 0.200
2.800 10.000 0.200
10.000 2.800 1.200
2.800 10.000 1.200
10.000 2.800 2.000
2.800 10.000 2.000
10.000 3.000 0.200
3.000 10.000 0.200
10.000 3.000 1.200
3.000 10.000 1.200
10.000 3.000 2.000
3.000 10.000 2.000
10.000 3.200 0.200
3.200 10.000 0.200
10.000 3.200 1.200
3.200 10.000 1.200
10.000 3.200 2.000
3.200 10.000 2.000
10.000 3.400 0.200
3.400 10.000 0.200
10.000 3.400 1.200
3.400 10.000 1.200
10.000 3.400 2.000
3.400 10.000 2.000
10.000 3.600 0.200
3.600 10.000 0.200
10.000 3.600 1.200
3.600 10.000 1.200
10.000 3.600 2.000
3.600 10.000 2.000
10.000 3.800 0.200
3.800 10.000 0.200
10.000 3.800 1.200
3.800 10.000 1.200
10.000 3.800 2.000
3.800 10.000 2.000
10.000 4.000 0.200
4.000 10.000 0.200
10.000 4.000 1.200
4.000 10.000 1.200
10.000 4.000 2.000
4.000 10.000 2.000
10.000 4.200 0.200
4.200 10.000 0.200
10.000 4.200 1.200
4.200 10.000 1.200
10.000 4.200 2.000
4.200 10.000 2.000
10.000 4.400 0.200
4.400 10.000 0.200
10.000 4.400 1.200
4.400 10.000 1.200
10.000 4.400 2.000
4.400 10.000 2.000
10.000 4.600 0.200
4.600 10.000 0.200
10.000 4.600 1.200
4.600 10.000 1.200
10.000 4.600 2.000
4.600 10.000 2.000
10.000 4.800 0.200
4.800 10.000 0.200
10.000 4.800 1.200
4.800 10.000 1.200
10.000 4.800 2.000
4.800 10.000 2.000
10.000 5.000 0.200
5.000 10.000 0.200
10.000 5.000 1.200
5.000 10.000 1.200
10.000 5.000 2.000
5.000 10.000 2.000
10.000 5.200 0.200
5.200 10.000 0.200
10.000 5.200 1.200
5.200 10.000 1.200
10.000 5.200 2.000
5.200 10.000 2.000
10.000 5.400 0.200
5.400 10.000 0.200
10.000 5.400 1.200
5.400 10.000 1.200
10.000 5.400 2.000
5.400 10.000 2.000
10.000 5.600 0.200
5.600 10.000 0.200
10.000 5.600 1.200
5.600 10.000 1.200
10.000 5.600 2.000
5.600 10.000 2.000
10.000 5.800 0.200
5.800 10.000 0.200
10.000 5.800 1.200
5.800 10.000 1.200
10.000 5.800 2.000
5.800 10.000 2.000
10.000 6.000 0.200
10.000 6.000 1.200
10.000 6.000 2.000
10.000 6.200 0.200
10.000 6.200 1.200
10.000 6.200 2.000
10.000 6.400 0.200
10.000 6.400 1.200
10.000 6.400 2.000
10.000 6.600 0.200
6.600 10.000 0.200
10.000 6.600 1.200
6.600 10.000 1.200
10.000 6.600 2.000
6.600 10.000 2.000
10.000 6.800 0.200
6.800 10.000 0.200
10.000 6.800 1.200
6.800 10.000 1.200
10.000 6.800 2.000
6.800 10.000 2.000
10.000 7.000 0.200
7.000 10.000 0.200
10.000 7.000 1.200
7.000 10.000 1.200
10.000 7.000 2.000
7.000 10.000 2.000
10.000 7.200 0.200
7.200 10.000 0.200
10.000 7.200 1.200
7.200 10.000 1.200
10.000 7.200 2.000
7.200 10.000 2.000
10.000 7.400 0.200
7.400 10.000 0.200
10.000 7.400 1.200
7.400 10.000 1.200
10.000 7.400 2.000
7.400 10.000 2.000
10.000 7.600 0.200
7.600 10.000 0.200
10.000 7.600 1.200
7.600 10.000 1.200
10.000 7.600 2.000
7.600 10.000 2.000
10.000 7.800 0.200
7.800 10.000 0.200
10.000 7.800 1.200
7.800 10.000 1.200
10.000 7.800 2.000
7.800 10.000 2.000
10.000 8.000 0.200
8.000 10.000 0.200
10.000 8.000 1.200
8.000 10.000 1.200
10.000 8.000 2.000
8.000 10.000 2.000
10.000 8.200 0.200
8.200 10.000 0.200
10.000 8.200 1.200
8.200 10.000 1.200
10.000 8.200 2.000
8.200 10.000 2.000
10.000 8.400 0.200
8.400 10.000 0.200
10.000 8.400 1.200
8.400 10.000 1.200
10.000 8.400 2.000
8.400 10.000 2.000
10.000 8.600 0.200
8.600 10.000 0.200
10.000 8.600 1.200
8.600 10.000 1.200
10.000 8.600 2.000
8.600 10.000 2.000
10.000 8.800 0.200
8.800 10.000 0.200
10.000 8.800 1.200
8.800 10.000 1.200
10.000 8.800 2.000
8.800 10.000 2.000
10.000 9.000 0.200
9.000 10.000 0.200
10.000 9.000 1.200
9.000 10.000 1.200
10.000 9.000 2.000
9.000 10.000 2.000
10.000 9.200 0.200
9.200 10.000 0.200
10.000 9.200 1.200
9.200 10.000 1.200
10.000 9.200 2.000
9.200 10.000 2.000
10.000 9.400 0.200
9.400 10.000 0.200
10.000 9.400 1.200
9.400 10.000 1.200
10.000 9.400 2.000
9.400 10.000 2.000
10.000 9.600 0.200
9.600 10.000 0.200
10.000 9.600 1.200
9.600 10.000 1.200
10.000 9.600 2.000
9.600 10.000 2.000
10.000 9.800 0.200
10.000 9.800 1.200
10.000 9.800 2.000
6.120 6.000 0.200
6.120 6.000 0.800
6.120 6.000 1.400
6.120 6.000 2.000
5.881 6.017 0.200
5.881 6.017 0.800
5.881 6.017 1.400
5.881 6.017 2.000
5.922 5.909 0.200
5.922 5.909 0.800
5.922 5.909 1.400
5.922 5.909 2.000
5.975 5.883 0.200
5.975 5.883 0.800
5.975 5.883 1.400
5.975 5.883 2.000
6.085 5.915 0.200
6.085 5.915 0.800
6.085 5.915 1.400
6.085 5.915 2.000
4.120 3.000 0.200
4.120 3.000 0.800
4.120 3.000 1.400
4.120 3.000 2.000
4.105 3.058 0.200
4.105 3.058 0.800
4.105 3.058 1.400
4.105 3.058 2.000
4.008 3.120 0.200
4.008 3.120 0.800
4.008 3.120 1.400
4.008 3.120 2.000
3.975 2.883 0.200
3.975 2.883 0.800
3.975 2.883 1.400
3.975 2.883 2.000
4.085 2.915 0.200
4.085 2.915 0.800
4.085 2.915 1.400
4.085 2.915 2.000
2.000 -2.000 0.200
4.000 -4.000 0.200
2.000 -2.000 0.500
4.000 -4.000 0.500
2.000 -2.000 0.800
4.000 -4.000 0.800
2.250 -2.000 0.200
4.000 -3.750 0.200
2.250 -2.000 0.500
4.000 -3.750 0.500
2.250 -2.000 0.800
4.000 -3.750 0.800
2.500 -2.000 0.200
4.000 -3.500 0.200
2.500 -2.000 0.500
4.000 -3.500 0.500
2.500 -2.000 0.800
4.000 -3.500 0.800
2.750 -2.000 0.200
4.000 -3.250 0.200
2.750 -2.000 0.500
4.000 -3.250 0.500
2.750 -2.000 0.800
4.000 -3.250 0.800
3.000 -2.000 0.200
4.000 -3.000 0.200
3.000 -2.000 0.500
4.000 -3.000 0.500
3.000 -2.000 0.800
4.000 -3.000 0.800
3.250 -2.000 0.200
4.000 -2.750 0.200
3.250 -2.000 0.500
4.000 -2.750 0.500
3.250 -2.000 0.800
4.000 -2.750 0.800
3.500 -2.000 0.200
4.000 -2.500 0.200
3.500 -2.000 0.500
4.000 -2.500 0.500
3.500 -2.000 0.800
4.000 -2.500 0.800
3.750 -2.000 0.200
4.000 -2.250 0.200
3.750 -2.000 0.500
4.000 -2.250 0.500
3.750 -2.000 0.800
4.000 -2.250 0.800
4.000 -2.000 0.200
4.000 -2.000 0.500
4.000 -2.000 0.800
9.800 10.000 0.200
9.800 10.000 1.200
9.800 10.000 2.000
2.250 -2.000 0.200
2.250 -2.000 0.500
2.250 -2.000 0.800
3.250 -2.000 0.200
3.250 -2.000 0.500
3.250 -2.000 0.800
6.400 10.000 0.200
6.400 10.000 1.200
6.400 10.000 2.000
3.750 -2.000 0.200
3.750 -2.000 0.500
3.750 -2.000 0.800
4.000 -3.750 0.200
4.000 -3.750 0.500
4.000 -3.750 0.800
2.750 -2.000 0.200
2.750 -2.000 0.500
2.750 -2.000 0.800
4.000 -2.750 0.200
4.000 -2.750 0.500
4.000 -2.750 0.800
4.000 -2.250 0.200
4.000 -2.250 0.500
4.000 -2.250 0.800
10.000 10.000 0.200
10.000 10.000 1.200
10.000 10.000 2.000
4.000 -3.250 0.200
4.000 -3.250 0.500
4.000 -3.250 0.800
1.800 10.000 0.200
1.800 10.000 1.200
1.800 10.000 2.000
6.200 10.000 0.200
6.200 10.000 1.200
6.200 10.000 2.000
1.600 10.000 0.200
1.600 10.000 1.200
1.600 10.000 2.000
1.400 10.000 0.200
1.400 10.000 1.200
1.400 10.000 2.000
6.000 10.000 0.200
6.000 10.000 1.200
6.000 10.000 2.000
1.200 10.000 0.200
1.200 10.000 1.200
1.200 10.000 2.000
1.000 10.000 0.200
1.000 10.000 1.200
1.000 10.000 2.000
0.800 10.000 0.200
0.800 10.000 1.200
0.800 10.000 2.000
0.600 10.000 0.200
0.600 10.000 1.200
0.600 10.000 2.000
0.400 10.000 0.200
0.400 10.000 1.200
0.400 10.000 2.000
3.904 3.072 0.200
3.904 3.072 0.800
3.904 3.072 1.400
3.904 3.072 2.000
0.200 10.000 0.200
0.200 10.000 1.200
0.200 10.000 2.000
0.000 10.000 0.200
0.000 10.000 1.200
0.000 10.000 2.000
-0.200 10.000 0.200
-0.200 10.000 1.200
-0.200 10.000 2.000
5.904 6.072 0.200
5.904 6.072 0.800
5.904 6.072 1.400
5.904 6.072 2.000
-0.400 10.000 0.200
-0.400 10.000 1.200
-0.400 10.000 2.000
-0.600 10.000 0.200
-0.600 10.000 1.200
-0.600 10.000 2.000
-2.880 4.000 0.200
-2.880 4.000 0.800
-2.880 4.000 1.400
-2.880 4.000 2.000
-2.895 4.058 0.200
-2.895 4.058 0.800
-2.895 4.058 1.400
-2.895 4.058 2.000
-0.800 10.000 0.200
-0.800 10.000 1.200
-0.800 10.000 2.000
-2.915 3.915 0.200
-2.915 3.915 0.800
-2.915 3.915 1.400
-2.915 3.915 2.000
-1.000 10.000 0.200
-1.000 10.000 1.200
-1.000 10.000 2.000
-2.992 4.120 0.200
-2.992 4.120 0.800
-2.992 4.120 1.400
-2.992 4.120 2.000
-2.966 3.885 0.200
-2.966 3.885 0.800
-2.966 3.885 1.400
-2.966 3.885 2.000
-1.200 10.000 0.200
-1.200 10.000 1.200
-1.200 10.000 2.000
-3.096 4.072 0.200
-3.096 4.072 0.800
-3.096 4.072 1.400
-3.096 4.072 2.000
-3.078 3.909 0.200
-3.078 3.909 0.800
-3.078 3.909 1.400
-3.078 3.909 2.000
-3.119 4.017 0.200
-3.119 4.017 0.800
-3.119 4.017 1.400
-3.119 4.017 2.000
3.881 3.017 0.200
3.881 3.017 0.800
3.881 3.017 1.400
3.881 3.017 2.000
-1.400 10.000 0.200
-1.400 10.000 1.200
-1.400 10.000 2.000
5.950 6.109 0.200
5.950 6.109 0.800
5.950 6.109 1.400
5.950 6.109 2.000
-1.600 10.000 0.200
-1.600 10.000 1.200
-1.600 10.000 2.000
-1.800 10.000 0.200
-1.800 10.000 1.200
-1.800 10.000 2.000
-2.000 10.000 0.200
-2.000 10.000 1.200
-2.000 10.000 2.000
-2.200 10.000 0.200
-2.200 10.000 1.200
-2.200 10.000 2.000
-2.400 10.000 0.200
-2.400 10.000 1.200
-2.400 10.000 2.000
-2.600 10.000 0.200
-2.600 10.000 1.200
-2.600 10.000 2.000
-2.800 10.000 0.200
-2.800 10.000 1.200
-2.800 10.000 2.000
-3.000 10.000 0.200
-3.000 10.000 1.200
-3.000 10.000 2.000
3.922 2.909 0.200
3.922 2.909 0.800
3.922 2.909 1.400
3.922 2.909 2.000
-3.200 10.000 0.200
-3.200 10.000 1.200
-3.200 10.000 2.000
-3.400 10.000 0.200
-3.400 10.000 1.200
-3.400 10.000 2.000
2.000 -3.750 0.200
2.000 -3.750 0.500
2.000 -3.750 0.800
2.000 -3.500 0.200
2.000 -3.500 0.500
2.000 -3.500 0.800
2.000 -3.250 0.200
2.000 -3.250 0.500
2.000 -3.250 0.800
2.000 -3.000 0.200
2.000 -3.000 0.500
2.000 -3.000 0.800
2.000 -2.750 0.200
2.000 -2.750 0.500
2.000 -2.750 0.800
2.000 -2.500 0.200
2.000 -2.500 0.500
2.000 -2.500 0.800
2.000 -2.250 0.200
2.000 -2.250 0.500
2.000 -2.250 0.800
-3.600 10.000 0.200
-3.600 10.000 1.200
-3.600 10.000 2.000
-5.880 6.000 0.200
-5.880 6.000 0.800
-5.880 6.000 1.400
-5.880 6.000 2.000
2.000 -3.250 0.200
2.000 -3.250 0.500
2.000 -3.250 0.800
2.000 -2.750 0.200
2.000 -2.750 0.500
2.000 -2.750 0.800
2.000 -2.250 0.200
2.000 -2.250 0.500
2.000 -2.250 0.800
-5.895 6.058 0.200
-5.895 6.058 0.800
-5.895 6.058 1.400
-5.895 6.058 2.000
-5.966 5.885 0.200
-5.966 5.885 0.800
-5.966 5.885 1.400
-5.966 5.885 2.000
-5.915 5.915 0.200
-5.915 5.915 0.800
-5.915 5.915 1.400
-5.915 5.915 2.000
-3.800 10.000 0.200
-3.800 10.000 1.200
-3.800 10.000 2.000
-5.992 6.120 0.200
-5.992 6.120 0.800
-5.992 6.120 1.400
-5.992 6.120 2.000
-6.078 5.909 0.200
-6.078 5.909 0.800
-6.078 5.909 1.400
-6.078 5.909 2.000
-4.000 10.000 0.200
-4.000 10.000 1.200
-4.000 10.000 2.000
-6.096 6.072 0.200
-6.096 6.072 0.800
-6.096 6.072 1.400
-6.096 6.072 2.000
-6.119 6.017 0.200
-6.119 6.017 0.800
-6.119 6.017 1.400
-6.119 6.017 2.000
6.065 6.101 0.200
6.065 6.101 0.800
6.065 6.101 1.400
6.065 6.101 2.000
-4.200 10.000 0.200
-4.200 10.000 1.200
-4.200 10.000 2.000
-4.400 10.000 0.200
-4.400 10.000 1.200
-4.400 10.000 2.000
-4.600 10.000 0.200
-4.600 10.000 1.200
-4.600 10.000 2.000
-4.800 10.000 0.200
-4.800 10.000 1.200
-4.800 10.000 2.000
-5.000 10.000 0.200
-5.000 10.000 1.200
-5.000 10.000 2.000
-5.200 10.000 0.200
-5.200 10.000 1.200
-5.200 10.000 2.000
-5.400 10.000 0.200
-5.400 10.000 1.200
-5.400 10.000 2.000
-5.600 10.000 0.200
-5.600 10.000 1.200
-5.600 10.000 2.000
-5.800 10.000 0.200
-5.800 10.000 1.200
-5.800 10.000 2.000
-6.000 10.000 0.200
-6.000 10.000 1.200
-6.000 10.000 2.000
-6.200 10.000 0.200
-6.200 10.000 1.200
-6.200 10.000 2.000
-6.400 10.000 0.200
-6.400 10.000 1.200
-6.400 10.000 2.000
-6.600 10.000 0.200
-6.600 10.000 1.200
-6.600 10.000 2.000
-6.800 10.000 0.200
-6.800 10.000 1.200
-6.800 10.000 2.000
-7.000 10.000 0.200
-7.000 10.000 1.200
-7.000 10.000 2.000
-7.200 10.000 0.200
-7.200 10.000 1.200
-7.200 10.000 2.000
-7.400 10.000 0.200
-7.400 10.000 1.200
-7.400 10.000 2.000
-7.600 10.000 0.200
-7.600 10.000 1.200
-7.600 10.000 2.000
-7.800 10.000 0.200
-7.800 10.000 1.200
-7.800 10.000 2.000
-8.000 10.000 0.200
-8.000 10.000 1.200
-8.000 10.000 2.000
-8.200 10.000 0.200
-8.200 10.000 1.200
-8.200 10.000 2.000
-8.400 10.000 0.200
-8.400 10.000 1.200
-8.400 10.000 2.000
-8.600 10.000 0.200
-8.600 10.000 1.200
-8.600 10.000 2.000
-10.000 5.000 0.200
-10.000 5.000 1.200
-10.000 5.000 2.000
-10.000 5.200 0.200
-10.000 5.200 1.200
-10.000 5.200 2.000
-10.000 5.400 0.200
-10.000 5.400 1.200
-10.000 5.400 2.000
-10.000 5.600 0.200
-10.000 5.600 1.200
-10.000 5.600 2.000
-10.000 5.800 0.200
-10.000 5.800 1.200
-10.000 5.800 2.000
-10.000 6.000 0.200
-10.000 6.000 1.200
-10.000 6.000 2.000
-10.000 4.600 0.200
-10.000 4.600 1.200
-10.000 4.600 2.000
-10.000 4.800 0.200
-10.000 4.800 1.200
-10.000 4.800 2.000
-10.000 6.800 0.200
-10.000 6.800 1.200
-10.000 6.800 2.000
-8.800 10.000 0.200
-8.800 10.000 1.200
-8.800 10.000 2.000
-10.000 4.200 0.200
-10.000 4.200 1.200
-10.000 4.200 2.000
-10.000 4.400 0.200
-10.000 4.400 1.200
-10.000 4.400 2.000
-10.000 6.600 0.200
-10.000 6.600 1.200
-10.000 6.600 2.000
-10.000 7.000 0.200
-10.000 7.000 1.200
-10.000 7.000 2.000
-10.000 7.200 0.200
-10.000 7.200 1.200
-10.000 7.200 2.000
-10.000 4.000 0.200
-10.000 4.000 1.200
-10.000 4.000 2.000
-10.000 7.400 0.200
-10.000 7.400 1.200
-10.000 7.400 2.000
-10.000 3.800 0.200
-10.000 3.800 1.200
-10.000 3.800 2.000
-10.000 7.600 0.200
-10.000 7.600 1.200
-10.000 7.600 2.000
-10.000 7.800 0.200
-10.000 7.800 1.200
-10.000 7.800 2.000
-9.000 10.000 0.200
-9.000 10.000 1.200
-9.000 10.000 2.000
-10.000 3.600 0.200
-10.000 3.600 1.200
-10.000 3.600 2.000
-10.000 8.000 0.200
-10.000 8.000 1.200
-10.000 8.000 2.000
-10.000 3.400 0.200
-10.000 3.400 1.200
-10.000 3.400 2.000
-10.000 8.200 0.200
-10.000 8.200 1.200
-10.000 8.200 2.000
-9.200 10.000 0.200
-9.200 10.000 1.200
-9.200 10.000 2.000
-10.000 6.400 0.200
-10.000 6.400 1.200
-10.000 6.400 2.000
-10.000 8.400 0.200
-10.000 8.400 1.200
-10.000 8.400 2.000
-10.000 3.200 0.200
-10.000 3.200 1.200
-10.000 3.200 2.000
-10.000 8.600 0.200
-10.000 8.600 1.200
-10.000 8.600 2.000
-10.000 3.000 0.200
-10.000 3.000 1.200
-10.000 3.000 2.000
-10.000 8.800 0.200
-10.000 8.800 1.200
-10.000 8.800 2.000
-9.400 10.000 0.200
-9.400 10.000 1.200
-9.400 10.000 2.000
-10.000 9.000 0.200
-10.000 9.000 1.200
-10.000 9.000 2.000
-10.000 2.800 0.200
-10.000 2.800 1.200
-10.000 2.800 2.000
-10.000 9.200 0.200
-10.000 9.200 1.200
-10.000 9.200 2.000
-9.600 10.000 0.200
-9.600 10.000 1.200
-9.600 10.000 2.000
-10.000 6.200 0.200
-10.000 6.200 1.200
-10.000 6.200 2.000
-10.000 9.400 0.200
-10.000 9.400 1.200
-10.000 9.400 2.000
-10.000 2.600 0.200
-10.000 2.600 1.200
-10.000 2.600 2.000
-10.000 9.600 0.200
-10.000 9.600 1.200
-10.000 9.600 2.000
-9.800 10.000 0.200
-9.800 10.000 1.200
-9.800 10.000 2.000
-10.000 2.400 0.200
-10.000 2.400 1.200
-10.000 2.400 2.000
-10.000 9.800 0.200
-10.000 9.800 1.200
-10.000 9.800 2.000
-10.000 2.200 0.200
-10.000 2.200 1.200
-10.000 2.200 2.000
-10.000 10.000 0.200
-10.000 10.000 1.200
-10.000 10.000 2.000
-10.000 2.000 0.200
-10.000 2.000 1.200
-10.000 2.000 2.000
-10.000 1.800 0.200
-10.000 1.800 1.200
-10.000 1.800 2.000
-10.000 1.600 0.200
-10.000 1.600 1.200
-10.000 1.600 2.000
-10.000 1.400 0.200
-10.000 1.400 1.200
-10.000 1.400 2.000
-10.000 1.200 0.200
-10.000 1.200 1.200
-10.000 1.200 2.000
-10.000 1.000 0.200
-10.000 1.000 1.200
-10.000 1.000 2.000
-10.000 0.800 0.200
-10.000 0.800 1.200
-10.000 0.800 2.000
-10.000 0.600 0.200
-10.000 0.600 1.200
-10.000 0.600 2.000
-10.000 0.400 0.200
-10.000 0.400 1.200
-10.000 0.400 2.000
-10.000 0.200 0.200
-10.000 0.200 1.200
-10.000 0.200 2.000
-10.000 0.000 0.200
-10.000 0.000 1.200
-10.000 0.000 2.000
-10.000 -0.200 0.200
-10.000 -0.200 1.200
-10.000 -0.200 2.000
-10.000 -0.400 0.200
-10.000 -0.400 1.200
-10.000 -0.400 2.000
-10.000 -0.600 0.200
-10.000 -0.600 1.200
-10.000 -0.600 2.000
-10.000 -0.800 0.200
-10.000 -0.800 1.200
-10.000 -0.800 2.000
-10.000 -1.000 0.200
-10.000 -1.000 1.200
-10.000 -1.000 2.000
-10.000 -1.200 0.200
-10.000 -1.200 1.200
-10.000 -1.200 2.000
-10.000 -1.400 0.200
-10.000 -1.400 1.200
-10.000 -1.400 2.000
-10.000 -1.600 0.200
-10.000 -1.600 1.200
-10.000 -1.600 2.000
-10.000 -1.800 0.200
-10.000 -1.800 1.200
-10.000 -1.800 2.000
-10.000 -2.000 0.200
-10.000 -2.000 1.200
-10.000 -2.000 2.000
-10.000 -2.200 0.200
-10.000 -2.200 1.200
-10.000 -2.200 2.000
-10.000 -2.400 0.200
-10.000 -2.400 1.200
-10.000 -2.400 2.000
-10.000 -2.600 0.200
-10.000 -2.600 1.200
-10.000 -2.600 2.000
-10.000 -2.800 0.200
-10.000 -2.800 1.200
-10.000 -2.800 2.000
-10.000 -3.000 0.200
-10.000 -3.000 1.200
-10.000 -3.000 2.000
-10.000 -3.200 0.200
-10.000 -3.200 1.200
-10.000 -3.200 2.000
-10.000 -3.400 0.200
-10.000 -3.400 1.200
-10.000 -3.400 2.000
-10.000 -3.600 0.200
-10.000 -3.600 1.200
-10.000 -3.600 2.000
-10.000 -3.800 0.200
-10.000 -3.800 1.200
-10.000 -3.800 2.000
-5.935 -5.899 0.200
-5.935 -5.899 0.800
-5.935 -5.899 1.400
-5.935 -5.899 2.000
-5.992 -5.880 0.200
-5.992 -5.880 0.800
-5.992 -5.880 1.400
-5.992 -5.880 2.000
-10.000 -4.000 0.200
-10.000 -4.000 1.200
-10.000 -4.000 2.000
-5.880 -6.000 0.200
-5.880 -6.000 0.800
-5.880 -6.000 1.400
-5.880 -6.000 2.000
-6.096 -5.928 0.200
-6.096 -5.928 0.800
-6.096 -5.928 1.400
-6.096 -5.928 2.000
-6.119 -5.983 0.200
-6.119 -5.983 0.800
-6.119 -5.983 1.400
-6.119 -5.983 2.000
-5.915 -6.085 0.200
-5.915 -6.085 0.800
-5.915 -6.085 1.400
-5.915 -6.085 2.000
-6.078 -6.091 0.200
-6.078 -6.091 0.800
-6.078 -6.091 1.400
-6.078 -6.091 2.000
-6.025 -6.117 0.200
-6.025 -6.117 0.800
-6.025 -6.117 1.400
-6.025 -6.117 2.000
-10.000 -4.200 0.200
-10.000 -4.200 1.200
-10.000 -4.200 2.000
-10.000 -4.400 0.200
-10.000 -4.400 1.200
-10.000 -4.400 2.000
-10.000 -4.600 0.200
-10.000 -4.600 1.200
-10.000 -4.600 2.000
2.000 -3.750 0.200
2.000 -3.750 0.500
2.000 -3.750 0.800
-10.000 -4.800 0.200
-10.000 -4.800 1.200
-10.000 -4.800 2.000
2.000 -4.000 0.200
2.000 -4.000 0.500
2.000 -4.000 0.800
-10.000 -5.000 0.200
-10.000 -5.000 1.200
-10.000 -5.000 2.000
-10.000 -5.200 0.200
-10.000 -5.200 1.200
-10.000 -5.200 2.000
-10.000 -5.400 0.200
-10.000 -5.400 1.200
-10.000 -5.400 2.000
-10.000 -5.600 0.200
-10.000 -5.600 1.200
-10.000 -5.600 2.000
-10.000 -5.800 0.200
-10.000 -5.800 1.200
-10.000 -5.800 2.000
-10.000 -6.000 0.200
-10.000 -6.000 1.200
-10.000 -6.000 2.000
-10.000 -6.200 0.200
-10.000 -6.200 1.200
-10.000 -6.200 2.000
-10.000 -6.400 0.200
-10.000 -6.400 1.200
-10.000 -6.400 2.000
-10.000 -6.600 0.200
-10.000 -6.600 1.200
-10.000 -6.600 2.000
-10.000 -6.800 0.200
-10.000 -6.800 1.200
-10.000 -6.800 2.000
-4.400 -10.000 0.200
-4.400 -10.000 1.200
-4.400 -10.000 2.000
-4.200 -10.000 0.200
-4.200 -10.000 1.200
-4.200 -10.000 2.000
-4.000 -10.000 0.200
-4.000 -10.000 1.200
-4.000 -10.000 2.000
-3.800 -10.000 0.200
-3.800 -10.000 1.200
-3.800 -10.000 2.000
-3.600 -10.000 0.200
-3.600 -10.000 1.200
-3.600 -10.000 2.000
-3.400 -10.000 0.200
-3.400 -10.000 1.200
-3.400 -10.000 2.000
-3.200 -10.000 0.200
-3.200 -10.000 1.200
-3.200 -10.000 2.000
-3.000 -10.000 0.200
-3.000 -10.000 1.200
-3.000 -10.000 2.000
-4.800 -10.000 0.200
-4.800 -10.000 1.200
-4.800 -10.000 2.000
-4.600 -10.000 0.200
-4.600 -10.000 1.200
-4.600 -10.000 2.000
-2.800 -10.000 0.200
-2.800 -10.000 1.200
-2.800 -10.000 2.000
-2.600 -10.000 0.200
-2.600 -10.000 1.200
-2.600 -10.000 2.000
-10.000 -7.000 0.200
-10.000 -7.000 1.200
-10.000 -7.000 2.000
-5.000 -10.000 0.200
-5.000 -10.000 1.200
-5.000 -10.000 2.000
-2.400 -10.000 0.200
-2.400 -10.000 1.200
-2.400 -10.000 2.000
-2.200 -10.000 0.200
-2.200 -10.000 1.200
-2.200 -10.000 2.000
-5.200 -10.000 0.200
-5.200 -10.000 1.200
-5.200 -10.000 2.000
-2.000 -10.000 0.200
-2.000 -10.000 1.200
-2.000 -10.000 2.000
-5.400 -10.000 0.200
-5.400 -10.000 1.200
-5.400 -10.000 2.000
-1.800 -10.000 0.200
-1.800 -10.000 1.200
-1.800 -10.000 2.000
-5.600 -10.000 0.200
-5.600 -10.000 1.200
-5.600 -10.000 2.000
-1.600 -10.000 0.200
-1.600 -10.000 1.200
-1.600 -10.000 2.000
-5.800 -10.000 0.200
-5.800 -10.000 1.200
-5.800 -10.000 2.000
-1.400 -10.000 0.200
-1.400 -10.000 1.200
-1.400 -10.000 2.000
-6.000 -10.000 0.200
-6.000 -10.000 1.200
-6.000 -10.000 2.000
-1.200 -10.000 0.200
-1.200 -10.000 1.200
-1.200 -10.000 2.000
-10.000 -7.200 0.200
-10.000 -7.200 1.200
-10.000 -7.200 2.000
-6.200 -10.000 0.200
-6.200 -10.000 1.200
-6.200 -10.000 2.000
-1.000 -10.000 0.200
-1.000 -10.000 1.200
-1.000 -10.000 2.000
-6.400 -10.000 0.200
-6.400 -10.000 1.200
-6.400 -10.000 2.000
-0.800 -10.000 0.200
-0.800 -10.000 1.200
-0.800 -10.000 2.000
-0.600 -10.000 0.200
-0.600 -10.000 1.200
-0.600 -10.000 2.000
-6.600 -10.000 0.200
-6.600 -10.000 1.200
-6.600 -10.000 2.000
-0.400 -10.000 0.200
-0.400 -10.000 1.200
-0.400 -10.000 2.000
-10.000 -7.400 0.200
-10.000 -7.400 1.200
-10.000 -7.400 2.000
-6.800 -10.000 0.200
-6.800 -10.000 1.200
-6.800 -10.000 2.000
-0.200 -10.000 0.200
-0.200 -10.000 1.200
-0.200 -10.000 2.000
-7.000 -10.000 0.200
-7.000 -10.000 1.200
-7.000 -10.000 2.000
0.000 -10.000 0.200
0.000 -10.000 1.200
0.000 -10.000 2.000
0.200 -10.000 0.200
0.200 -10.000 1.200
0.200 -10.000 2.000
-7.200 -10.000 0.200
-7.200 -10.000 1.200
-7.200 -10.000 2.000
-10.000 -7.600 0.200
-10.000 -7.600 1.200
-10.000 -7.600 2.000
0.400 -10.000 0.200
0.400 -10.000 1.200
0.400 -10.000 2.000
-7.400 -10.000 0.200
-7.400 -10.000 1.200
-7.400 -10.000 2.000
0.600 -10.000 0.200
0.600 -10.000 1.200
0.600 -10.000 2.000
-7.600 -10.000 0.200
-7.600 -10.000 1.200
-7.600 -10.000 2.000
0.800 -10.000 0.200
0.800 -10.000 1.200
0.800 -10.000 2.000
-10.000 -7.800 0.200
-10.000 -7.800 1.200
-10.000 -7.800 2.000
-7.800 -10.000 0.200
-7.800 -10.000 1.200
-7.800 -10.000 2.000
1.000 -10.000 0.200
1.000 -10.000 1.200
1.000 -10.000 2.000
-8.000 -10.000 0.200
-8.000 -10.000 1.200
-8.000 -10.000 2.000
-10.000 -8.000 0.200
-10.000 -8.000 1.200
-10.000 -8.000 2.000
1.200 -10.000 0.200
1.200 -10.000 1.200
1.200 -10.000 2.000
-10.000 -8.200 0.200
-8.200 -10.000 0.200
-10.000 -8.200 1.200
-8.200 -10.000 1.200
-10.000 -8.200 2.000
-8.200 -10.000 2.000
-8.400 -10.000 0.200
-8.400 -10.000 1.200
-8.400 -10.000 2.000
-10.000 -8.400 0.200
-10.000 -8.400 1.200
-10.000 -8.400 2.000
1.400 -10.000 0.200
1.400 -10.000 1.200
1.400 -10.000 2.000
-8.600 -10.000 0.200
-8.600 -10.000 1.200
-8.600 -10.000 2.000
-10.000 -8.600 0.200
-10.000 -8.600 1.200
-10.000 -8.600 2.000
-8.800 -10.000 0.200
-8.800 -10.000 1.200
-8.800 -10.000 2.000
-10.000 -8.800 0.200
-10.000 -8.800 1.200
-10.000 -8.800 2.000
1.600 -10.000 0.200
1.600 -10.000 1.200
1.600 -10.000 2.000
2.250 -4.000 0.200
2.250 -4.000 0.500
2.250 -4.000 0.800
2.500 -4.000 0.200
2.500 -4.000 0.500
2.500 -4.000 0.800
2.750 -4.000 0.200
2.750 -4.000 0.500
2.750 -4.000 0.800
3.000 -4.000 0.200
3.000 -4.000 0.500
3.000 -4.000 0.800
3.250 -4.000 0.200
3.250 -4.000 0.500
3.250 -4.000 0.800
3.500 -4.000 0.200
3.500 -4.000 0.500
3.500 -4.000 0.800
3.750 -4.000 0.200
3.750 -4.000 0.500
3.750 -4.000 0.800
-9.000 -10.000 0.200
-9.000 -10.000 1.200
-9.000 -10.000 2.000
1.800 -10.000 0.200
1.800 -10.000 1.200
1.800 -10.000 2.000
-9.200 -10.000 0.200
-9.200 -10.000 1.200
-9.200 -10.000 2.000
-9.400 -10.000 0.200
-9.400 -10.000 1.200
-9.400 -10.000 2.000
-10.000 -9.200 0.200
-10.000 -9.200 1.200
-10.000 -9.200 2.000
2.000 -10.000 0.200
2.000 -10.000 1.200
2.000 -10.000 2.000
-10.000 -9.400 0.200
-10.000 -9.400 1.200
-10.000 -9.400 2.000
-10.000 -9.000 0.200
-10.000 -9.000 1.200
-10.000 -9.000 2.000
-9.600 -10.000 0.200
-9.600 -10.000 1.200
-9.600 -10.000 2.000
-10.000 -9.600 0.200
-10.000 -9.600 1.200
-10.000 -9.600 2.000
2.250 -4.000 0.200
2.250 -4.000 0.500
2.250 -4.000 0.800
3.250 -4.000 0.200
3.250 -4.000 0.500
3.250 -4.000 0.800
3.750 -4.000 0.200
3.750 -4.000 0.500
3.750 -4.000 0.800
2.200 -10.000 0.200
2.200 -10.000 1.200
2.200 -10.000 2.000
2.750 -4.000 0.200
2.750 -4.000 0.500
2.750 -4.000 0.800
-9.800 -10.000 0.200
-9.800 -10.000 1.200
-9.800 -10.000 2.000
-10.000 -9.800 0.200
-10.000 -9.800 1.200
-10.000 -9.800 2.000
-10.000 -10.000 0.200
-10.000 -10.000 1.200
-10.000 -10.000 2.000
2.400 -10.000 0.200
2.400 -10.000 1.200
2.400 -10.000 2.000
2.600 -10.000 0.200
2.600 -10.000 1.200
2.600 -10.000 2.000
2.800 -10.000 0.200
2.800 -10.000 1.200
2.800 -10.000 2.000
3.000 -10.000 0.200
3.000 -10.000 1.200
3.000 -10.000 2.000
3.200 -10.000 0.200
3.200 -10.000 1.200
3.200 -10.000 2.000
3.400 -10.000 0.200
3.400 -10.000 1.200
3.400 -10.000 2.000
3.600 -10.000 0.200
3.600 -10.000 1.200
3.600 -10.000 2.000
3.800 -10.000 0.200
3.800 -10.000 1.200
3.800 -10.000 2.000
4.000 -10.000 0.200
4.000 -10.000 1.200
4.000 -10.000 2.000
4.200 -10.000 0.200
4.200 -10.000 1.200
4.200 -10.000 2.000
4.400 -10.000 0.200
4.400 -10.000 1.200
4.400 -10.000 2.000
4.600 -10.000 0.200
4.600 -10.000 1.200
4.600 -10.000 2.000
4.800 -10.000 0.200
4.800 -10.000 1.200
4.800 -10.000 2.000
5.000 -10.000 0.200
5.000 -10.000 1.200
5.000 -10.000 2.000
5.881 -5.983 0.200
5.881 -5.983 0.800
5.881 -5.983 1.400
5.881 -5.983 2.000
5.904 -5.928 0.200
5.904 -5.928 0.800
5.904 -5.928 1.400
5.904 -5.928 2.000
5.922 -6.091 0.200
5.922 -6.091 0.800
5.922 -6.091 1.400
5.922 -6.091 2.000
5.200 -10.000 0.200
5.200 -10.000 1.200
5.200 -10.000 2.000
5.950 -5.891 0.200
5.950 -5.891 0.800
5.950 -5.891 1.400
5.950 -5.891 2.000
5.975 -6.117 0.200
5.975 -6.117 0.800
5.975 -6.117 1.400
5.975 -6.117 2.000
6.065 -5.899 0.200
6.065 -5.899 0.800
6.065 -5.899 1.400
6.065 -5.899 2.000
6.085 -6.085 0.200
6.085 -6.085 0.800
6.085 -6.085 1.400
6.085 -6.085 2.000
6.120 -6.000 0.200
6.120 -6.000 0.800
6.120 -6.000 1.400
6.120 -6.000 2.000
5.400 -10.000 0.200
5.400 -10.000 1.200
5.400 -10.000 2.000
5.600 -10.000 0.200
5.600 -10.000 1.200
5.600 -10.000 2.000
5.800 -10.000 0.200
5.800 -10.000 1.200
5.800 -10.000 2.000
6.000 -10.000 0.200
6.000 -10.000 1.200
6.000 -10.000 2.000
6.200 -10.000 0.200
6.200 -10.000 1.200
6.200 -10.000 2.000
6.400 -10.000 0.200
6.400 -10.000 1.200
6.400 -10.000 2.000
6.600 -10.000 0.200
6.600 -10.000 1.200
6.600 -10.000 2.000
6.800 -10.000 0.200
6.800 -10.000 1.200
6.800 -10.000 2.000
7.000 -10.000 0.200
7.000 -10.000 1.200
7.000 -10.000 2.000
7.200 -10.000 0.200
7.200 -10.000 1.200
7.200 -10.000 2.000
7.400 -10.000 0.200
7.400 -10.000 1.200
7.400 -10.000 2.000
7.600 -10.000 0.200
7.600 -10.000 1.200
7.600 -10.000 2.000
7.800 -10.000 0.200
7.800 -10.000 1.200
7.800 -10.000 2.000
8.000 -10.000 0.200
8.000 -10.000 1.200
8.000 -10.000 2.000
8.200 -10.000 0.200
8.200 -10.000 1.200
8.200 -10.000 2.000
8.400 -10.000 0.200
8.400 -10.000 1.200
8.400 -10.000 2.000
8.600 -10.000 0.200
8.600 -10.000 1.200
8.600 -10.000 2.000
8.800 -10.000 0.200
8.800 -10.000 1.200
8.800 -10.000 2.000
9.000 -10.000 0.200
9.000 -10.000 1.200
9.000 -10.000 2.000
9.200 -10.000 0.200
9.200 -10.000 1.200
9.200 -10.000 2.000
10.000 -7.000 0.200
10.000 -7.000 1.200
10.000 -7.000 2.000
10.000 -6.800 0.200
10.000 -6.800 1.200
10.000 -6.800 2.000
10.000 -6.600 0.200
10.000 -6.600 1.200
10.000 -6.600 2.000
10.000 -6.400 0.200
10.000 -6.400 1.200
10.000 -6.400 2.000
10.000 -7.400 0.200
10.000 -7.400 1.200
10.000 -7.400 2.000
10.000 -7.200 0.200
10.000 -7.200 1.200
10.000 -7.200 2.000
10.000 -6.200 0.200
10.000 -6.200 1.200
10.000 -6.200 2.000
10.000 -6.000 0.200
10.000 -6.000 1.200
10.000 -6.000 2.000
10.000 -7.800 0.200
10.000 -7.800 1.200
10.000 -7.800 2.000
10.000 -7.600 0.200
10.000 -7.600 1.200
10.000 -7.600 2.000
10.000 -5.800 0.200
10.000 -5.800 1.200
10.000 -5.800 2.000
10.000 -5.600 0.200
10.000 -5.600 1.200
10.000 -5.600 2.000
10.000 -8.000 0.200
10.000 -8.000 1.200
10.000 -8.000 2.000
10.000 -5.000 0.200
10.000 -5.000 1.200
10.000 -5.000 2.000
9.400 -10.000 0.200
9.400 -10.000 1.200
9.400 -10.000 2.000
10.000 -8.200 0.200
10.000 -8.200 1.200
10.000 -8.200 2.000
10.000 -4.800 0.200
10.000 -4.800 1.200
10.000 -4.800 2.000
10.000 -8.400 0.200
10.000 -8.400 1.200
10.000 -8.400 2.000
10.000 -4.600 0.200
10.000 -4.600 1.200
10.000 -4.600 2.000
10.000 -5.200 0.200
10.000 -5.200 1.200
10.000 -5.200 2.000
10.000 -4.400 0.200
10.000 -4.400 1.200
10.000 -4.400 2.000
10.000 -8.600 0.200
10.000 -8.600 1.200
10.000 -8.600 2.000
10.000 -4.200 0.200
10.000 -4.200 1.200
10.000 -4.200 2.000
10.000 -8.800 0.200
10.000 -8.800 1.200
10.000 -8.800 2.000
10.000 -4.000 0.200
10.000 -4.000 1.200
10.000 -4.000 2.000
10.000 -9.000 0.200
10.000 -9.000 1.200
10.000 -9.000 2.000
9.600 -10.000 0.200
9.600 -10.000 1.200
9.600 -10.000 2.000
10.000 -5.400 0.200
10.000 -5.400 1.200
10.000 -5.400 2.000
10.000 -9.200 0.200
10.000 -9.200 1.200
10.000 -9.200 2.000
10.000 -9.400 0.200
10.000 -9.400 1.200
10.000 -9.400 2.000
9.800 -10.000 0.200
9.800 -10.000 1.200
9.800 -10.000 2.000
10.000 -9.600 0.200
10.000 -9.600 1.200
10.000 -9.600 2.000
10.000 -9.800 0.200
10.000 -9.800 1.200
10.000 -9.800 2.000
10.000 -10.000 0.200
10.000 -10.000 1.200
10.000 -10.000 2.000
