# .PCD v0.7 - mock_mapper
VERSION 0.7
FIELDS x y z
SIZE 4 4 4
TYPE F F F
COUNT 1 1 1
WIDTH 3417
HEIGHT 1
VIEWPOINT 0 0 0 1 0 0 0
POINTS 3417
DATA ascii
-10.000 -10.000 0.200
-10.000 -10.000 1.200
-10.000 -10.000 2.000
-10.000 -9.800 0.200
-9.800 -10.000 0.200
-10.000 -9.800 1.200
-9.800 -10.000 1.200
-10.000 -9.800 2.000
-9.800 -10.000 2.000
-10.000 -9.600 0.200
-9.600 -10.000 0.200
-10.000 -9.600 1.200
-9.600 -10.000 1.200
-10.000 -9.600 2.000
-9.600 -10.000 2.000
-10.000 -9.400 0.200
-9.400 -10.000 0.200
-10.000 -9.400 1.200
-9.400 -10.000 1.200
-10.000 -9.400 2.000
-9.400 -10.000 2.000
-10.000 -9.200 0.200
-9.200 -10.000 0.200
-10.000 -9.200 1.200
-9.200 -10.000 1.200
-10.000 -9.200 2.000
-9.200 -10.000 2.000
-10.000 -9.000 0.200
-9.000 -10.000 0.200
-10.000 -9.000 1.200
-9.000 -10.000 1.200
-10.000 -9.000 2.000
-9.000 -10.000 2.000
-10.000 -8.800 0.200
-8.800 -10.000 0.200
-10.000 -8.800 1.200
-8.800 -10.000 1.200
-10.000 -8.800 2.000
-8.800 -10.000 2.000
-10.000 -8.600 0.200
-8.600 -10.000 0.200
-10.000 -8.600 1.200
-8.600 -10.000 1.200
-10.000 -8.600 2.000
-8.600 -10.000 2.000
-10.000 -8.400 0.200
-8.400 -10.000 0.200
-10.000 -8.400 1.200
-8.400 -10.000 1.200
-10.000 -8.400 2.000
-8.400 -10.000 2.000
-10.000 -8.200 0.200
-8.200 -10.000 0.200
-10.000 -8.200 1.200
-8.200 -10.000 1.200
-10.000 -8.200 2.000
-8.200 -10.000 2.000
-10.000 -8.000 0.200
-8.000 -10.000 0.200
-10.000 -8.000 1.200
-8.000 -10.000 1.200
-10.000 -8.000 2.000
-8.000 -10.000 2.000
-10.000 -7.800 0.200
-7.800 -10.000 0.200
-10.000 -7.800 1.200
-7.800 -10.000 1.200
-10.000 -7.800 2.000
-7.800 -10.000 2.000
-10.000 -7.600 0.200
-7.600 -10.000 0.200
-10.000 -7.600 1.200
-7.600 -10.000 1.200
-10.000 -7.600 2.000
-7.600 -10.000 2.000
-10.000 -7.400 0.200
-7.400 -10.000 0.200
-10.000 -7.400 1.200
-7.400 -10.000 1.200
-10.000 -7.400 2.000
-7.400 -10.000 2.000
-10.000 -7.200 0.200
-7.200 -10.000 0.200
-10.000 -7.200 1.200
-7.200 -10.000 1.200
-10.000 -7.200 2.000
-7.200 -10.000 2.000
-10.000 -7.000 0.200
-7.000 -10.000 0.200
-10.000 -7.000 1.200
-7.000 -10.000 1.200
-10.000 -7.000 2.000
-7.000 -10.000 2.000
-10.000 -6.800 0.200
-6.800 -10.000 0.200
-10.000 -6.800 1.200
-6.800 -10.000 1.200
-10.000 -6.800 2.000
-6.800 -10.000 2.000
-10.000 -6.600 0.200
-6.600 -10.000 0.200
-10.000 -6.600 1.200
-6.600 -10.000 1.200
-10.000 -6.600 2.000
-6.600 -10.000 2.000
-10.000 -6.400 0.200
-6.400 -10.000 0.200
-10.000 -6.400 1.200
-6.400 -10.000 1.200
-10.000 -6.400 2.000
-6.400 -10.000 2.000
-10.000 -6.200 0.200
-6.200 -10.000 0.200
-10.000 -6.200 1.200
-6.200 -10.000 1.200
-10.000 -6.200 2.000
-6.200 -10.000 2.000
-10.000 -6.000 0.200
-6.000 -10.000 0.200
-10.000 -6.000 1.200
-6.000 -10.000 1.200
-10.000 -6.000 2.000
-6.000 -10.000 2.000
-10.000 -5.800 0.200
-5.800 -10.000 0.200
-10.000 -5.800 1.200
-5.800 -10.000 1.200
-10.000 -5.800 2.000
-5.800 -10.000 2.000
-10.000 -5.600 0.200
-5.600 -10.000 0.200
-10.000 -5.600 1.200
-5.600 -10.000 1.200
-10.000 -5.600 2.000
-5.600 -10.000 2.000
-10.000 -5.400 0.200
-5.400 -10.000 0.200
-10.000 -5.400 1.200
-5.400 -10.000 1.200
-10.000 -5.400 2.000
-5.400 -10.000 2.000
-10.000 -5.200 0.200
-5.200 -10.000 0.200
-10.000 -5.200 1.200
-5.200 -10.000 1.200
-10.000 -5.200 2.000
-5.200 -10.000 2.000
-10.000 -5.000 0.200
-5.000 -10.000 0.200
-10.000 -5.000 1.200
-5.000 -10.000 1.200
-10.000 -5.000 2.000
-5.000 -10.000 2.000
-10.000 -4.800 0.200
-4.800 -10.000 0.200
-10.000 -4.800 1.200
-4.800 -10.000 1.200
-10.000 -4.800 2.000
-4.800 -10.000 2.000
-10.000 -4.600 0.200
-4.600 -10.000 0.200
-10.000 -4.600 1.200
-4.600 -10.000 1.200
-10.000 -4.600 2.000
-4.600 -10.000 2.000
-10.000 -4.400 0.200
-4.400 -10.000 0.200
-10.000 -4.400 1.200
-4.400 -10.000 1.200
-10.000 -4.400 2.000
-4.400 -10.000 2.000
-10.000 -4.200 0.200
-4.200 -10.000 0.200
-10.000 -4.200 1.200
-4.200 -10.000 1.200
-10.000 -4.200 2.000
-4.200 -10.000 2.000
-10.000 -4.000 0.200
-4.000 -10.000 0.200
-10.000 -4.000 1.200
-4.000 -10.000 1.200
-10.000 -4.000 2.000
-4.000 -10.000 2.000
-10.000 -3.800 0.200
-3.800 -10.000 0.200
-10.000 -3.800 1.200
-3.800 -10.000 1.200
-10.000 -3.800 2.000
-3.800 -10.000 2.000
-10.000 -3.600 0.200
-3.600 -10.000 0.200
-10.000 -3.600 1.200
-3.600 -10.000 1.200
-10.000 -3.600 2.000
-3.600 -10.000 2.000
-10.000 -3.400 0.200
-3.400 -10.000 0.200
-10.000 -3.400 1.200
-3.400 -10.000 1.200
-10.000 -3.400 2.000
-3.400 -10.000 2.000
-10.000 -3.200 0.200
-3.200 -10.000 0.200
-10.000 -3.200 1.200
-3.200 -10.000 1.200
-10.000 -3.200 2.000
-3.200 -10.000 2.000
-10.000 -3.000 0.200
-3.000 -10.000 0.200
-10.000 -3.000 1.200
-3.000 -10.000 1.200
-10.000 -3.000 2.000
-3.000 -10.000 2.000
-10.000 -2.800 0.200
-2.800 -10.000 0.200
-10.000 -2.800 1.200
-2.800 -10.000 1.200
-10.000 -2.800 2.000
-2.800 -10.000 2.000
-10.000 -2.600 0.200
-2.600 -10.000 0.200
-10.000 -2.600 1.200
-2.600 -10.000 1.200
-10.000 -2.600 2.000
-2.600 -10.000 2.000
-10.000 -2.400 0.200
-2.400 -10.000 0.200
-10.000 -2.400 1.200
-2.400 -10.000 1.200
-10.000 -2.400 2.000
-2.400 -10.000 2.000
-10.000 -2.200 0.200
-2.200 -10.000 0.200
-10.000 -2.200 1.200
-2.200 -10.000 1.200
-10.000 -2.200 2.000
-2.200 -10.000 2.000
-10.000 -2.000 0.200
-2.000 -10.000 0.200
-10.000 -2.000 1.200
-2.000 -10.000 1.200
-10.000 -2.000 2.000
-2.000 -10.000 2.000
-10.000 -1.800 0.200
-1.800 -10.000 0.200
-10.000 -1.800 1.200
-1.800 -10.000 1.200
-10.000 -1.800 2.000
-1.800 -10.000 2.000
-10.000 -1.600 0.200
-1.600 -10.000 0.200
-10.000 -1.600 1.200
-1.600 -10.000 1.200
-10.000 -1.600 2.000
-1.600 -10.000 2.000
-10.000 -1.400 0.200
-1.400 -10.000 0.200
-10.000 -1.400 1.200
-1.400 -10.000 1.200
-10.000 -1.400 2.000
-1.400 -10.000 2.000
-10.000 -1.200 0.200
-1.200 -10.000 0.200
-10.000 -1.200 1.200
-1.200 -10.000 1.200
-10.000 -1.200 2.000
-1.200 -10.000 2.000
-10.000 -1.000 0.200
-1.000 -10.000 0.200
-10.000 -1.000 1.200
-1.000 -10.000 1.200
-10.000 -1.000 2.000
-1.000 -10.000 2.000
-10.000 -0.800 0.200
-0.800 -10.000 0.200
-10.000 -0.800 1.200
-0.800 -10.000 1.200
-10.000 -0.800 2.000
-0.800 -10.000 2.000
-10.000 -0.600 0.200
-0.600 -10.000 0.200
-10.000 -0.600 1.200
-0.600 -10.000 1.200
-10.000 -0.600 2.000
-0.600 -10.000 2.000
-10.000 -0.400 0.200
-0.400 -10.000 0.200
-10.000 -0.400 1.200
-0.400 -10.000 1.200
-10.000 -0.400 2.000
-0.400 -10.000 2.000
-10.000 -0.200 0.200
-0.200 -10.000 0.200
-10.000 -0.200 1.200
-0.200 -10.000 1.200
-10.000 -0.200 2.000
-0.200 -10.000 2.000
-10.000 0.000 0.200
0.000 -10.000 0.200
-10.000 0.000 1.200
0.000 -10.000 1.200
-10.000 0.000 2.000
0.000 -10.000 2.000
-10.000 0.200 0.200
0.200 -10.000 0.200
-10.000 0.200 1.200
0.200 -10.000 1.200
-10.000 0.200 2.000
0.200 -10.000 2.000
-10.000 0.400 0.200
0.400 -10.000 0.200
-10.000 0.400 1.200
0.400 -10.000 1.200
-10.000 0.400 2.000
0.400 -10.000 2.000
-10.000 0.600 0.200
0.600 -10.000 0.200
-10.000 0.600 1.200
0.600 -10.000 1.200
-10.000 0.600 2.000
0.600 -10.000 2.000
-10.000 0.800 0.200
0.800 -10.000 0.200
-10.000 0.800 1.200
0.800 -10.000 1.200
-10.000 0.800 2.000
0.800 -10.000 2.000
-10.000 1.000 0.200
1.000 -10.000 0.200
-10.000 1.000 1.200
1.000 -10.000 1.200
-10.000 1.000 2.000
1.000 -10.000 2.000
-10.000 1.200 0.200
1.200 -10.000 0.200
-10.000 1.200 1.200
1.200 -10.000 1.200
-10.000 1.200 2.000
1.200 -10.000 2.000
-10.000 1.400 0.200
1.400 -10.000 0.200
-10.000 1.400 1.200
1.400 -10.000 1.200
-10.000 1.400 2.000
1.400 -10.000 2.000
-10.000 1.600 0.200
1.600 -10.000 0.200
-10.000 1.600 1.200
1.600 -10.000 1.200
-10.000 1.600 2.000
1.600 -10.000 2.000
-10.000 1.800 0.200
1.800 -10.000 0.200
-10.000 1.800 1.200
1.800 -10.000 1.200
-10.000 1.800 2.000
1.800 -10.000 2.000
-10.000 2.000 0.200
2.000 -10.000 0.200
-10.000 2.000 1.200
2.000 -10.000 1.200
-10.000 2.000 2.000
2.000 -10.000 2.000
-10.000 2.200 0.200
2.200 -10.000 0.200
-10.000 2.200 1.200
2.200 -10.000 1.200
-10.000 2.200 2.000
2.200 -10.000 2.000
-10.000 2.400 0.200
2.400 -10.000 0.200
-10.000 2.400 1.200
2.400 -10.000 1.200
-10.000 2.400 2.000
2.400 -10.000 2.000
-10.000 2.600 0.200
2.600 -10.000 0.200
-10.000 2.600 1.200
2.600 -10.000 1.200
-10.000 2.600 2.000
2.600 -10.000 2.000
-10.000 2.800 0.200
2.800 -10.000 0.200
-10.000 2.800 1.200
2.800 -10.000 1.200
-10.000 2.800 2.000
2.800 -10.000 2.000
-10.000 3.000 0.200
3.000 -10.000 0.200
-10.000 3.000 1.200
3.000 -10.000 1.200
-10.000 3.000 2.000
3.000 -10.000 2.000
-10.000 3.200 0.200
3.200 -10.000 0.200
-10.000 3.200 1.200
3.200 -10.000 1.200
-10.000 3.200 2.000
3.200 -10.000 2.000
-10.000 3.400 0.200
3.400 -10.000 0.200
-10.000 3.400 1.200
3.400 -10.000 1.200
-10.000 3.400 2.000
3.400 -10.000 2.000
-10.000 3.600 0.200
3.600 -10.000 0.200
-10.000 3.600 1.200
3.600 -10.000 1.200
-10.000 3.600 2.000
3.600 -10.000 2.000
-10.000 3.800 0.200
3.800 -10.000 0.200
-10.000 3.800 1.200
3.800 -10.000 1.200
-10.000 3.800 2.000
3.800 -10.000 2.000
-10.000 4.000 0.200
4.000 -10.000 0.200
-10.000 4.000 1.200
4.000 -10.000 1.200
-10.000 4.000 2.000
4.000 -10.000 2.000
-10.000 4.200 0.200
4.200 -10.000 0.200
-10.000 4.200 1.200
4.200 -10.000 1.200
-10.000 4.200 2.000
4.200 -10.000 2.000
-10.000 4.400 0.200
4.400 -10.000 0.200
-10.000 4.400 1.200
4.400 -10.000 1.200
-10.000 4.400 2.000
4.400 -10.000 2.000
-10.000 4.600 0.200
4.600 -10.000 0.200
-10.000 4.600 1.200
4.600 -10.000 1.200
-10.000 4.600 2.000
4.600 -10.000 2.000
-10.000 4.800 0.200
4.800 -10.000 0.200
-10.000 4.800 1.200
4.800 -10.000 1.200
-10.000 4.800 2.000
4.800 -10.000 2.000
-10.000 5.000 0.200
5.000 -10.000 0.200
-10.000 5.000 1.200
5.000 -10.000 1.200
-10.000 5.000 2.000
5.000 -10.000 2.000
-10.000 5.200 0.200
5.200 -10.000 0.200
-10.000 5.200 1.200
5.200 -10.000 1.200
-10.000 5.200 2.000
5.200 -10.000 2.000
-10.000 5.400 0.200
5.400 -10.000 0.200
-10.000 5.400 1.200
5.400 -10.000 1.200
-10.000 5.400 2.000
5.400 -10.000 2.000
-10.000 5.600 0.200
5.600 -10.000 0.200
-10.000 5.600 1.200
5.600 -10.000 1.200
-10.000 5.600 2.000
5.600 -10.000 2.000
-10.000 5.800 0.200
5.800 -10.000 0.200
-10.000 5.800 1.200
5.800 -10.000 1.200
-10.000 5.800 2.000
5.800 -10.000 2.000
-10.000 6.000 0.200
6.000 -10.000 0.200
-10.000 6.000 1.200
6.000 -10.000 1.200
-10.000 6.000 2.000
6.000 -10.000 2.000
-10.000 6.200 0.200
6.200 -10.000 0.200
-10.000 6.200 1.200
6.200 -10.000 1.200
-10.000 6.200 2.000
6.200 -10.000 2.000
-10.000 6.400 0.200
6.400 -10.000 0.200
-10.000 6.400 1.200
6.400 -10.000 1.200
-10.000 6.400 2.000
6.400 -10.000 2.000
-10.000 6.600 0.200
6.600 -10.000 0.200
-10.000 6.600 1.200
6.600 -10.000 1.200
-10.000 6.600 2.000
6.600 -10.000 2.000
-10.000 6.800 0.200
6.800 -10.000 0.200
-10.000 6.800 1.200
6.800 -10.000 1.200
-10.000 6.800 2.000
6.800 -10.000 2.000
-10.000 7.000 0.200
7.000 -10.000 0.200
-10.000 7.000 1.200
7.000 -10.000 1.200
-10.000 7.000 2.000
7.000 -10.000 2.000
-10.000 7.200 0.200
7.200 -10.000 0.200
-10.000 7.200 1.200
7.200 -10.000 1.200
-10.000 7.200 2.000
7.200 -10.000 2.000
-10.000 7.400 0.200
7.400 -10.000 0.200
-10.000 7.400 1.200
7.400 -10.000 1.200
-10.000 7.400 2.000
7.400 -10.000 2.000
-10.000 7.600 0.200
7.600 -10.000 0.200
-10.000 7.600 1.200
7.600 -10.000 1.200
-10.000 7.600 2.000
7.600 -10.000 2.000
-10.000 7.800 0.200
7.800 -10.000 0.200
-10.000 7.800 1.200
7.800 -10.000 1.200
-10.000 7.800 2.000
7.800 -10.000 2.000
-10.000 8.000 0.200
8.000 -10.000 0.200
-10.000 8.000 1.200
8.000 -10.000 1.200
-10.000 8.000 2.000
8.000 -10.000 2.000
-10.000 8.200 0.200
8.200 -10.000 0.200
-10.000 8.200 1.200
8.200 -10.000 1.200
-10.000 8.200 2.000
8.200 -10.000 2.000
-10.000 8.400 0.200
8.400 -10.000 0.200
-10.000 8.400 1.200
8.400 -10.000 1.200
-10.000 8.400 2.000
8.400 -10.000 2.000
-10.000 8.600 0.200
8.600 -10.000 0.200
-10.000 8.600 1.200
8.600 -10.000 1.200
-10.000 8.600 2.000
8.600 -10.000 2.000
-10.000 8.800 0.200
8.800 -10.000 0.200
-10.000 8.800 1.200
8.800 -10.000 1.200
-10.000 8.800 2.000
8.800 -10.000 2.000
-10.000 9.000 0.200
9.000 -10.000 0.200
-10.000 9.000 1.200
9.000 -10.000 1.200
-10.000 9.000 2.000
9.000 -10.000 2.000
-10.000 9.200 0.200
9.200 -10.000 0.200
-10.000 9.200 1.200
9.200 -10.000 1.200
-10.000 9.200 2.000
9.200 -10.000 2.000
-10.000 9.400 0.200
9.400 -10.000 0.200
-10.000 9.400 1.200
9.400 -10.000 1.200
-10.000 9.400 2.000
9.400 -10.000 2.000
-10.000 9.600 0.200
9.600 -10.000 0.200
-10.000 9.600 1.200
9.600 -10.000 1.200
-10.000 9.600 2.000
9.600 -10.000 2.000
-10.000 9.800 0.200
9.800 -10.000 0.200
-10.000 9.800 1.200
9.800 -10.000 1.200
-10.000 9.800 2.000
9.800 -10.000 2.000
-10.000 10.000 0.200
10.000 -10.000 0.200
-10.000 10.000 1.200
10.000 -10.000 1.200
-10.000 10.000 2.000
10.000 -10.000 2.000
10.000 -9.800 0.200
-9.800 10.000 0.200
10.000 -9.800 1.200
-9.800 10.000 1.200
10.000 -9.800 2.000
-9.800 10.000 2.000
10.000 -9.600 0.200
-9.600 10.000 0.200
10.000 -9.600 1.200
-9.600 10.000 1.200
10.000 -9.600 2.000
-9.600 10.000 2.000
10.000 -9.400 0.200
-9.400 10.000 0.200
10.000 -9.400 1.200
-9.400 10.000 1.200
10.000 -9.400 2.000
-9.400 10.000 2.000
10.000 -9.200 0.200
-9.200 10.000 0.200
10.000 -9.200 1.200
-9.200 10.000 1.200
10.000 -9.200 2.000
-9.200 10.000 2.000
10.000 -9.000 0.200
-9.000 10.000 0.200
10.000 -9.000 1.200
-9.000 10.000 1.200
10.000 -9.000 2.000
-9.000 10.000 2.000
10.000 -8.800 0.200
-8.800 10.000 0.200
10.000 -8.800 1.200
-8.800 10.000 1.200
10.000 -8.800 2.000
-8.800 10.000 2.000
10.000 -8.600 0.200
-8.600 10.000 0.200
10.000 -8.600 1.200
-8.600 10.000 1.200
10.000 -8.600 2.000
-8.600 10.000 2.000
10.000 -8.400 0.200
-8.400 10.000 0.200
10.000 -8.400 1.200
-8.400 10.000 1.200
10.000 -8.400 2.000
-8.400 10.000 2.000
10.000 -8.200 0.200
-8.200 10.000 0.200
10.000 -8.200 1.200
-8.200 10.000 1.200
10.000 -8.200 2.000
-8.200 10.000 2.000
10.000 -8.000 0.200
-8.000 10.000 0.200
10.000 -8.000 1.200
-8.000 10.000 1.200
10.000 -8.000 2.000
-8.000 10.000 2.000
10.000 -7.800 0.200
-7.800 10.000 0.200
10.000 -7.800 1.200
-7.800 10.000 1.200
10.000 -7.800 2.000
-7.800 10.000 2.000
10.000 -7.600 0.200
-7.600 10.000 0.200
10.000 -7.600 1.200
-7.600 10.000 1.200
10.000 -7.600 2.000
-7.600 10.000 2.000
10.000 -7.400 0.200
-7.400 10.000 0.200
10.000 -7.400 1.200
-7.400 10.000 1.200
10.000 -7.400 2.000
-7.400 10.000 2.000
10.000 -7.200 0.200
-7.200 10.000 0.200
10.000 -7.200 1.200
-7.200 10.000 1.200
10.000 -7.200 2.000
-7.200 10.000 2.000
10.000 -7.000 0.200
-7.000 10.000 0.200
10.000 -7.000 1.200
-7.000 10.000 1.200
10.000 -7.000 2.000
-7.000 10.000 2.000
10.000 -6.800 0.200
-6.800 10.000 0.200
10.000 -6.800 1.200
-6.800 10.000 1.200
10.000 -6.800 2.000
-6.800 10.000 2.000
10.000 -6.600 0.200
-6.600 10.000 0.200
10.000 -6.600 1.200
-6.600 10.000 1.200
10.000 -6.600 2.000
-6.600 10.000 2.000
10.000 -6.400 0.200
-6.400 10.000 0.200
10.000 -6.400 1.200
-6.400 10.000 1.200
10.000 -6.400 2.000
-6.400 10.000 2.000
10.000 -6.200 0.200
-6.200 10.000 0.200
10.000 -6.200 1.200
-6.200 10.000 1.200
10.000 -6.200 2.000
-6.200 10.000 2.000
10.000 -6.000 0.200
-6.000 10.000 0.200
10.000 -6.000 1.200
-6.000 10.000 1.200
10.000 -6.000 2.000
-6.000 10.000 2.000
10.000 -5.800 0.200
-5.800 10.000 0.200
10.000 -5.800 1.200
-5.800 10.000 1.200
10.000 -5.800 2.000
-5.800 10.000 2.000
10.000 -5.600 0.200
-5.600 10.000 0.200
10.000 -5.600 1.200
-5.600 10.000 1.200
10.000 -5.600 2.000
-5.600 10.000 2.000
10.000 -5.400 0.200
-5.400 10.000 0.200
10.000 -5.400 1.200
-5.400 10.000 1.200
10.000 -5.400 2.000
-5.400 10.000 2.000
10.000 -5.200 0.200
-5.200 10.000 0.200
10.000 -5.200 1.200
-5.200 10.000 1.200
10.000 -5.200 2.000
-5.200 10.000 2.000
10.000 -5.000 0.200
-5.000 10.000 0.200
10.000 -5.000 1.200
-5.000 10.000 1.200
10.000 -5.000 2.000
-5.000 10.000 2.000
10.000 -4.800 0.200
-4.800 10.000 0.200
10.000 -4.800 1.200
-4.800 10.000 1.200
10.000 -4.800 2.000
-4.800 10.000 2.000
10.000 -4.600 0.200
-4.600 10.000 0.200
10.000 -4.600 1.200
-4.600 10.000 1.200
10.000 -4.600 2.000
-4.600 10.000 2.000
10.000 -4.400 0.200
-4.400 10.000 0.200
10.000 -4.400 1.200
-4.400 10.000 1.200
10.000 -4.400 2.000
-4.400 10.000 2.000
10.000 -4.200 0.200
-4.200 10.000 0.200
10.000 -4.200 1.200
-4.200 10.000 1.200
10.000 -4.200 2.000
-4.200 10.000 2.000
10.000 -4.000 0.200
-4.000 10.000 0.200
10.000 -4.000 1.200
-4.000 10.000 1.200
10.000 -4.000 2.000
-4.000 10.000 2.000
10.000 -3.800 0.200
-3.800 10.000 0.200
10.000 -3.800 1.200
-3.800 10.000 1.200
10.000 -3.800 2.000
-3.800 10.000 2.000
10.000 -3.600 0.200
-3.600 10.000 0.200
10.000 -3.600 1.200
-3.600 10.000 1.200
10.000 -3.600 2.000
-3.600 10.000 2.000
10.000 -3.400 0.200
-3.400 10.000 0.200
10.000 -3.400 1.200
-3.400 10.000 1.200
10.000 -3.400 2.000
-3.400 10.000 2.000
10.000 -3.200 0.200
-3.200 10.000 0.200
10.000 -3.200 1.200
-3.200 10.000 1.200
10.000 -3.200 2.000
-3.200 10.000 2.000
10.000 -3.000 0.200
-3.000 10.000 0.200
10.000 -3.000 1.200
-3.000 10.000 1.200
10.000 -3.000 2.000
-3.000 10.000 2.000
10.000 -2.800 0.200
-2.800 10.000 0.200
10.000 -2.800 1.200
-2.800 10.000 1.200
10.000 -2.800 2.000
-2.800 10.000 2.000
10.000 -2.600 0.200
-2.600 10.000 0.200
10.000 -2.600 1.200
-2.600 10.000 1.200
10.000 -2.600 2.000
-2.600 10.000 2.000
10.000 -2.400 0.200
-2.400 10.000 0.200
10.000 -2.400 1.200
-2.400 10.000 1.200
10.000 -2.400 2.000
-2.400 10.000 2.000
10.000 -2.200 0.200
-2.200 10.000 0.200
10.000 -2.200 1.200
-2.200 10.000 1.200
10.000 -2.200 2.000
-2.200 10.000 2.000
10.000 -2.000 0.200
-2.000 10.000 0.200
10.000 -2.000 1.200
-2.000 10.000 1.200
10.000 -2.000 2.000
-2.000 10.000 2.000
10.000 -1.800 0.200
-1.800 10.000 0.200
10.000 -1.800 1.200
-1.800 10.000 1.200
10.000 -1.800 2.000
-1.800 10.000 2.000
10.000 -1.600 0.200
-1.600 10.000 0.200
10.000 -1.600 1.200
-1.600 10.000 1.200
10.000 -1.600 2.000
-1.600 10.000 2.000
10.000 -1.400 0.200
-1.400 10.000 0.200
10.000 -1.400 1.200
-1.400 10.000 1.200
10.000 -1.400 2.000
-1.400 10.000 2.000
10.000 -1.200 0.200
-1.200 10.000 0.200
10.000 -1.200 1.200
-1.200 10.000 1.200
10.000 -1.200 2.000
-1.200 10.000 2.000
10.000 -1.000 0.200
-1.000 10.000 0.200
10.000 -1.000 1.200
-1.000 10.000 1.200
10.000 -1.000 2.000
-1.000 10.000 2.000
10.000 -0.800 0.200
-0.800 10.000 0.200
10.000 -0.800 1.200
-0.800 10.000 1.200
10.000 -0.800 2.000
-0.800 10.000 2.000
10.000 -0.600 0.200
-0.600 10.000 0.200
10.000 -0.600 1.200
-0.600 10.000 1.200
10.000 -0.600 2.000
-0.600 10.000 2.000
10.000 -0.400 0.200
-0.400 10.000 0.200
10.000 -0.400 1.200
-0.400 10.000 1.200
10.000 -0.400 2.000
-0.400 10.000 2.000
10.000 -0.200 0.200
-0.200 10.000 0.200
10.000 -0.200 1.200
-0.200 10.000 1.200
10.000 -0.200 2.000
-0.200 10.000 2.000
10.000 0.000 0.200
0.000 10.000 0.200
10.000 0.000 1.200
0.000 10.000 1.200
10.000 0.000 2.000
0.000 10.000 2.000
10.000 0.200 0.200
0.200 10.000 0.200
10.000 0.200 1.200
0.200 10.000 1.200
10.000 0.200 2.000
0.200 10.000 2.000
10.000 0.400 0.200
0.400 10.000 0.200
10.000 0.400 1.200
0.400 10.000 1.200
10.000 0.400 2.000
0.400 10.000 2.000
10.000 0.600 0.200
0.600 10.000 0.200
10.000 0.600 1.200
0.600 10.000 1.200
10.000 0.600 2.000
0.600 10.000 2.000
10.000 0.800 0.200
0.800 10.000 0.200
10.000 0.800 1.200
0.800 10.000 1.200
10.000 0.800 2.000
0.800 10.000 2.000
10.000 1.000 0.200
1.000 10.000 0.200
10.000 1.000 1.200
1.000 10.000 1.200
10.000 1.000 2.000
1.000 10.000 2.000
10.000 1.200 0.200
1.200 10.000 0.200
10.000 1.200 1.200
1.200 10.000 1.200
10.000 1.200 2.000
1.200 10.000 2.000
10.000 1.400 0.200
1.400 10.000 0.200
10.000 1.400 1.200
1.400 10.000 1.200
10.000 1.400 2.000
1.400 10.000 2.000
10.000 1.600 0.200
1.600 10.000 0.200
10.000 1.600 1.200
1.600 10.000 1.200
10.000 1.600 2.000
1.600 10.000 2.000
10.000 1.800 0.200
1.800 10.000 0.200
10.000 1.800 1.200
1.800 10.000 1.200
10.000 1.800 2.000
1.800 10.000 2.000
10.000 2.000 0.200
2.000 10.000 0.200
10.000 2.000 1.200
2.000 10.000 1.200
10.000 2.000 2.000
2.000 10.000 2.000
10.000 2.200 0.200
2.200 10.000 0.200
10.000 2.200 1.200
2.200 10.000 1.200
10.000 2.200 2.000
2.200 10.000 2.000
10.000 2.400 0.200
2.400 10.000 0.200
10.000 2.400 1.200
2.400 10.000 1.200
10.000 2.400 2.000
2.400 10.000 2.000
10.000 2.600 0.200
2.600 10.000 0.200
10.000 2.600 1.200
2.600 10.000 1.200
10.000 2.600 2.000
2.600 10.000 2.000
10.000 2.800 0.200
2.800 10.000 0.200
10.000 2.800 1.200
2.800 10.000 1.200
10.000 2.800 2.000
2.800 10.000 2.000
10.000 3.000 0.200
3.000 10.000 0.200
10.000 3.000 1.200
3.000 10.000 1.200
10.000 3.000 2.000
3.000 10.000 2.000
10.000 3.200 0.200
3.200 10.000 0.200
10.000 3.200 1.200
3.200 10.000 1.200
10.000 3.200 2.000
3.200 10.000 2.000
10.000 3.400 0.200
3.400 10.000 0.200
10.000 3.400 1.200
3.400 10.000 1.200
10.000 3.400 2.000
3.400 10.000 2.000
10.000 3.600 0.200
3.600 10.000 0.200
10.000 3.600 1.200
3.600 10.000 1.200
10.000 3.600 2.000
3.600 10.000 2.000
10.000 3.800 0.200
3.800 10.000 0.200
10.000 3.800 1.200
3.800 10.000 1.200
10.000 3.800 2.000
3.800 10.000 2.000
10.000 4.000 0.200
4.000 10.000 0.200
10.000 4.000 1.200
4.000 10.000 1.200
10.000 4.000 2.000
4.000 10.000 2.000
10.000 4.200 0.200
4.200 10.000 0.200
10.000 4.200 1.200
4.200 10.000 1.200
10.000 4.200 2.000
4.200 10.000 2.000
10.000 4.400 0.200
4.400 10.000 0.200
10.000 4.400 1.200
4.400 10.000 1.200
10.000 4.400 2.000
4.400 10.000 2.000
10.000 4.600 0.200
4.600 10.000 0.200
10.000 4.600 1.200
4.600 10.000 1.200
10.000 4.600 2.000
4.600 10.000 2.000
10.000 4.800 0.200
4.800 10.000 0.200
10.000 4.800 1.200
4.800 10.000 1.200
10.000 4.800 2.000
4.800 10.000 2.000
10.000 5.000 0.200
5.000 10.000 0.200
10.000 5.000 1.200
5.000 10.000 1.200
10.000 5.000 2.000
5.000 10.000 2.000
10.000 5.200 0.200
5.200 10.000 0.200
10.000 5.200 1.200
5.200 10.000 1.200
10.000 5.200 2.000
5.200 10.000 2.000
10.000 5.400 0.200
5.400 10.000 0.200
10.000 5.400 1.200
5.400 10.000 1.200
10.000 5.400 2.000
5.400 10.000 2.000
10.000 5.600 0.200
5.600 10.000 0.200
10.000 5.600 1.200
5.600 10.000 1.200
10.000 5.600 2.000
5.600 10.000 2.000
10.000 5.800 0.200
5.800 10.000 0.200
10.000 5.800 1.200
5.800 10.000 1.200
10.000 5.800 2.000
5.800 10.000 2.000
10.000 6.000 0.200
6.000 10.000 0.200
10.000 6.000 1.200
6.000 10.000 1.200
10.000 6.000 2.000
6.000 10.000 2.000
10.000 6.200 0.200
6.200 10.000 0.200
10.000 6.200 1.200
6.200 10.000 1.200
10.000 6.200 2.000
6.200 10.000 2.000
10.000 6.400 0.200
6.400 10.000 0.200
10.000 6.400 1.200
6.400 10.000 1.200
10.000 6.400 2.000
6.400 10.000 2.000
10.000 6.600 0.200
6.600 10.000 0.200
10.000 6.600 1.200
6.600 10.000 1.200
10.000 6.600 2.000
6.600 10.000 2.000
10.000 6.800 0.200
6.800 10.000 0.200
10.000 6.800 1.200
6.800 10.000 1.200
10.000 6.800 2.000
6.800 10.000 2.000
10.000 7.000 0.200
7.000 10.000 0.200
10.000 7.000 1.200
7.000 10.000 1.200
10.000 7.000 2.000
7.000 10.000 2.000
10.000 7.200 0.200
7.200 10.000 0.200
10.000 7.200 1.200
7.200 10.000 1.200
10.000 7.200 2.000
7.200 10.000 2.000
10.000 7.400 0.200
7.400 10.000 0.200
10.000 7.400 1.200
7.400 10.000 1.200
10.000 7.400 2.000
7.400 10.000 2.000
10.000 7.600 0.200
7.600 10.000 0.200
10.000 7.600 1.200
7.600 10.000 1.200
10.000 7.600 2.000
7.600 10.000 2.000
10.000 7.800 0.200
7.800 10.000 0.200
10.000 7.800 1.200
7.800 10.000 1.200
10.000 7.800 2.000
7.800 10.000 2.000
10.000 8.000 0.200
8.000 10.000 0.200
10.000 8.000 1.200
8.000 10.000 1.200
10.000 8.000 2.000
8.000 10.000 2.000
10.000 8.200 0.200
8.200 10.000 0.200
10.000 8.200 1.200
8.200 10.000 1.200
10.000 8.200 2.000
8.200 10.000 2.000
10.000 8.400 0.200
8.400 10.000 0.200
10.000 8.400 1.200
8.400 10.000 1.200
10.000 8.400 2.000
8.400 10.000 2.000
10.000 8.600 0.200
8.600 10.000 0.200
10.000 8.600 1.200
8.600 10.000 1.200
10.000 8.600 2.000
8.600 10.000 2.000
10.000 8.800 0.200
8.800 10.000 0.200
10.000 8.800 1.200
8.800 10.000 1.200
10.000 8.800 2.000
8.800 10.000 2.000
10.000 9.000 0.200
9.000 10.000 0.200
10.000 9.000 1.200
9.000 10.000 1.200
10.000 9.000 2.000
9.000 10.000 2.000
10.000 9.200 0.200
9.200 10.000 0.200
10.000 9.200 1.200
9.200 10.000 1.200
10.000 9.200 2.000
9.200 10.000 2.000
10.000 9.400 0.200
9.400 10.000 0.200
10.000 9.400 1.200
9.400 10.000 1.200
10.000 9.400 2.000
9.400 10.000 2.000
10.000 9.600 0.200
9.600 10.000 0.200
10.000 9.600 1.200
9.600 10.000 1.200
10.000 9.600 2.000
9.600 10.000 2.000
10.000 9.800 0.200
9.800 10.000 0.200
10.000 9.800 1.200
9.800 10.000 1.200
10.000 9.800 2.000
9.800 10.000 2.000
10.000 10.000 0.200
10.000 10.000 1.200
10.000 10.000 2.000
-5.900 -6.000 0.200
-5.900 -6.000 0.800
-5.900 -6.000 1.400
-5.900 -6.000 2.000
-5.912 -5.952 0.200
-5.912 -5.952 0.800
-5.912 -5.952 1.400
-5.912 -5.952 2.000
-6.042 -5.909 0.200
-6.042 -5.909 0.800
-6.042 -5.909 1.400
-6.042 -5.909 2.000
-6.094 -6.035 0.200
-6.094 -6.035 0.800
-6.094 -6.035 1.400
-6.094 -6.035 2.000
-5.900 6.000 0.200
-5.900 6.000 0.800
-5.900 6.000 1.400
-5.900 6.000 2.000
-6.042 6.091 0.200
-6.042 6.091 0.800
-6.042 6.091 1.400
-6.042 6.091 2.000
-6.094 5.965 0.200
-6.094 5.965 0.800
-6.094 5.965 1.400
-6.094 5.965 2.000
-5.972 5.904 0.200
-5.972 5.904 0.800
-5.972 5.904 1.400
-5.972 5.904 2.000
6.100 -6.000 0.200
6.100 -6.000 0.800
6.100 -6.000 1.400
6.100 -6.000 2.000
6.088 -5.952 0.200
6.088 -5.952 0.800
6.088 -5.952 1.400
6.088 -5.952 2.000
5.958 -5.909 0.200
5.958 -5.909 0.800
5.958 -5.909 1.400
5.958 -5.909 2.000
5.906 -6.035 0.200
5.906 -6.035 0.800
5.906 -6.035 1.400
5.906 -6.035 2.000
6.100 6.000 0.200
6.100 6.000 0.800
6.100 6.000 1.400
6.100 6.000 2.000
5.958 6.091 0.200
5.958 6.091 0.800
5.958 6.091 1.400
5.958 6.091 2.000
5.906 5.965 0.200
5.906 5.965 0.800
5.906 5.965 1.400
5.906 5.965 2.000
6.028 5.904 0.200
6.028 5.904 0.800
6.028 5.904 1.400
6.028 5.904 2.000
-2.900 4.000 0.200
-2.900 4.000 0.800
-2.900 4.000 1.400
-2.900 4.000 2.000
-3.042 4.091 0.200
-3.042 4.091 0.800
-3.042 4.091 1.400
-3.042 4.091 2.000
-3.094 3.965 0.200
-3.094 3.965 0.800
-3.094 3.965 1.400
-3.094 3.965 2.000
-2.972 3.904 0.200
-2.972 3.904 0.800
-2.972 3.904 1.400
-2.972 3.904 2.000
4.100 3.000 0.200
4.100 3.000 0.800
4.100 3.000 1.400
4.100 3.000 2.000
3.958 3.091 0.200
3.958 3.091 0.800
3.958 3.091 1.400
3.958 3.091 2.000
3.906 2.965 0.200
3.906 2.965 0.800
3.906 2.965 1.400
3.906 2.965 2.000
4.028 2.904 0.200
4.028 2.904 0.800
4.028 2.904 1.400
4.028 2.904 2.000
2.000 -4.000 0.200
2.000 -2.000 0.200
4.000 -4.000 0.200
2.000 -4.000 0.500
2.000 -2.000 0.500
4.000 -4.000 0.500
2.000 -4.000 0.800
2.000 -2.000 0.800
4.000 -4.000 0.800
2.250 -4.000 0.200
2.250 -2.000 0.200
2.000 -3.750 0.200
4.000 -3.750 0.200
2.250 -4.000 0.500
2.250 -2.000 0.500
2.000 -3.750 0.500
4.000 -3.750 0.500
2.250 -4.000 0.800
2.250 -2.000 0.800
2.000 -3.750 0.800
4.000 -3.750 0.800
2.500 -4.000 0.200
2.500 -2.000 0.200
2.000 -3.500 0.200
4.000 -3.500 0.200
2.500 -4.000 0.500
2.500 -2.000 0.500
2.000 -3.500 0.500
4.000 -3.500 0.500
2.500 -4.000 0.800
2.500 -2.000 0.800
2.000 -3.500 0.800
4.000 -3.500 0.800
2.750 -4.000 0.200
2.750 -2.000 0.200
2.000 -3.250 0.200
4.000 -3.250 0.200
2.750 -4.000 0.500
2.750 -2.000 0.500
2.000 -3.250 0.500
4.000 -3.250 0.500
2.750 -4.000 0.800
2.750 -2.000 0.800
2.000 -3.250 0.800
4.000 -3.250 0.800
3.000 -4.000 0.200
3.000 -2.000 0.200
2.000 -3.000 0.200
4.000 -3.000 0.200
3.000 -4.000 0.500
3.000 -2.000 0.500
2.000 -3.000 0.500
4.000 -3.000 0.500
3.000 -4.000 0.800
3.000 -2.000 0.800
2.000 -3.000 0.800
4.000 -3.000 0.800
3.250 -4.000 0.200
3.250 -2.000 0.200
2.000 -2.750 0.200
4.000 -2.750 0.200
3.250 -4.000 0.500
3.250 -2.000 0.500
2.000 -2.750 0.500
4.000 -2.750 0.500
3.250 -4.000 0.800
3.250 -2.000 0.800
2.000 -2.750 0.800
4.000 -2.750 0.800
3.500 -4.000 0.200
3.500 -2.000 0.200
2.000 -2.500 0.200
4.000 -2.500 0.200
3.500 -4.000 0.500
3.500 -2.000 0.500
2.000 -2.500 0.500
4.000 -2.500 0.500
3.500 -4.000 0.800
3.500 -2.000 0.800
2.000 -2.500 0.800
4.000 -2.500 0.800
3.750 -4.000 0.200
3.750 -2.000 0.200
2.000 -2.250 0.200
4.000 -2.250 0.200
3.750 -4.000 0.500
3.750 -2.000 0.500
2.000 -2.250 0.500
4.000 -2.250 0.500
3.750 -4.000 0.800
3.750 -2.000 0.800
2.000 -2.250 0.800
4.000 -2.250 0.800
4.000 -2.000 0.200
4.000 -2.000 0.500
4.000 -2.000 0.800
-9.914 -10.069 0.200
-9.914 -10.069 1.200
-9.914 -10.069 2.000
-9.916 -9.869 0.200
-9.714 -10.068 0.200
-9.916 -9.869 1.200
-9.714 -10.068 1.200
-9.916 -9.869 2.000
-9.714 -10.068 2.000
-9.917 -9.669 0.200
-9.514 -10.066 0.200
-9.917 -9.669 1.200
-9.514 -10.066 1.200
-9.917 -9.669 2.000
-9.514 -10.066 2.000
-9.919 -9.469 0.200
-9.919 -9.469 1.200
-9.919 -9.469 2.000
-9.920 -9.269 0.200
-9.920 -9.269 1.200
-9.920 -9.269 2.000
-9.921 -9.069 0.200
-8.914 -10.062 0.200
-9.921 -9.069 1.200
-8.914 -10.062 1.200
-9.921 -9.069 2.000
-8.914 -10.062 2.000
-9.923 -8.869 0.200
-8.714 -10.061 0.200
-9.923 -8.869 1.200
-8.714 -10.061 1.200
-9.923 -8.869 2.000
-8.714 -10.061 2.000
-9.924 -8.669 0.200
-8.515 -10.059 0.200
-9.924 -8.669 1.200
-8.515 -10.059 1.200
-9.924 -8.669 2.000
-8.515 -10.059 2.000
-9.926 -8.469 0.200
-9.926 -8.469 1.200
-9.926 -8.469 2.000
-9.927 -8.269 0.200
-9.927 -8.269 1.200
-9.927 -8.269 2.000
-9.928 -8.069 0.200
-7.915 -10.055 0.200
-9.928 -8.069 1.200
-7.915 -10.055 1.200
-9.928 -8.069 2.000
-7.915 -10.055 2.000
-9.930 -7.869 0.200
-7.715 -10.054 0.200
-9.930 -7.869 1.200
-7.715 -10.054 1.200
-9.930 -7.869 2.000
-7.715 -10.054 2.000
-9.931 -7.669 0.200
-9.931 -7.669 1.200
-9.931 -7.669 2.000
-9.933 -7.469 0.200
-7.315 -10.051 0.200
-9.933 -7.469 1.200
-7.315 -10.051 1.200
-9.933 -7.469 2.000
-7.315 -10.051 2.000
-9.934 -7.269 0.200
-9.934 -7.269 1.200
-9.934 -7.269 2.000
-9.935 -7.069 0.200
-6.915 -10.048 0.200
-9.935 -7.069 1.200
-6.915 -10.048 1.200
-9.935 -7.069 2.000
-6.915 -10.048 2.000
-9.937 -6.869 0.200
-6.715 -10.047 0.200
-9.937 -6.869 1.200
-6.715 -10.047 1.200
-9.937 -6.869 2.000
-6.715 -10.047 2.000
-9.938 -6.669 0.200
-9.938 -6.669 1.200
-9.938 -6.669 2.000
-9.939 -6.469 0.200
-6.315 -10.044 0.200
-9.939 -6.469 1.200
-6.315 -10.044 1.200
-9.939 -6.469 2.000
-6.315 -10.044 2.000
-9.941 -6.269 0.200
-9.941 -6.269 1.200
-9.941 -6.269 2.000
-9.942 -6.069 0.200
-5.915 -10.041 0.200
-9.942 -6.069 1.200
-5.915 -10.041 1.200
-9.942 -6.069 2.000
-5.915 -10.041 2.000
-9.944 -5.869 0.200
-5.715 -10.040 0.200
-9.944 -5.869 1.200
-5.715 -10.040 1.200
-9.944 -5.869 2.000
-5.715 -10.040 2.000
-9.945 -5.669 0.200
-9.945 -5.669 1.200
-9.945 -5.669 2.000
-9.946 -5.469 0.200
-5.315 -10.037 0.200
-9.946 -5.469 1.200
-5.315 -10.037 1.200
-9.946 -5.469 2.000
-5.315 -10.037 2.000
-9.948 -5.269 0.200
-9.948 -5.269 1.200
-9.948 -5.269 2.000
-9.949 -5.069 0.200
-4.915 -10.034 0.200
-9.949 -5.069 1.200
-4.915 -10.034 1.200
-9.949 -5.069 2.000
-4.915 -10.034 2.000
-9.951 -4.869 0.200
-4.715 -10.033 0.200
-9.951 -4.869 1.200
-4.715 -10.033 1.200
-9.951 -4.869 2.000
-4.715 -10.033 2.000
-9.952 -4.669 0.200
-9.952 -4.669 1.200
-9.952 -4.669 2.000
-9.953 -4.469 0.200
-4.315 -10.030 0.200
-9.953 -4.469 1.200
-4.315 -10.030 1.200
-9.953 -4.469 2.000
-4.315 -10.030 2.000
-9.955 -4.269 0.200
-9.955 -4.269 1.200
-9.955 -4.269 2.000
-9.956 -4.069 0.200
-3.915 -10.028 0.200
-9.956 -4.069 1.200
-3.915 -10.028 1.200
-9.956 -4.069 2.000
-3.915 -10.028 2.000
-9.958 -3.869 0.200
-9.958 -3.869 1.200
-9.958 -3.869 2.000
-9.959 -3.669 0.200
-9.959 -3.669 1.200
-9.959 -3.669 2.000
-9.960 -3.469 0.200
-3.315 -10.023 0.200
-9.960 -3.469 1.200
-3.315 -10.023 1.200
-9.960 -3.469 2.000
-3.315 -10.023 2.000
-9.962 -3.269 0.200
-3.115 -10.022 0.200
-9.962 -3.269 1.200
-3.115 -10.022 1.200
-9.962 -3.269 2.000
-3.115 -10.022 2.000
-9.963 -3.069 0.200
-2.915 -10.021 0.200
-9.963 -3.069 1.200
-2.915 -10.021 1.200
-9.963 -3.069 2.000
-2.915 -10.021 2.000
-9.964 -2.869 0.200
-9.964 -2.869 1.200
-9.964 -2.869 2.000
-9.966 -2.669 0.200
-9.966 -2.669 1.200
-9.966 -2.669 2.000
-9.967 -2.469 0.200
-2.315 -10.016 0.200
-9.967 -2.469 1.200
-2.315 -10.016 1.200
-9.967 -2.469 2.000
-2.315 -10.016 2.000
-9.969 -2.269 0.200
-2.115 -10.015 0.200
-9.969 -2.269 1.200
-2.115 -10.015 1.200
-9.969 -2.269 2.000
-2.115 -10.015 2.000
-9.970 -2.069 0.200
-1.915 -10.014 0.200
-9.970 -2.069 1.200
-1.915 -10.014 1.200
-9.970 -2.069 2.000
-1.915 -10.014 2.000
-9.971 -1.869 0.200
-9.971 -1.869 1.200
-9.971 -1.869 2.000
-9.973 -1.669 0.200
-1.515 -10.011 0.200
-9.973 -1.669 1.200
-1.515 -10.011 1.200
-9.973 -1.669 2.000
-1.515 -10.011 2.000
-9.974 -1.469 0.200
-9.974 -1.469 1.200
-9.974 -1.469 2.000
-9.976 -1.269 0.200
-1.115 -10.008 0.200
-9.976 -1.269 1.200
-1.115 -10.008 1.200
-9.976 -1.269 2.000
-1.115 -10.008 2.000
-9.977 -1.069 0.200
-0.915 -10.007 0.200
-9.977 -1.069 1.200
-0.915 -10.007 1.200
-9.977 -1.069 2.000
-0.915 -10.007 2.000
-9.978 -0.869 0.200
-0.715 -10.005 0.200
-9.978 -0.869 1.200
-0.715 -10.005 1.200
-9.978 -0.869 2.000
-0.715 -10.005 2.000
-9.980 -0.669 0.200
-0.515 -10.004 0.200
-9.980 -0.669 1.200
-0.515 -10.004 1.200
-9.980 -0.669 2.000
-0.515 -10.004 2.000
-9.981 -0.469 0.200
-0.315 -10.003 0.200
-9.981 -0.469 1.200
-0.315 -10.003 1.200
-9.981 -0.469 2.000
-0.315 -10.003 2.000
-9.983 -0.269 0.200
-0.115 -10.001 0.200
-9.983 -0.269 1.200
-0.115 -10.001 1.200
-9.983 -0.269 2.000
-0.115 -10.001 2.000
-9.984 -0.069 0.200
0.085 -10.000 0.200
-9.984 -0.069 1.200
0.085 -10.000 1.200
-9.984 -0.069 2.000
0.085 -10.000 2.000
-9.985 0.131 0.200
0.285 -9.998 0.200
-9.985 0.131 1.200
0.285 -9.998 1.200
-9.985 0.131 2.000
0.285 -9.998 2.000
-9.987 0.331 0.200
0.485 -9.997 0.200
-9.987 0.331 1.200
0.485 -9.997 1.200
-9.987 0.331 2.000
0.485 -9.997 2.000
-9.988 0.531 0.200
0.685 -9.996 0.200
-9.988 0.531 1.200
0.685 -9.996 1.200
-9.988 0.531 2.000
0.685 -9.996 2.000
-9.989 0.731 0.200
0.885 -9.994 0.200
-9.989 0.731 1.200
0.885 -9.994 1.200
-9.989 0.731 2.000
0.885 -9.994 2.000
-9.991 0.931 0.200
1.085 -9.993 0.200
-9.991 0.931 1.200
1.085 -9.993 1.200
-9.991 0.931 2.000
1.085 -9.993 2.000
-9.992 1.131 0.200
1.285 -9.991 0.200
-9.992 1.131 1.200
1.285 -9.991 1.200
-9.992 1.131 2.000
1.285 -9.991 2.000
-9.994 1.331 0.200
1.485 -9.990 0.200
-9.994 1.331 1.200
1.485 -9.990 1.200
-9.994 1.331 2.000
1.485 -9.990 2.000
-9.995 1.531 0.200
1.685 -9.989 0.200
-9.995 1.531 1.200
1.685 -9.989 1.200
-9.995 1.531 2.000
1.685 -9.989 2.000
-9.996 1.731 0.200
1.885 -9.987 0.200
-9.996 1.731 1.200
1.885 -9.987 1.200
-9.996 1.731 2.000
1.885 -9.987 2.000
-9.998 1.931 0.200
2.085 -9.986 0.200
-9.998 1.931 1.200
2.085 -9.986 1.200
-9.998 1.931 2.000
2.085 -9.986 2.000
-9.999 2.131 0.200
2.285 -9.984 0.200
-9.999 2.131 1.200
2.285 -9.984 1.200
-9.999 2.131 2.000
2.285 -9.984 2.000
-10.001 2.331 0.200
2.485 -9.983 0.200
-10.001 2.331 1.200
2.485 -9.983 1.200
-10.001 2.331 2.000
2.485 -9.983 2.000
2.685 -9.982 0.200
2.685 -9.982 1.200
2.685 -9.982 2.000
2.885 -9.980 0.200
2.885 -9.980 1.200
2.885 -9.980 2.000
-10.005 2.931 0.200
3.085 -9.979 0.200
-10.005 2.931 1.200
3.085 -9.979 1.200
-10.005 2.931 2.000
3.085 -9.979 2.000
-10.006 3.130 0.200
3.285 -9.978 0.200
-10.006 3.130 1.200
3.285 -9.978 1.200
-10.006 3.130 2.000
3.285 -9.978 2.000
-10.007 3.330 0.200
3.485 -9.976 0.200
-10.007 3.330 1.200
3.485 -9.976 1.200
-10.007 3.330 2.000
3.485 -9.976 2.000
3.685 -9.975 0.200
3.685 -9.975 1.200
3.685 -9.975 2.000
3.885 -9.973 0.200
3.885 -9.973 1.200
3.885 -9.973 2.000
-10.012 3.930 0.200
4.085 -9.972 0.200
-10.012 3.930 1.200
4.085 -9.972 1.200
-10.012 3.930 2.000
4.085 -9.972 2.000
4.285 -9.971 0.200
4.285 -9.971 1.200
4.285 -9.971 2.000
-10.014 4.330 0.200
4.485 -9.969 0.200
-10.014 4.330 1.200
4.485 -9.969 1.200
-10.014 4.330 2.000
4.485 -9.969 2.000
4.685 -9.968 0.200
4.685 -9.968 1.200
4.685 -9.968 2.000
-10.017 4.730 0.200
4.885 -9.966 0.200
-10.017 4.730 1.200
4.885 -9.966 1.200
-10.017 4.730 2.000
4.885 -9.966 2.000
-10.019 4.930 0.200
5.085 -9.965 0.200
-10.019 4.930 1.200
5.085 -9.965 1.200
-10.019 4.930 2.000
5.085 -9.965 2.000
5.285 -9.964 0.200
5.285 -9.964 1.200
5.285 -9.964 2.000
-10.021 5.330 0.200
5.485 -9.962 0.200
-10.021 5.330 1.200
5.485 -9.962 1.200
-10.021 5.330 2.000
5.485 -9.962 2.000
5.685 -9.961 0.200
5.685 -9.961 1.200
5.685 -9.961 2.000
-10.024 5.730 0.200
5.885 -9.959 0.200
-10.024 5.730 1.200
5.885 -9.959 1.200
-10.024 5.730 2.000
5.885 -9.959 2.000
-10.026 5.930 0.200
6.085 -9.958 0.200
-10.026 5.930 1.200
6.085 -9.958 1.200
-10.026 5.930 2.000
6.085 -9.958 2.000
6.285 -9.957 0.200
6.285 -9.957 1.200
6.285 -9.957 2.000
-10.028 6.330 0.200
6.485 -9.955 0.200
-10.028 6.330 1.200
6.485 -9.955 1.200
-10.028 6.330 2.000
6.485 -9.955 2.000
6.685 -9.954 0.200
6.685 -9.954 1.200
6.685 -9.954 2.000
-10.031 6.730 0.200
6.885 -9.953 0.200
-10.031 6.730 1.200
6.885 -9.953 1.200
-10.031 6.730 2.000
6.885 -9.953 2.000
-10.032 6.930 0.200
7.085 -9.951 0.200
-10.032 6.930 1.200
7.085 -9.951 1.200
-10.032 6.930 2.000
7.085 -9.951 2.000
7.285 -9.950 0.200
7.285 -9.950 1.200
7.285 -9.950 2.000
-10.035 7.330 0.200
7.485 -9.948 0.200
-10.035 7.330 1.200
7.485 -9.948 1.200
-10.035 7.330 2.000
7.485 -9.948 2.000
7.685 -9.947 0.200
7.685 -9.947 1.200
7.685 -9.947 2.000
-10.038 7.730 0.200
7.885 -9.946 0.200
-10.038 7.730 1.200
7.885 -9.946 1.200
-10.038 7.730 2.000
7.885 -9.946 2.000
-10.039 7.930 0.200
8.085 -9.944 0.200
-10.039 7.930 1.200
8.085 -9.944 1.200
-10.039 7.930 2.000
8.085 -9.944 2.000
8.285 -9.943 0.200
8.285 -9.943 1.200
8.285 -9.943 2.000
8.485 -9.941 0.200
8.485 -9.941 1.200
8.485 -9.941 2.000
-10.044 8.530 0.200
8.685 -9.940 0.200
-10.044 8.530 1.200
8.685 -9.940 1.200
-10.044 8.530 2.000
8.685 -9.940 2.000
-10.045 8.730 0.200
8.885 -9.939 0.200
-10.045 8.730 1.200
8.885 -9.939 1.200
-10.045 8.730 2.000
8.885 -9.939 2.000
-10.046 8.930 0.200
9.085 -9.937 0.200
-10.046 8.930 1.200
9.085 -9.937 1.200
-10.046 8.930 2.000
9.085 -9.937 2.000
9.285 -9.936 0.200
9.285 -9.936 1.200
9.285 -9.936 2.000
9.485 -9.935 0.200
9.485 -9.935 1.200
9.485 -9.935 2.000
-10.051 9.530 0.200
9.685 -9.933 0.200
-10.051 9.530 1.200
9.685 -9.933 1.200
-10.051 9.530 2.000
9.685 -9.933 2.000
-10.052 9.730 0.200
9.885 -9.932 0.200
-10.052 9.730 1.200
9.885 -9.932 1.200
-10.052 9.730 2.000
9.885 -9.932 2.000
-10.053 9.930 0.200
10.085 -9.930 0.200
-10.053 9.930 1.200
10.085 -9.930 1.200
-10.053 9.930 2.000
10.085 -9.930 2.000
10.084 -9.730 0.200
-9.853 9.932 0.200
10.084 -9.730 1.200
-9.853 9.932 1.200
10.084 -9.730 2.000
-9.853 9.932 2.000
10.082 -9.530 0.200
-9.653 9.933 0.200
10.082 -9.530 1.200
-9.653 9.933 1.200
10.082 -9.530 2.000
-9.653 9.933 2.000
-9.453 9.935 0.200
-9.453 9.935 1.200
-9.453 9.935 2.000
-9.253 9.936 0.200
-9.253 9.936 1.200
-9.253 9.936 2.000
10.078 -8.930 0.200
-9.053 9.937 0.200
10.078 -8.930 1.200
-9.053 9.937 1.200
10.078 -8.930 2.000
-9.053 9.937 2.000
10.077 -8.730 0.200
-8.853 9.939 0.200
10.077 -8.730 1.200
-8.853 9.939 1.200
10.077 -8.730 2.000
-8.853 9.939 2.000
10.075 -8.530 0.200
-8.653 9.940 0.200
10.075 -8.530 1.200
-8.653 9.940 1.200
10.075 -8.530 2.000
-8.653 9.940 2.000
-8.453 9.941 0.200
-8.453 9.941 1.200
-8.453 9.941 2.000
-8.253 9.943 0.200
-8.253 9.943 1.200
-8.253 9.943 2.000
10.071 -7.930 0.200
-8.053 9.944 0.200
10.071 -7.930 1.200
-8.053 9.944 1.200
10.071 -7.930 2.000
-8.053 9.944 2.000
10.070 -7.730 0.200
-7.853 9.946 0.200
10.070 -7.730 1.200
-7.853 9.946 1.200
10.070 -7.730 2.000
-7.853 9.946 2.000
-7.653 9.947 0.200
-7.653 9.947 1.200
-7.653 9.947 2.000
10.067 -7.330 0.200
-7.453 9.948 0.200
10.067 -7.330 1.200
-7.453 9.948 1.200
10.067 -7.330 2.000
-7.453 9.948 2.000
-7.253 9.950 0.200
-7.253 9.950 1.200
-7.253 9.950 2.000
10.064 -6.930 0.200
-7.053 9.951 0.200
10.064 -6.930 1.200
-7.053 9.951 1.200
10.064 -6.930 2.000
-7.053 9.951 2.000
10.063 -6.730 0.200
-6.853 9.953 0.200
10.063 -6.730 1.200
-6.853 9.953 1.200
10.063 -6.730 2.000
-6.853 9.953 2.000
-6.653 9.954 0.200
-6.653 9.954 1.200
-6.653 9.954 2.000
10.060 -6.330 0.200
-6.453 9.955 0.200
10.060 -6.330 1.200
-6.453 9.955 1.200
10.060 -6.330 2.000
-6.453 9.955 2.000
-6.253 9.957 0.200
-6.253 9.957 1.200
-6.253 9.957 2.000
10.057 -5.930 0.200
-6.053 9.958 0.200
10.057 -5.930 1.200
-6.053 9.958 1.200
10.057 -5.930 2.000
-6.053 9.958 2.000
10.056 -5.730 0.200
-5.853 9.959 0.200
10.056 -5.730 1.200
-5.853 9.959 1.200
10.056 -5.730 2.000
-5.853 9.959 2.000
-5.653 9.961 0.200
-5.653 9.961 1.200
-5.653 9.961 2.000
10.053 -5.330 0.200
-5.453 9.962 0.200
10.053 -5.330 1.200
-5.453 9.962 1.200
10.053 -5.330 2.000
-5.453 9.962 2.000
-5.253 9.964 0.200
-5.253 9.964 1.200
-5.253 9.964 2.000
10.050 -4.930 0.200
-5.053 9.965 0.200
10.050 -4.930 1.200
-5.053 9.965 1.200
10.050 -4.930 2.000
-5.053 9.965 2.000
10.049 -4.730 0.200
-4.853 9.966 0.200
10.049 -4.730 1.200
-4.853 9.966 1.200
10.049 -4.730 2.000
-4.853 9.966 2.000
-4.653 9.968 0.200
-4.653 9.968 1.200
-4.653 9.968 2.000
10.046 -4.330 0.200
-4.453 9.969 0.200
10.046 -4.330 1.200
-4.453 9.969 1.200
10.046 -4.330 2.000
-4.453 9.969 2.000
-4.253 9.971 0.200
-4.253 9.971 1.200
-4.253 9.971 2.000
10.043 -3.930 0.200
-4.053 9.972 0.200
10.043 -3.930 1.200
-4.053 9.972 1.200
10.043 -3.930 2.000
-4.053 9.972 2.000
-3.853 9.973 0.200
-3.853 9.973 1.200
-3.853 9.973 2.000
-3.653 9.975 0.200
-3.653 9.975 1.200
-3.653 9.975 2.000
10.039 -3.330 0.200
-3.453 9.976 0.200
10.039 -3.330 1.200
-3.453 9.976 1.200
10.039 -3.330 2.000
-3.453 9.976 2.000
10.038 -3.130 0.200
-3.253 9.978 0.200
10.038 -3.130 1.200
-3.253 9.978 1.200
10.038 -3.130 2.000
-3.253 9.978 2.000
10.036 -2.931 0.200
-3.053 9.979 0.200
10.036 -2.931 1.200
-3.053 9.979 1.200
10.036 -2.931 2.000
-3.053 9.979 2.000
-2.853 9.980 0.200
-2.853 9.980 1.200
-2.853 9.980 2.000
-2.653 9.982 0.200
-2.653 9.982 1.200
-2.653 9.982 2.000
10.032 -2.331 0.200
-2.453 9.983 0.200
10.032 -2.331 1.200
-2.453 9.983 1.200
10.032 -2.331 2.000
-2.453 9.983 2.000
10.031 -2.131 0.200
-2.254 9.984 0.200
10.031 -2.131 1.200
-2.254 9.984 1.200
10.031 -2.131 2.000
-2.254 9.984 2.000
10.030 -1.931 0.200
-2.054 9.986 0.200
10.030 -1.931 1.200
-2.054 9.986 1.200
10.030 -1.931 2.000
-2.054 9.986 2.000
-1.854 9.987 0.200
-1.854 9.987 1.200
-1.854 9.987 2.000
10.027 -1.531 0.200
-1.654 9.989 0.200
10.027 -1.531 1.200
-1.654 9.989 1.200
10.027 -1.531 2.000
-1.654 9.989 2.000
-1.454 9.990 0.200
-1.454 9.990 1.200
-1.454 9.990 2.000
10.024 -1.131 0.200
-1.254 9.991 0.200
10.024 -1.131 1.200
-1.254 9.991 1.200
10.024 -1.131 2.000
-1.254 9.991 2.000
10.023 -0.931 0.200
-1.054 9.993 0.200
10.023 -0.931 1.200
-1.054 9.993 1.200
10.023 -0.931 2.000
-1.054 9.993 2.000
10.021 -0.731 0.200
-0.854 9.994 0.200
10.021 -0.731 1.200
-0.854 9.994 1.200
10.021 -0.731 2.000
-0.854 9.994 2.000
10.020 -0.531 0.200
-0.654 9.996 0.200
10.020 -0.531 1.200
-0.654 9.996 1.200
10.020 -0.531 2.000
-0.654 9.996 2.000
10.018 -0.331 0.200
-0.454 9.997 0.200
10.018 -0.331 1.200
-0.454 9.997 1.200
10.018 -0.331 2.000
-0.454 9.997 2.000
10.017 -0.131 0.200
-0.254 9.998 0.200
10.017 -0.131 1.200
-0.254 9.998 1.200
10.017 -0.131 2.000
-0.254 9.998 2.000
-0.054 10.000 0.200
-0.054 10.000 1.200
-0.054 10.000 2.000
0.146 10.001 0.200
0.146 10.001 1.200
0.146 10.001 2.000
0.346 10.003 0.200
0.346 10.003 1.200
0.346 10.003 2.000
0.546 10.004 0.200
0.546 10.004 1.200
0.546 10.004 2.000
0.746 10.005 0.200
0.746 10.005 1.200
0.746 10.005 2.000
0.946 10.007 0.200
0.946 10.007 1.200
0.946 10.007 2.000
1.146 10.008 0.200
1.146 10.008 1.200
1.146 10.008 2.000
10.006 1.469 0.200
10.006 1.469 1.200
10.006 1.469 2.000
1.546 10.011 0.200
1.546 10.011 1.200
1.546 10.011 2.000
10.003 1.869 0.200
10.003 1.869 1.200
10.003 1.869 2.000
1.946 10.014 0.200
1.946 10.014 1.200
1.946 10.014 2.000
2.146 10.015 0.200
2.146 10.015 1.200
2.146 10.015 2.000
9.999 2.469 0.200
2.346 10.016 0.200
9.999 2.469 1.200
2.346 10.016 1.200
9.999 2.469 2.000
2.346 10.016 2.000
9.998 2.669 0.200
9.998 2.669 1.200
9.998 2.669 2.000
9.996 2.869 0.200
9.996 2.869 1.200
9.996 2.869 2.000
9.995 3.069 0.200
2.946 10.021 0.200
9.995 3.069 1.200
2.946 10.021 1.200
9.995 3.069 2.000
2.946 10.021 2.000
9.993 3.269 0.200
3.146 10.022 0.200
9.993 3.269 1.200
3.146 10.022 1.200
9.993 3.269 2.000
3.146 10.022 2.000
9.992 3.469 0.200
3.346 10.023 0.200
9.992 3.469 1.200
3.346 10.023 1.200
9.992 3.469 2.000
3.346 10.023 2.000
9.991 3.669 0.200
9.991 3.669 1.200
9.991 3.669 2.000
9.989 3.869 0.200
9.989 3.869 1.200
9.989 3.869 2.000
9.988 4.069 0.200
3.946 10.028 0.200
9.988 4.069 1.200
3.946 10.028 1.200
9.988 4.069 2.000
3.946 10.028 2.000
9.986 4.269 0.200
9.986 4.269 1.200
9.986 4.269 2.000
9.985 4.469 0.200
4.346 10.030 0.200
9.985 4.469 1.200
4.346 10.030 1.200
9.985 4.469 2.000
4.346 10.030 2.000
9.984 4.669 0.200
9.984 4.669 1.200
9.984 4.669 2.000
9.982 4.869 0.200
4.746 10.033 0.200
9.982 4.869 1.200
4.746 10.033 1.200
9.982 4.869 2.000
4.746 10.033 2.000
9.981 5.069 0.200
4.946 10.034 0.200
9.981 5.069 1.200
4.946 10.034 1.200
9.981 5.069 2.000
4.946 10.034 2.000
9.980 5.269 0.200
9.980 5.269 1.200
9.980 5.269 2.000
9.978 5.469 0.200
5.346 10.037 0.200
9.978 5.469 1.200
5.346 10.037 1.200
9.978 5.469 2.000
5.346 10.037 2.000
9.977 5.669 0.200
9.977 5.669 1.200
9.977 5.669 2.000
9.975 5.869 0.200
5.746 10.040 0.200
9.975 5.869 1.200
5.746 10.040 1.200
9.975 5.869 2.000
5.746 10.040 2.000
9.974 6.069 0.200
5.946 10.041 0.200
9.974 6.069 1.200
5.946 10.041 1.200
9.974 6.069 2.000
5.946 10.041 2.000
9.973 6.269 0.200
9.973 6.269 1.200
9.973 6.269 2.000
9.971 6.469 0.200
6.346 10.044 0.200
9.971 6.469 1.200
6.346 10.044 1.200
9.971 6.469 2.000
6.346 10.044 2.000
9.970 6.669 0.200
9.970 6.669 1.200
9.970 6.669 2.000
9.968 6.869 0.200
6.746 10.047 0.200
9.968 6.869 1.200
6.746 10.047 1.200
9.968 6.869 2.000
6.746 10.047 2.000
9.967 7.069 0.200
6.946 10.048 0.200
9.967 7.069 1.200
6.946 10.048 1.200
9.967 7.069 2.000
6.946 10.048 2.000
9.966 7.269 0.200
9.966 7.269 1.200
9.966 7.269 2.000
9.964 7.469 0.200
7.346 10.051 0.200
9.964 7.469 1.200
7.346 10.051 1.200
9.964 7.469 2.000
7.346 10.051 2.000
9.963 7.669 0.200
9.963 7.669 1.200
9.963 7.669 2.000
9.961 7.869 0.200
7.746 10.054 0.200
9.961 7.869 1.200
7.746 10.054 1.200
9.961 7.869 2.000
7.746 10.054 2.000
9.960 8.069 0.200
7.946 10.055 0.200
9.960 8.069 1.200
7.946 10.055 1.200
9.960 8.069 2.000
7.946 10.055 2.000
9.959 8.269 0.200
9.959 8.269 1.200
9.959 8.269 2.000
9.957 8.469 0.200
9.957 8.469 1.200
9.957 8.469 2.000
9.956 8.669 0.200
8.546 10.059 0.200
9.956 8.669 1.200
8.546 10.059 1.200
9.956 8.669 2.000
8.546 10.059 2.000
9.955 8.869 0.200
8.746 10.061 0.200
9.955 8.869 1.200
8.746 10.061 1.200
9.955 8.869 2.000
8.746 10.061 2.000
9.953 9.069 0.200
8.946 10.062 0.200
9.953 9.069 1.200
8.946 10.062 1.200
9.953 9.069 2.000
8.946 10.062 2.000
9.952 9.269 0.200
9.952 9.269 1.200
9.952 9.269 2.000
9.950 9.469 0.200
9.950 9.469 1.200
9.950 9.469 2.000
9.949 9.669 0.200
9.546 10.066 0.200
9.949 9.669 1.200
9.546 10.066 1.200
9.949 9.669 2.000
9.546 10.066 2.000
9.948 9.869 0.200
9.746 10.068 0.200
9.948 9.869 1.200
9.746 10.068 1.200
9.948 9.869 2.000
9.746 10.068 2.000
9.946 10.069 0.200
9.946 10.069 1.200
9.946 10.069 2.000
-5.842 -6.041 0.200
-5.842 -6.041 0.800
-5.842 -6.041 1.400
-5.842 -6.041 2.000
-5.855 -5.993 0.200
-5.855 -5.993 0.800
-5.855 -5.993 1.400
-5.855 -5.993 2.000
-6.007 -6.118 0.200
-6.007 -6.118 0.800
-6.007 -6.118 1.400
-6.007 -6.118 2.000
-5.963 -6.139 0.200
-5.963 -6.139 0.800
-5.963 -6.139 1.400
-5.963 -6.139 2.000
-5.871 -6.112 0.200
-5.871 -6.112 0.800
-5.871 -6.112 1.400
-5.871 -6.112 2.000
-6.106 6.017 0.200
-6.106 6.017 0.800
-6.106 6.017 1.400
-6.106 6.017 2.000
-6.125 5.972 0.200
-6.125 5.972 0.800
-6.125 5.972 1.400
-6.125 5.972 2.000
-6.090 5.882 0.200
-6.090 5.882 0.800
-6.090 5.882 1.400
-6.090 5.882 2.000
-5.997 5.863 0.200
-5.997 5.863 0.800
-5.997 5.863 1.400
-5.997 5.863 2.000
6.157 -5.958 0.200
6.157 -5.958 0.800
6.157 -5.958 1.400
6.157 -5.958 2.000
6.111 -5.874 0.200
6.111 -5.874 0.800
6.111 -5.874 1.400
6.111 -5.874 2.000
6.064 -5.858 0.200
6.064 -5.858 0.800
6.064 -5.858 1.400
6.064 -5.858 2.000
5.977 -5.899 0.200
5.977 -5.899 0.800
5.977 -5.899 1.400
5.977 -5.899 2.000
6.129 -6.028 0.200
6.129 -6.028 0.800
6.129 -6.028 1.400
6.129 -6.028 2.000
6.028 6.126 0.200
6.028 6.126 0.800
6.028 6.126 1.400
6.028 6.126 2.000
5.980 6.141 0.200
5.980 6.141 0.800
5.980 6.141 1.400
5.980 6.141 2.000
5.894 6.101 0.200
5.894 6.101 0.800
5.894 6.101 1.400
5.894 6.101 2.000
5.875 6.055 0.200
5.875 6.055 0.800
5.875 6.055 1.400
5.875 6.055 2.000
-3.111 3.993 0.200
-3.111 3.993 0.800
-3.111 3.993 1.400
-3.111 3.993 2.000
-3.032 3.881 0.200
-3.032 3.881 0.800
-3.032 3.881 1.400
-3.032 3.881 2.000
-2.983 3.883 0.200
-2.983 3.883 0.800
-2.983 3.883 1.400
-2.983 3.883 2.000
4.048 3.112 0.200
4.048 3.112 0.800
4.048 3.112 1.400
4.048 3.112 2.000
3.953 3.118 0.200
3.953 3.118 0.800
3.953 3.118 1.400
3.953 3.118 2.000
3.896 3.041 0.200
3.896 3.041 0.800
3.896 3.041 1.400
3.896 3.041 2.000
2.044 -3.986 0.200
2.030 -1.986 0.200
4.044 -3.972 0.200
2.044 -3.986 0.500
2.030 -1.986 0.500
4.044 -3.972 0.500
2.044 -3.986 0.800
2.030 -1.986 0.800
4.044 -3.972 0.800
2.294 -3.984 0.200
2.280 -1.984 0.200
2.294 -3.984 0.500
2.280 -1.984 0.500
2.294 -3.984 0.800
2.280 -1.984 0.800
2.544 -3.983 0.200
2.530 -1.983 0.200
2.040 -3.486 0.200
4.040 -3.472 0.200
2.544 -3.983 0.500
2.530 -1.983 0.500
2.040 -3.486 0.500
4.040 -3.472 0.500
2.544 -3.983 0.800
2.530 -1.983 0.800
2.040 -3.486 0.800
4.040 -3.472 0.800
2.794 -3.981 0.200
2.780 -1.981 0.200
2.794 -3.981 0.500
2.780 -1.981 0.500
2.794 -3.981 0.800
2.780 -1.981 0.800
3.044 -3.979 0.200
3.030 -1.979 0.200
2.037 -2.986 0.200
4.037 -2.972 0.200
3.044 -3.979 0.500
3.030 -1.979 0.500
2.037 -2.986 0.500
4.037 -2.972 0.500
3.044 -3.979 0.800
3.030 -1.979 0.800
2.037 -2.986 0.800
4.037 -2.972 0.800
3.294 -3.977 0.200
3.280 -1.977 0.200
3.294 -3.977 0.500
3.280 -1.977 0.500
3.294 -3.977 0.800
3.280 -1.977 0.800
3.544 -3.976 0.200
3.530 -1.976 0.200
2.033 -2.486 0.200
4.033 -2.472 0.200
3.544 -3.976 0.500
3.530 -1.976 0.500
2.033 -2.486 0.500
4.033 -2.472 0.500
3.544 -3.976 0.800
3.530 -1.976 0.800
2.033 -2.486 0.800
4.033 -2.472 0.800
3.794 -3.974 0.200
3.780 -1.974 0.200
3.794 -3.974 0.500
3.780 -1.974 0.500
3.794 -3.974 0.800
3.780 -1.974 0.800
4.030 -1.972 0.200
4.030 -1.972 0.500
4.030 -1.972 0.800
-5.842 -6.041 0.800
-5.855 -5.993 0.800
-5.936 -5.942 0.800
-6.023 -5.982 0.800
-6.041 -6.028 0.800
-6.007 -6.118 0.800
-5.962 -6.140 0.800
-5.871 -6.112 0.800
-5.926 5.959 0.800
-5.938 6.007 0.800
-6.019 6.058 0.800
-6.106 6.017 0.800
-6.125 5.971 0.800
-6.091 5.882 0.800
-5.997 5.862 0.800
6.158 -5.957 0.800
6.111 -5.873 0.800
6.064 -5.858 0.800
5.977 -5.899 0.800
5.959 -5.945 0.800
5.993 -6.034 0.800
6.037 -6.056 0.800
6.129 -6.028 0.800
6.074 6.042 0.800
6.027 6.126 0.800
5.980 6.142 0.800
5.893 6.101 0.800
5.875 6.055 0.800
5.909 5.966 0.800
6.003 5.946 0.800
-2.912 3.980 0.800
-2.924 4.028 0.800
-3.006 4.079 0.800
-3.111 3.992 0.800
-3.077 3.903 0.800
-3.032 3.881 0.800
-2.983 3.883 0.800
4.095 3.029 0.800
4.048 3.112 0.800
3.953 3.118 0.800
3.914 3.087 0.800
3.896 3.041 0.800
3.902 2.992 0.800
4.024 2.932 0.800
2.044 -3.986 0.800
2.030 -1.986 0.800
4.044 -3.972 0.800
2.294 -3.984 0.800
2.280 -1.984 0.800
2.042 -3.736 0.800
4.042 -3.722 0.800
2.544 -3.982 0.800
2.530 -1.983 0.800
2.040 -3.486 0.800
4.040 -3.472 0.800
2.794 -3.981 0.800
2.780 -1.981 0.800
2.039 -3.236 0.800
4.039 -3.222 0.800
3.044 -3.979 0.800
3.030 -1.979 0.800
2.037 -2.986 0.800
4.037 -2.972 0.800
3.294 -3.977 0.800
3.280 -1.977 0.800
2.035 -2.736 0.800
4.035 -2.722 0.800
3.544 -3.975 0.800
3.530 -1.976 0.800
2.033 -2.486 0.800
4.033 -2.472 0.800
3.794 -3.974 0.800
3.780 -1.974 0.800
2.032 -2.236 0.800
4.032 -2.222 0.800
4.030 -1.972 0.800
-10.000 -9.600 0.200
-9.600 -10.000 0.200
-10.000 -9.600 1.200
-9.600 -10.000 1.200
-10.000 -9.600 2.000
-9.600 -10.000 2.000
-10.000 -9.400 0.200
-10.000 -9.400 1.200
-10.000 -9.400 2.000
-10.000 -9.200 0.200
-9.200 -10.000 0.200
-10.000 -9.200 1.200
-9.200 -10.000 1.200
-10.000 -9.200 2.000
-9.200 -10.000 2.000
-9.000 -10.000 0.200
-9.000 -10.000 1.200
-9.000 -10.000 2.000
-10.000 -8.800 0.200
-8.800 -10.000 0.200
-10.000 -8.800 1.200
-8.800 -10.000 1.200
-10.000 -8.800 2.000
-8.800 -10.000 2.000
-10.000 -8.600 0.200
-10.000 -8.600 1.200
-10.000 -8.600 2.000
-10.000 -8.400 0.200
-8.400 -10.000 0.200
-10.000 -8.400 1.200
-8.400 -10.000 1.200
-10.000 -8.400 2.000
-8.400 -10.000 2.000
-10.000 -8.200 0.200
-8.200 -10.000 0.200
-10.000 -8.200 1.200
-8.200 -10.000 1.200
-10.000 -8.200 2.000
-8.200 -10.000 2.000
-10.000 -7.800 0.200
-10.000 -7.800 1.200
-10.000 -7.800 2.000
-10.000 -7.600 0.200
-7.600 -10.000 0.200
-10.000 -7.600 1.200
-7.600 -10.000 1.200
-10.000 -7.600 2.000
-7.600 -10.000 2.000
-10.000 -7.200 0.200
-7.200 -10.000 0.200
-10.000 -7.200 1.200
-7.200 -10.000 1.200
-10.000 -7.200 2.000
-7.200 -10.000 2.000
-7.000 -10.000 0.200
-7.000 -10.000 1.200
-7.000 -10.000 2.000
-10.000 -6.800 0.200
-6.800 -10.000 0.200
-10.000 -6.800 1.200
-6.800 -10.000 1.200
-10.000 -6.800 2.000
-6.800 -10.000 2.000
-6.600 -10.000 0.200
-6.600 -10.000 1.200
-6.600 -10.000 2.000
-6.400 -10.000 0.200
-6.400 -10.000 1.200
-6.400 -10.000 2.000
-10.000 -6.200 0.200
-6.200 -10.000 0.200
-10.000 -6.200 1.200
-6.200 -10.000 1.200
-10.000 -6.200 2.000
-6.200 -10.000 2.000
-10.000 -5.800 0.200
-5.800 -10.000 0.200
-10.000 -5.800 1.200
-5.800 -10.000 1.200
-10.000 -5.800 2.000
-5.800 -10.000 2.000
-10.000 -5.600 0.200
-5.600 -10.000 0.200
-10.000 -5.600 1.200
-5.600 -10.000 1.200
-10.000 -5.600 2.000
-5.600 -10.000 2.000
-10.000 -5.200 0.200
-5.200 -10.000 0.200
-10.000 -5.200 1.200
-5.200 -10.000 1.200
-10.000 -5.200 2.000
-5.200 -10.000 2.000
-5.000 -10.000 0.200
-5.000 -10.000 1.200
-5.000 -10.000 2.000
-10.000 -4.800 0.200
-4.800 -10.000 0.200
-10.000 -4.800 1.200
-4.800 -10.000 1.200
-10.000 -4.800 2.000
-4.800 -10.000 2.000
-10.000 -4.600 0.200
-4.600 -10.000 0.200
-10.000 -4.600 1.200
-4.600 -10.000 1.200
-10.000 -4.600 2.000
-4.600 -10.000 2.000
-10.000 -4.400 0.200
-4.400 -10.000 0.200
-10.000 -4.400 1.200
-4.400 -10.000 1.200
-10.000 -4.400 2.000
-4.400 -10.000 2.000
-10.000 -4.200 0.200
-10.000 -4.200 1.200
-10.000 -4.200 2.000
-10.000 -3.800 0.200
-3.800 -10.000 0.200
-10.000 -3.800 1.200
-3.800 -10.000 1.200
-10.000 -3.800 2.000
-3.800 -10.000 2.000
-10.000 -3.600 0.200
-10.000 -3.600 1.200
-10.000 -3.600 2.000
-10.000 -3.400 0.200
-10.000 -3.400 1.200
-10.000 -3.400 2.000
-3.200 -10.000 0.200
-3.200 -10.000 1.200
-3.200 -10.000 2.000
-3.000 -10.000 0.200
-3.000 -10.000 1.200
-3.000 -10.000 2.000
-10.000 -2.800 0.200
-2.800 -10.000 0.200
-10.000 -2.800 1.200
-2.800 -10.000 1.200
-10.000 -2.800 2.000
-2.800 -10.000 2.000
-10.000 -2.600 0.200
-2.600 -10.000 0.200
-10.000 -2.600 1.200
-2.600 -10.000 1.200
-10.000 -2.600 2.000
-2.600 -10.000 2.000
-10.000 -2.400 0.200
-2.400 -10.000 0.200
-10.000 -2.400 1.200
-2.400 -10.000 1.200
-10.000 -2.400 2.000
-2.400 -10.000 2.000
-10.000 -2.200 0.200
-2.200 -10.000 0.200
-10.000 -2.200 1.200
-2.200 -10.000 1.200
-10.000 -2.200 2.000
-2.200 -10.000 2.000
-10.000 -1.800 0.200
-1.800 -10.000 0.200
-10.000 -1.800 1.200
-1.800 -10.000 1.200
-10.000 -1.800 2.000
-1.800 -10.000 2.000
-10.000 -1.400 0.200
-1.400 -10.000 0.200
-10.000 -1.400 1.200
-1.400 -10.000 1.200
-10.000 -1.400 2.000
-1.400 -10.000 2.000
-10.000 -1.000 0.200
-1.000 -10.000 0.200
-10.000 -1.000 1.200
-1.000 -10.000 1.200
-10.000 -1.000 2.000
-1.000 -10.000 2.000
-10.000 -0.800 0.200
-0.800 -10.000 0.200
-10.000 -0.800 1.200
-0.800 -10.000 1.200
-10.000 -0.800 2.000
-0.800 -10.000 2.000
-0.600 -10.000 0.200
-0.600 -10.000 1.200
-0.600 -10.000 2.000
-10.000 -0.400 0.200
-0.400 -10.000 0.200
-10.000 -0.400 1.200
-0.400 -10.000 1.200
-10.000 -0.400 2.000
-0.400 -10.000 2.000
-10.000 0.200 0.200
0.200 -10.000 0.200
-10.000 0.200 1.200
0.200 -10.000 1.200
-10.000 0.200 2.000
0.200 -10.000 2.000
-10.000 0.400 0.200
-10.000 0.400 1.200
-10.000 0.400 2.000
-10.000 0.600 0.200
0.600 -10.000 0.200
-10.000 0.600 1.200
0.600 -10.000 1.200
-10.000 0.600 2.000
0.600 -10.000 2.000
-10.000 0.800 0.200
-10.000 0.800 1.200
-10.000 0.800 2.000
-10.000 1.000 0.200
1.000 -10.000 0.200
-10.000 1.000 1.200
1.000 -10.000 1.200
-10.000 1.000 2.000
1.000 -10.000 2.000
1.200 -10.000 0.200
1.200 -10.000 1.200
1.200 -10.000 2.000
1.400 -10.000 0.200
1.400 -10.000 1.200
1.400 -10.000 2.000
-10.000 1.600 0.200
1.600 -10.000 0.200
-10.000 1.600 1.200
1.600 -10.000 1.200
-10.000 1.600 2.000
1.600 -10.000 2.000
-10.000 1.800 0.200
1.800 -10.000 0.200
-10.000 1.800 1.200
1.800 -10.000 1.200
-10.000 1.800 2.000
1.800 -10.000 2.000
-10.000 2.000 0.200
2.000 -10.000 0.200
-10.000 2.000 1.200
2.000 -10.000 1.200
-10.000 2.000 2.000
2.000 -10.000 2.000
2.200 -10.000 0.200
2.200 -10.000 1.200
2.200 -10.000 2.000
-10.000 2.400 0.200
2.400 -10.000 0.200
-10.000 2.400 1.200
2.400 -10.000 1.200
-10.000 2.400 2.000
2.400 -10.000 2.000
-10.000 2.600 0.200
2.600 -10.000 0.200
-10.000 2.600 1.200
2.600 -10.000 1.200
-10.000 2.600 2.000
2.600 -10.000 2.000
-10.000 2.800 0.200
2.800 -10.000 0.200
-10.000 2.800 1.200
2.800 -10.000 1.200
-10.000 2.800 2.000
2.800 -10.000 2.000
3.000 -10.000 0.200
3.000 -10.000 1.200
3.000 -10.000 2.000
-10.000 3.400 0.200
3.400 -10.000 0.200
-10.000 3.400 1.200
3.400 -10.000 1.200
-10.000 3.400 2.000
3.400 -10.000 2.000
-10.000 3.600 0.200
3.600 -10.000 0.200
-10.000 3.600 1.200
3.600 -10.000 1.200
-10.000 3.600 2.000
3.600 -10.000 2.000
-10.000 3.800 0.200
-10.000 3.800 1.200
-10.000 3.800 2.000
-10.000 4.000 0.200
4.000 -10.000 0.200
-10.000 4.000 1.200
4.000 -10.000 1.200
-10.000 4.000 2.000
4.000 -10.000 2.000
4.200 -10.000 0.200
4.200 -10.000 1.200
4.200 -10.000 2.000
-10.000 4.400 0.200
4.400 -10.000 0.200
-10.000 4.400 1.200
4.400 -10.000 1.200
-10.000 4.400 2.000
4.400 -10.000 2.000
-10.000 4.600 0.200
4.600 -10.000 0.200
-10.000 4.600 1.200
4.600 -10.000 1.200
-10.000 4.600 2.000
4.600 -10.000 2.000
-10.000 5.000 0.200
5.000 -10.000 0.200
-10.000 5.000 1.200
5.000 -10.000 1.200
-10.000 5.000 2.000
5.000 -10.000 2.000
5.200 -10.000 0.200
5.200 -10.000 1.200
5.200 -10.000 2.000
-10.000 5.600 0.200
5.600 -10.000 0.200
-10.000 5.600 1.200
5.600 -10.000 1.200
-10.000 5.600 2.000
5.600 -10.000 2.000
-10.000 6.000 0.200
6.000 -10.000 0.200
-10.000 6.000 1.200
6.000 -10.000 1.200
-10.000 6.000 2.000
6.000 -10.000 2.000
-10.000 6.200 0.200
6.200 -10.000 0.200
-10.000 6.200 1.200
6.200 -10.000 1.200
-10.000 6.200 2.000
6.200 -10.000 2.000
6.600 -10.000 0.200
6.600 -10.000 1.200
6.600 -10.000 2.000
-10.000 6.800 0.200
-10.000 6.800 1.200
-10.000 6.800 2.000
7.000 -10.000 0.200
7.000 -10.000 1.200
7.000 -10.000 2.000
7.200 -10.000 0.200
7.200 -10.000 1.200
7.200 -10.000 2.000
-10.000 7.400 0.200
7.400 -10.000 0.200
-10.000 7.400 1.200
7.400 -10.000 1.200
-10.000 7.400 2.000
7.400 -10.000 2.000
-10.000 7.600 0.200
7.600 -10.000 0.200
-10.000 7.600 1.200
7.600 -10.000 1.200
-10.000 7.600 2.000
7.600 -10.000 2.000
7.800 -10.000 0.200
7.800 -10.000 1.200
7.800 -10.000 2.000
-10.000 8.000 0.200
-10.000 8.000 1.200
-10.000 8.000 2.000
-10.000 8.200 0.200
8.200 -10.000 0.200
-10.000 8.200 1.200
8.200 -10.000 1.200
-10.000 8.200 2.000
8.200 -10.000 2.000
-10.000 8.400 0.200
8.400 -10.000 0.200
-10.000 8.400 1.200
8.400 -10.000 1.200
-10.000 8.400 2.000
8.400 -10.000 2.000
-10.000 8.600 0.200
8.600 -10.000 0.200
-10.000 8.600 1.200
8.600 -10.000 1.200
-10.000 8.600 2.000
8.600 -10.000 2.000
-10.000 9.200 0.200
9.200 -10.000 0.200
-10.000 9.200 1.200
9.200 -10.000 1.200
-10.000 9.200 2.000
9.200 -10.000 2.000
-10.000 9.400 0.200
9.400 -10.000 0.200
-10.000 9.400 1.200
9.400 -10.000 1.200
-10.000 9.400 2.000
9.400 -10.000 2.000
9.600 -10.000 0.200
9.600 -10.000 1.200
9.600 -10.000 2.000
-10.000 9.800 0.200
-10.000 9.800 1.200
-10.000 9.800 2.000
-10.000 10.000 0.200
-10.000 10.000 1.200
-10.000 10.000 2.000
10.000 -9.800 0.200
10.000 -9.800 1.200
10.000 -9.800 2.000
10.000 -9.600 0.200
10.000 -9.600 1.200
10.000 -9.600 2.000
10.000 -9.400 0.200
-9.400 10.000 0.200
10.000 -9.400 1.200
-9.400 10.000 1.200
10.000 -9.400 2.000
-9.400 10.000 2.000
10.000 -9.200 0.200
-9.200 10.000 0.200
10.000 -9.200 1.200
-9.200 10.000 1.200
10.000 -9.200 2.000
-9.200 10.000 2.000
10.000 -9.000 0.200
-9.000 10.000 0.200
10.000 -9.000 1.200
-9.000 10.000 1.200
10.000 -9.000 2.000
-9.000 10.000 2.000
10.000 -8.600 0.200
-8.600 10.000 0.200
10.000 -8.600 1.200
-8.600 10.000 1.200
10.000 -8.600 2.000
-8.600 10.000 2.000
10.000 -8.400 0.200
-8.400 10.000 0.200
10.000 -8.400 1.200
-8.400 10.000 1.200
10.000 -8.400 2.000
-8.400 10.000 2.000
10.000 -8.200 0.200
-8.200 10.000 0.200
10.000 -8.200 1.200
-8.200 10.000 1.200
10.000 -8.200 2.000
-8.200 10.000 2.000
10.000 -8.000 0.200
-8.000 10.000 0.200
10.000 -8.000 1.200
-8.000 10.000 1.200
10.000 -8.000 2.000
-8.000 10.000 2.000
10.000 -7.600 0.200
-7.600 10.000 0.200
10.000 -7.600 1.200
-7.600 10.000 1.200
10.000 -7.600 2.000
-7.600 10.000 2.000
10.000 -7.400 0.200
-7.400 10.000 0.200
10.000 -7.400 1.200
-7.400 10.000 1.200
10.000 -7.400 2.000
-7.400 10.000 2.000
10.000 -7.200 0.200
-7.200 10.000 0.200
10.000 -7.200 1.200
-7.200 10.000 1.200
10.000 -7.200 2.000
-7.200 10.000 2.000
-7.000 10.000 0.200
-7.000 10.000 1.200
-7.000 10.000 2.000
10.000 -6.600 0.200
-6.600 10.000 0.200
10.000 -6.600 1.200
-6.600 10.000 1.200
10.000 -6.600 2.000
-6.600 10.000 2.000
10.000 -6.200 0.200
10.000 -6.200 1.200
10.000 -6.200 2.000
10.000 -6.000 0.200
-6.000 10.000 0.200
10.000 -6.000 1.200
-6.000 10.000 1.200
10.000 -6.000 2.000
-6.000 10.000 2.000
10.000 -5.800 0.200
-5.800 10.000 0.200
10.000 -5.800 1.200
-5.800 10.000 1.200
10.000 -5.800 2.000
-5.800 10.000 2.000
10.000 -5.600 0.200
-5.600 10.000 0.200
10.000 -5.600 1.200
-5.600 10.000 1.200
10.000 -5.600 2.000
-5.600 10.000 2.000
10.000 -5.400 0.200
10.000 -5.400 1.200
10.000 -5.400 2.000
10.000 -5.200 0.200
10.000 -5.200 1.200
10.000 -5.200 2.000
-5.000 10.000 0.200
-5.000 10.000 1.200
-5.000 10.000 2.000
10.000 -4.800 0.200
-4.800 10.000 0.200
10.000 -4.800 1.200
-4.800 10.000 1.200
10.000 -4.800 2.000
-4.800 10.000 2.000
10.000 -4.600 0.200
-4.600 10.000 0.200
10.000 -4.600 1.200
-4.600 10.000 1.200
10.000 -4.600 2.000
-4.600 10.000 2.000
10.000 -4.200 0.200
-4.200 10.000 0.200
10.000 -4.200 1.200
-4.200 10.000 1.200
10.000 -4.200 2.000
-4.200 10.000 2.000
10.000 -4.000 0.200
10.000 -4.000 1.200
10.000 -4.000 2.000
10.000 -3.800 0.200
-3.800 10.000 0.200
10.000 -3.800 1.200
-3.800 10.000 1.200
10.000 -3.800 2.000
-3.800 10.000 2.000
10.000 -3.600 0.200
-3.600 10.000 0.200
10.000 -3.600 1.200
-3.600 10.000 1.200
10.000 -3.600 2.000
-3.600 10.000 2.000
10.000 -3.400 0.200
10.000 -3.400 1.200
10.000 -3.400 2.000
10.000 -3.200 0.200
10.000 -3.200 1.200
10.000 -3.200 2.000
-3.000 10.000 0.200
-3.000 10.000 1.200
-3.000 10.000 2.000
10.000 -2.800 0.200
10.000 -2.800 1.200
10.000 -2.800 2.000
10.000 -2.600 0.200
-2.600 10.000 0.200
10.000 -2.600 1.200
-2.600 10.000 1.200
10.000 -2.600 2.000
-2.600 10.000 2.000
-2.400 10.000 0.200
-2.400 10.000 1.200
-2.400 10.000 2.000
10.000 -2.200 0.200
10.000 -2.200 1.200
10.000 -2.200 2.000
10.000 -2.000 0.200
-2.000 10.000 0.200
10.000 -2.000 1.200
-2.000 10.000 1.200
10.000 -2.000 2.000
-2.000 10.000 2.000
10.000 -1.800 0.200
10.000 -1.800 1.200
10.000 -1.800 2.000
-1.600 10.000 0.200
-1.600 10.000 1.200
-1.600 10.000 2.000
10.000 -1.400 0.200
-1.400 10.000 0.200
10.000 -1.400 1.200
-1.400 10.000 1.200
10.000 -1.400 2.000
-1.400 10.000 2.000
-1.000 10.000 0.200
-1.000 10.000 1.200
-1.000 10.000 2.000
10.000 -0.800 0.200
-0.800 10.000 0.200
10.000 -0.800 1.200
-0.800 10.000 1.200
10.000 -0.800 2.000
-0.800 10.000 2.000
10.000 -0.600 0.200
10.000 -0.600 1.200
10.000 -0.600 2.000
-0.400 10.000 0.200
-0.400 10.000 1.200
-0.400 10.000 2.000
10.000 -0.200 0.200
10.000 -0.200 1.200
10.000 -0.200 2.000
10.000 0.400 0.200
0.400 10.000 0.200
10.000 0.400 1.200
0.400 10.000 1.200
10.000 0.400 2.000
0.400 10.000 2.000
10.000 0.600 0.200
0.600 10.000 0.200
10.000 0.600 1.200
0.600 10.000 1.200
10.000 0.600 2.000
0.600 10.000 2.000
10.000 0.800 0.200
0.800 10.000 0.200
10.000 0.800 1.200
0.800 10.000 1.200
10.000 0.800 2.000
0.800 10.000 2.000
10.000 1.000 0.200
1.000 10.000 0.200
10.000 1.000 1.200
1.000 10.000 1.200
10.000 1.000 2.000
1.000 10.000 2.000
10.000 1.200 0.200
10.000 1.200 1.200
10.000 1.200 2.000
10.000 1.400 0.200
1.400 10.000 0.200
10.000 1.400 1.200
1.400 10.000 1.200
10.000 1.400 2.000
1.400 10.000 2.000
10.000 1.600 0.200
10.000 1.600 1.200
10.000 1.600 2.000
10.000 1.800 0.200
1.800 10.000 0.200
10.000 1.800 1.200
1.800 10.000 1.200
10.000 1.800 2.000
1.800 10.000 2.000
10.000 2.000 0.200
2.000 10.000 0.200
10.000 2.000 1.200
2.000 10.000 1.200
10.000 2.000 2.000
2.000 10.000 2.000
10.000 2.200 0.200
10.000 2.200 1.200
10.000 2.200 2.000
2.400 10.000 0.200
2.400 10.000 1.200
2.400 10.000 2.000
10.000 2.600 0.200
10.000 2.600 1.200
10.000 2.600 2.000
2.800 10.000 0.200
2.800 10.000 1.200
2.800 10.000 2.000
3.000 10.000 0.200
3.000 10.000 1.200
3.000 10.000 2.000
3.400 10.000 0.200
3.400 10.000 1.200
3.400 10.000 2.000
3.600 10.000 0.200
3.600 10.000 1.200
3.600 10.000 2.000
3.800 10.000 0.200
3.800 10.000 1.200
3.800 10.000 2.000
4.200 10.000 0.200
4.200 10.000 1.200
4.200 10.000 2.000
10.000 4.400 0.200
4.400 10.000 0.200
10.000 4.400 1.200
4.400 10.000 1.200
10.000 4.400 2.000
4.400 10.000 2.000
10.000 4.600 0.200
4.600 10.000 0.200
10.000 4.600 1.200
4.600 10.000 1.200
10.000 4.600 2.000
4.600 10.000 2.000
10.000 4.800 0.200
10.000 4.800 1.200
10.000 4.800 2.000
5.000 10.000 0.200
5.000 10.000 1.200
5.000 10.000 2.000
5.200 10.000 0.200
5.200 10.000 1.200
5.200 10.000 2.000
10.000 5.400 0.200
10.000 5.400 1.200
10.000 5.400 2.000
10.000 5.600 0.200
5.600 10.000 0.200
10.000 5.600 1.200
5.600 10.000 1.200
10.000 5.600 2.000
5.600 10.000 2.000
10.000 5.800 0.200
5.800 10.000 0.200
10.000 5.800 1.200
5.800 10.000 1.200
10.000 5.800 2.000
5.800 10.000 2.000
10.000 6.200 0.200
6.200 10.000 0.200
10.000 6.200 1.200
6.200 10.000 1.200
10.000 6.200 2.000
6.200 10.000 2.000
6.400 10.000 0.200
6.400 10.000 1.200
6.400 10.000 2.000
10.000 6.600 0.200
6.600 10.000 0.200
10.000 6.600 1.200
6.600 10.000 1.200
10.000 6.600 2.000
6.600 10.000 2.000
10.000 6.800 0.200
10.000 6.800 1.200
10.000 6.800 2.000
7.000 10.000 0.200
7.000 10.000 1.200
7.000 10.000 2.000
10.000 7.200 0.200
7.200 10.000 0.200
10.000 7.200 1.200
7.200 10.000 1.200
10.000 7.200 2.000
7.200 10.000 2.000
7.600 10.000 0.200
7.600 10.000 1.200
7.600 10.000 2.000
10.000 7.800 0.200
10.000 7.800 1.200
10.000 7.800 2.000
10.000 8.200 0.200
8.200 10.000 0.200
10.000 8.200 1.200
8.200 10.000 1.200
10.000 8.200 2.000
8.200 10.000 2.000
10.000 8.400 0.200
8.400 10.000 0.200
10.000 8.400 1.200
8.400 10.000 1.200
10.000 8.400 2.000
8.400 10.000 2.000
10.000 8.600 0.200
10.000 8.600 1.200
10.000 8.600 2.000
10.000 8.800 0.200
8.800 10.000 0.200
10.000 8.800 1.200
8.800 10.000 1.200
10.000 8.800 2.000
8.800 10.000 2.000
10.000 9.000 0.200
9.000 10.000 0.200
10.000 9.000 1.200
9.000 10.000 1.200
10.000 9.000 2.000
9.000 10.000 2.000
10.000 9.200 0.200
9.200 10.000 0.200
10.000 9.200 1.200
9.200 10.000 1.200
10.000 9.200 2.000
9.200 10.000 2.000
10.000 9.400 0.200
9.400 10.000 0.200
10.000 9.400 1.200
9.400 10.000 1.200
10.000 9.400 2.000
9.400 10.000 2.000
10.000 9.600 0.200
9.600 10.000 0.200
10.000 9.600 1.200
9.600 10.000 1.200
10.000 9.600 2.000
9.600 10.000 2.000
10.000 9.800 0.200
10.000 9.800 1.200
10.000 9.800 2.000
-2.900 4.000 0.200
-2.900 4.000 0.800
-2.900 4.000 1.400
-2.900 4.000 2.000
4.100 3.000 0.200
4.100 3.000 0.800
4.100 3.000 1.400
4.100 3.000 2.000
2.000 -3.750 0.200
2.000 -3.750 0.500
2.000 -3.750 0.800
2.000 -3.500 0.200
2.000 -3.500 0.500
2.000 -3.500 0.800
2.000 -3.250 0.200
2.000 -3.250 0.500
2.000 -3.250 0.800
3.000 -4.000 0.200
4.000 -3.000 0.200
3.000 -4.000 0.500
4.000 -3.000 0.500
3.000 -4.000 0.800
4.000 -3.000 0.800
2.000 -2.750 0.200
4.000 -2.750 0.200
2.000 -2.750 0.500
4.000 -2.750 0.500
2.000 -2.750 0.800
4.000 -2.750 0.800
4.000 -2.500 0.200
4.000 -2.500 0.500
4.000 -2.500 0.800
4.000 -2.250 0.200
4.000 -2.250 0.500
4.000 -2.250 0.800
