# .PCD v0.7 - map_manager
VERSION 0.7
FIELDS x y z
SIZE 4 4 4
TYPE F F F
COUNT 1 1 1
WIDTH 1088
HEIGHT 1
VIEWPOINT 0 0 0 1 0 0 0
POINTS 1088
DATA ascii
0.000 -8.000 0.200
0.000 -8.000 0.800
0.000 -8.000 1.400
0.200 -8.000 0.200
0.200 -8.000 0.800
0.200 -8.000 1.400
0.400 -8.000 0.200
0.400 -8.000 0.800
0.400 -8.000 1.400
0.600 -8.000 0.200
0.600 -8.000 0.800
0.600 -8.000 1.400
0.800 -8.000 0.200
0.800 -8.000 0.800
0.800 -8.000 1.400
1.000 -8.000 0.200
1.000 -8.000 0.800
1.000 -8.000 1.400
1.200 -8.000 0.200
1.200 -8.000 0.800
1.200 -8.000 1.400
1.400 -8.000 0.200
1.400 -8.000 0.800
1.400 -8.000 1.400
1.600 -8.000 0.200
1.600 -8.000 0.800
1.600 -8.000 1.400
1.800 -8.000 0.200
1.800 -8.000 0.800
1.800 -8.000 1.400
2.000 -8.000 0.200
2.000 -8.000 0.800
2.000 -8.000 1.400
2.200 -8.000 0.200
2.200 -8.000 0.800
2.200 -8.000 1.400
2.400 -8.000 0.200
2.400 -8.000 0.800
2.400 -8.000 1.400
2.600 -8.000 0.200
2.600 -8.000 0.800
2.600 -8.000 1.400
2.800 -8.000 0.200
2.800 -8.000 0.800
2.800 -8.000 1.400
3.000 -8.000 0.200
3.000 -8.000 0.800
3.000 -8.000 1.400
3.200 -8.000 0.200
3.200 -8.000 0.800
3.200 -8.000 1.400
3.400 -8.000 0.200
3.400 -8.000 0.800
3.400 -8.000 1.400
3.600 -8.000 0.200
3.600 -8.000 0.800
3.600 -8.000 1.400
3.800 -8.000 0.200
3.800 -8.000 0.800
3.800 -8.000 1.400
4.000 -8.000 0.200
4.000 -8.000 0.800
4.000 -8.000 1.400
4.200 -8.000 0.200
4.200 -8.000 0.800
4.200 -8.000 1.400
4.400 -8.000 0.200
4.400 -8.000 0.800
4.400 -8.000 1.400
4.600 -8.000 0.200
4.600 -8.000 0.800
4.600 -8.000 1.400
4.800 -8.000 0.200
4.800 -8.000 0.800
4.800 -8.000 1.400
5.000 -8.000 0.200
5.000 -8.000 0.800
5.000 -8.000 1.400
5.200 -8.000 0.200
5.200 -8.000 0.800
5.200 -8.000 1.400
5.400 -8.000 0.200
5.400 -8.000 0.800
5.400 -8.000 1.400
5.600 -8.000 0.200
5.600 -8.000 0.800
5.600 -8.000 1.400
5.800 -8.000 0.200
5.800 -8.000 0.800
5.800 -8.000 1.400
6.000 -8.000 0.200
6.000 -8.000 0.800
6.000 -8.000 1.400
6.200 -8.000 0.200
6.200 -8.000 0.800
6.200 -8.000 1.400
6.400 -8.000 0.200
6.400 -8.000 0.800
6.400 -8.000 1.400
6.600 -8.000 0.200
6.600 -8.000 0.800
6.600 -8.000 1.400
6.800 -8.000 0.200
6.800 -8.000 0.800
6.800 -8.000 1.400
7.000 -8.000 0.200
7.000 -8.000 0.800
7.000 -8.000 1.400
7.200 -8.000 0.200
7.200 -8.000 0.800
7.200 -8.000 1.400
7.400 -8.000 0.200
7.400 -8.000 0.800
7.400 -8.000 1.400
7.600 -8.000 0.200
7.600 -8.000 0.800
7.600 -8.000 1.400
7.800 -8.000 0.200
7.800 -8.000 0.800
7.800 -8.000 1.400
8.000 -8.000 0.200
8.000 -8.000 0.800
8.000 -8.000 1.400
-7.800 8.000 0.200
-7.800 8.000 0.800
-7.800 8.000 1.400
-7.600 8.000 0.200
-7.600 8.000 0.800
-7.600 8.000 1.400
-7.400 8.000 0.200
-7.400 8.000 0.800
-7.400 8.000 1.400
7.200 8.000 0.200
7.200 8.000 0.800
7.200 8.000 1.400
7.400 8.000 0.200
7.400 8.000 0.800
7.400 8.000 1.400
7.600 8.000 0.200
7.600 8.000 0.800
7.600 8.000 1.400
7.800 8.000 0.200
7.800 8.000 0.800
7.800 8.000 1.400
8.000 8.000 0.200
8.000 8.000 0.800
8.000 8.000 1.400
8.000 -7.800 0.200
8.000 -7.800 0.800
8.000 -7.800 1.400
8.000 -7.600 0.200
8.000 -7.600 0.800
8.000 -7.600 1.400
8.000 -7.400 0.200
8.000 -7.400 0.800
8.000 -7.400 1.400
8.000 -7.200 0.200
8.000 -7.200 0.800
8.000 -7.200 1.400
8.000 -7.000 0.200
8.000 -7.000 0.800
8.000 -7.000 1.400
8.000 -6.800 0.200
8.000 -6.800 0.800
8.000 -6.800 1.400
8.000 -6.600 0.200
8.000 -6.600 0.800
8.000 -6.600 1.400
8.000 -6.400 0.200
8.000 -6.400 0.800
8.000 -6.400 1.400
8.000 -6.200 0.200
8.000 -6.200 0.800
8.000 -6.200 1.400
8.000 -6.000 0.200
8.000 -6.000 0.800
8.000 -6.000 1.400
8.000 -5.800 0.200
8.000 -5.800 0.800
8.000 -5.800 1.400
8.000 -5.600 0.200
8.000 -5.600 0.800
8.000 -5.600 1.400
8.000 -5.400 0.200
8.000 -5.400 0.800
8.000 -5.400 1.400
8.000 -5.200 0.200
8.000 -5.200 0.800
8.000 -5.200 1.400
8.000 -5.000 0.200
8.000 -5.000 0.800
8.000 -5.000 1.400
8.000 -4.800 0.200
8.000 -4.800 0.800
8.000 -4.800 1.400
8.000 -2.200 0.200
8.000 -2.200 0.800
8.000 -2.200 1.400
8.000 -2.000 0.200
8.000 -2.000 0.800
8.000 -2.000 1.400
8.000 -1.800 0.200
8.000 -1.800 0.800
8.000 -1.800 1.400
8.000 -1.600 0.200
8.000 -1.600 0.800
8.000 -1.600 1.400
8.000 -1.400 0.200
8.000 -1.400 0.800
8.000 -1.400 1.400
8.000 -1.200 0.200
8.000 -1.200 0.800
8.000 -1.200 1.400
8.000 -1.000 0.200
8.000 -1.000 0.800
8.000 -1.000 1.400
8.000 -0.800 0.200
8.000 -0.800 0.800
8.000 -0.800 1.400
8.000 -0.600 0.200
8.000 -0.600 0.800
8.000 -0.600 1.400
8.000 -0.400 0.200
8.000 -0.400 0.800
8.000 -0.400 1.400
8.000 -0.200 0.200
8.000 -0.200 0.800
8.000 -0.200 1.400
8.000 -0.000 0.200
8.000 -0.000 0.800
8.000 -0.000 1.400
8.000 6.800 0.200
8.000 6.800 0.800
8.000 6.800 1.400
8.000 7.000 0.200
8.000 7.000 0.800
8.000 7.000 1.400
8.000 7.200 0.200
8.000 7.200 0.800
8.000 7.200 1.400
8.000 7.400 0.200
8.000 7.400 0.800
8.000 7.400 1.400
8.000 7.600 0.200
8.000 7.600 0.800
8.000 7.600 1.400
8.000 7.800 0.200
8.000 7.800 0.800
8.000 7.800 1.400
-2.400 -0.000 0.200
-2.400 -0.000 0.800
-2.400 -0.000 1.400
-2.191 -0.000 0.200
-2.191 -0.000 0.800
-2.191 -0.000 1.400
-1.983 -0.000 0.200
-1.983 -0.000 0.800
-1.983 -0.000 1.400
-1.774 -0.000 0.200
-1.774 -0.000 0.800
-1.774 -0.000 1.400
-1.565 -0.000 0.200
-1.565 -0.000 0.800
-1.565 -0.000 1.400
-1.357 -0.000 0.200
-1.357 -0.000 0.800
-1.357 -0.000 1.400
-1.148 -0.000 0.200
-1.148 -0.000 0.800
-1.148 -0.000 1.400
-0.939 -0.000 0.200
-0.939 -0.000 0.800
-0.939 -0.000 1.400
-0.730 -0.000 0.200
-0.730 -0.000 0.800
-0.730 -0.000 1.400
0.104 -0.000 0.200
0.104 -0.000 0.800
0.104 -0.000 1.400
0.313 -0.000 0.200
0.313 -0.000 0.800
0.313 -0.000 1.400
0.522 -0.000 0.200
0.522 -0.000 0.800
0.522 -0.000 1.400
0.730 -0.000 0.200
0.730 -0.000 0.800
0.730 -0.000 1.400
0.939 -0.000 0.200
0.939 -0.000 0.800
0.939 -0.000 1.400
1.148 -0.000 0.200
1.148 -0.000 0.800
1.148 -0.000 1.400
1.357 -0.000 0.200
1.357 -0.000 0.800
1.357 -0.000 1.400
1.565 -0.000 0.200
1.565 -0.000 0.800
1.565 -0.000 1.400
1.774 -0.000 0.200
1.774 -0.000 0.800
1.774 -0.000 1.400
1.983 -0.000 0.200
1.983 -0.000 0.800
1.983 -0.000 1.400
2.191 -0.000 0.200
2.191 -0.000 0.800
2.191 -0.000 1.400
2.400 -0.000 0.200
2.400 -0.000 0.800
2.400 -0.000 1.400
4.000 -0.000 0.200
4.000 -0.000 0.800
4.000 -0.000 1.400
4.200 -0.000 0.200
4.200 -0.000 0.800
4.200 -0.000 1.400
4.400 -0.000 0.200
4.400 -0.000 0.800
4.400 -0.000 1.400
4.600 -0.000 0.200
4.600 -0.000 0.800
4.600 -0.000 1.400
4.800 -0.000 0.200
4.800 -0.000 0.800
4.800 -0.000 1.400
5.000 -0.000 0.200
5.000 -0.000 0.800
5.000 -0.000 1.400
5.200 -0.000 0.200
5.200 -0.000 0.800
5.200 -0.000 1.400
5.400 -0.000 0.200
5.400 -0.000 0.800
5.400 -0.000 1.400
5.600 -0.000 0.200
5.600 -0.000 0.800
5.600 -0.000 1.400
5.800 -0.000 0.200
5.800 -0.000 0.800
5.800 -0.000 1.400
6.000 -0.000 0.200
6.000 -0.000 0.800
6.000 -0.000 1.400
6.200 -0.000 0.200
6.200 -0.000 0.800
6.200 -0.000 1.400
6.400 -0.000 0.200
6.400 -0.000 0.800
6.400 -0.000 1.400
6.600 -0.000 0.200
6.600 -0.000 0.800
6.600 -0.000 1.400
6.800 -0.000 0.200
6.800 -0.000 0.800
6.800 -0.000 1.400
7.000 -0.000 0.200
7.000 -0.000 0.800
7.000 -0.000 1.400
7.200 -0.000 0.200
7.200 -0.000 0.800
7.200 -0.000 1.400
7.400 -0.000 0.200
7.400 -0.000 0.800
7.400 -0.000 1.400
7.600 -0.000 0.200
7.600 -0.000 0.800
7.600 -0.000 1.400
7.800 -0.000 0.200
7.800 -0.000 0.800
7.800 -0.000 1.400
0.000 -0.000 0.200
0.000 -0.000 0.800
0.000 -0.000 1.400
0.000 -7.800 0.200
0.000 -7.800 0.800
0.000 -7.800 1.400
0.000 -7.600 0.200
0.000 -7.600 0.800
0.000 -7.600 1.400
0.000 -7.400 0.200
0.000 -7.400 0.800
0.000 -7.400 1.400
0.000 -7.200 0.200
0.000 -7.200 0.800
0.000 -7.200 1.400
0.000 -7.000 0.200
0.000 -7.000 0.800
0.000 -7.000 1.400
0.000 -6.800 0.200
0.000 -6.800 0.800
0.000 -6.800 1.400
0.000 -6.600 0.200
0.000 -6.600 0.800
0.000 -6.600 1.400
0.000 -6.400 0.200
0.000 -6.400 0.800
0.000 -6.400 1.400
0.000 -6.200 0.200
0.000 -6.200 0.800
0.000 -6.200 1.400
0.000 -6.000 0.200
0.000 -6.000 0.800
0.000 -6.000 1.400
0.000 -5.800 0.200
0.000 -5.800 0.800
0.000 -5.800 1.400
0.000 -5.600 0.200
0.000 -5.600 0.800
0.000 -5.600 1.400
0.000 -5.400 0.200
0.000 -5.400 0.800
0.000 -5.400 1.400
0.000 -5.200 0.200
0.000 -5.200 0.800
0.000 -5.200 1.400
0.000 -5.000 0.200
0.000 -5.000 0.800
0.000 -5.000 1.400
0.000 -4.800 0.200
0.000 -4.800 0.800
0.000 -4.800 1.400
0.000 -4.600 0.200
0.000 -4.600 0.800
0.000 -4.600 1.400
0.000 -4.400 0.200
0.000 -4.400 0.800
0.000 -4.400 1.400
0.000 -4.200 0.200
0.000 -4.200 0.800
0.000 -4.200 1.400
0.000 -4.000 0.200
0.000 -4.000 0.800
0.000 -4.000 1.400
0.000 -2.400 0.200
0.000 -2.400 0.800
0.000 -2.400 1.400
0.000 -2.182 0.200
0.000 -2.182 0.800
0.000 -2.182 1.400
0.000 -1.964 0.200
0.000 -1.964 0.800
0.000 -1.964 1.400
0.000 -1.745 0.200
0.000 -1.745 0.800
0.000 -1.745 1.400
0.000 -1.527 0.200
0.000 -1.527 0.800
0.000 -1.527 1.400
0.000 -1.309 0.200
0.000 -1.309 0.800
0.000 -1.309 1.400
0.000 -1.091 0.200
0.000 -1.091 0.800
0.000 -1.091 1.400
0.000 -0.873 0.200
0.000 -0.873 0.800
0.000 -0.873 1.400
0.000 -0.655 0.200
0.000 -0.655 0.800
0.000 -0.655 1.400
0.000 -0.436 0.200
0.000 -0.436 0.800
0.000 -0.436 1.400
0.000 -0.218 0.200
0.000 -0.218 0.800
0.000 -0.218 1.400
3.900 3.800 0.200
3.900 3.800 0.500
3.900 3.800 0.900
4.150 3.800 0.200
4.150 3.800 0.500
4.150 3.800 0.900
4.400 3.800 0.200
4.400 3.800 0.500
4.400 3.800 0.900
4.650 3.800 0.200
4.650 3.800 0.500
4.650 3.800 0.900
4.900 3.800 0.200
4.900 3.800 0.500
4.900 3.800 0.900
5.150 3.800 0.200
5.150 3.800 0.500
5.150 3.800 0.900
3.900 4.050 0.200
3.900 4.050 0.500
3.900 4.050 0.900
3.900 4.300 0.200
3.900 4.300 0.500
3.900 4.300 0.900
3.900 4.550 0.200
3.900 4.550 0.500
3.900 4.550 0.900
3.900 4.800 0.200
3.900 4.800 0.500
3.900 4.800 0.900
3.900 5.050 0.200
3.900 5.050 0.500
3.900 5.050 0.900
4.000 -5.000 0.200
4.000 -4.000 0.200
4.000 -5.000 0.500
4.000 -4.000 0.500
4.000 -5.000 0.800
4.000 -4.000 0.800
4.250 -5.000 0.200
4.250 -5.000 0.500
4.250 -5.000 0.800
4.500 -5.000 0.200
4.500 -5.000 0.500
4.500 -5.000 0.800
4.750 -5.000 0.200
4.750 -5.000 0.500
4.750 -5.000 0.800
5.000 -5.000 0.200
5.000 -5.000 0.500
5.000 -5.000 0.800
4.000 -4.750 0.200
4.000 -4.750 0.500
4.000 -4.750 0.800
4.000 -4.500 0.200
4.000 -4.500 0.500
4.000 -4.500 0.800
4.000 -4.250 0.200
4.000 -4.250 0.500
4.000 -4.250 0.800
-8.000 8.000 0.200
-8.000 8.000 0.800
-8.000 8.000 1.400
3.900 5.200 0.200
3.900 5.200 0.500
3.900 5.200 0.900
5.150 3.800 0.200
5.150 3.800 0.500
5.150 3.800 0.900
4.250 -5.000 0.200
4.250 -5.000 0.500
4.250 -5.000 0.800
4.750 -5.000 0.200
4.750 -5.000 0.500
4.750 -5.000 0.800
-8.000 7.400 0.200
-8.000 7.400 0.800
-8.000 7.400 1.400
-8.000 7.600 0.200
-8.000 7.600 0.800
-8.000 7.600 1.400
-8.000 7.800 0.200
-8.000 7.800 0.800
-8.000 7.800 1.400
4.600 8.000 0.200
4.600 8.000 0.800
4.600 8.000 1.400
-8.000 6.600 0.200
-8.000 6.600 0.800
-8.000 6.600 1.400
-8.000 6.800 0.200
-8.000 6.800 0.800
-8.000 6.800 1.400
-8.000 7.000 0.200
-8.000 7.000 0.800
-8.000 7.000 1.400
-8.000 7.200 0.200
-8.000 7.200 0.800
-8.000 7.200 1.400
4.150 3.800 0.200
4.150 3.800 0.500
4.150 3.800 0.900
4.650 3.800 0.200
4.650 3.800 0.500
4.650 3.800 0.900
4.000 -4.250 0.200
4.000 -4.250 0.500
4.000 -4.250 0.800
7.000 8.000 0.200
7.000 8.000 0.800
7.000 8.000 1.400
-8.000 5.600 0.200
-8.000 5.600 0.800
-8.000 5.600 1.400
-8.000 5.800 0.200
-8.000 5.800 0.800
-8.000 5.800 1.400
-8.000 6.000 0.200
-8.000 6.000 0.800
-8.000 6.000 1.400
-8.000 6.200 0.200
-8.000 6.200 0.800
-8.000 6.200 1.400
-8.000 6.400 0.200
-8.000 6.400 0.800
-8.000 6.400 1.400
-8.000 4.800 0.200
-8.000 4.800 0.800
-8.000 4.800 1.400
-8.000 5.000 0.200
-8.000 5.000 0.800
-8.000 5.000 1.400
-8.000 5.200 0.200
-8.000 5.200 0.800
-8.000 5.200 1.400
-8.000 5.400 0.200
-8.000 5.400 0.800
-8.000 5.400 1.400
3.900 4.050 0.200
3.900 4.050 0.500
3.900 4.050 0.900
3.900 4.550 0.200
3.900 4.550 0.500
3.900 4.550 0.900
3.900 5.050 0.200
3.900 5.050 0.500
3.900 5.050 0.900
4.400 8.000 0.200
4.400 8.000 0.800
4.400 8.000 1.400
-8.000 4.200 0.200
-8.000 4.200 0.800
-8.000 4.200 1.400
-8.000 4.400 0.200
-8.000 4.400 0.800
-8.000 4.400 1.400
-8.000 4.600 0.200
-8.000 4.600 0.800
-8.000 4.600 1.400
8.000 -2.400 0.200
8.000 -2.400 0.800
8.000 -2.400 1.400
4.000 -4.750 0.200
4.000 -4.750 0.500
4.000 -4.750 0.800
-8.000 4.000 0.200
-8.000 4.000 0.800
-8.000 4.000 1.400
-4.200 -0.000 0.200
-4.200 -0.000 0.800
-4.200 -0.000 1.400
-4.000 -0.000 0.200
-4.000 -0.000 0.800
-4.000 -0.000 1.400
-4.600 0.000 0.200
-4.600 0.000 0.800
-4.600 0.000 1.400
-4.400 0.000 0.200
-4.400 0.000 0.800
-4.400 0.000 1.400
4.200 8.000 0.200
4.200 8.000 0.800
4.200 8.000 1.400
-4.800 0.000 0.200
-4.800 0.000 0.800
-4.800 0.000 1.400
-5.000 0.000 0.200
-5.000 0.000 0.800
-5.000 0.000 1.400
-5.200 0.000 0.200
-5.200 0.000 0.800
-5.200 0.000 1.400
4.000 8.000 0.200
4.000 8.000 0.800
4.000 8.000 1.400
-5.400 0.000 0.200
-5.400 0.000 0.800
-5.400 0.000 1.400
-5.600 -0.000 0.200
-5.600 -0.000 0.800
-5.600 -0.000 1.400
6.800 8.000 0.200
6.800 8.000 0.800
6.800 8.000 1.400
-5.800 -0.000 0.200
-5.800 -0.000 0.800
-5.800 -0.000 1.400
-6.200 0.000 0.200
-6.200 0.000 0.800
-6.200 0.000 1.400
-6.000 -0.000 0.200
-6.000 -0.000 0.800
-6.000 -0.000 1.400
-6.400 0.000 0.200
-6.400 0.000 0.800
-6.400 0.000 1.400
-6.800 -0.000 0.200
-6.800 -0.000 0.800
-6.800 -0.000 1.400
-6.600 -0.000 0.200
-6.600 -0.000 0.800
-6.600 -0.000 1.400
-7.200 -0.000 0.200
-7.200 -0.000 0.800
-7.200 -0.000 1.400
-7.000 -0.000 0.200
-7.000 -0.000 0.800
-7.000 -0.000 1.400
-7.600 -0.000 0.200
-7.600 -0.000 0.800
-7.600 -0.000 1.400
-7.400 -0.000 0.200
-7.400 -0.000 0.800
-7.400 -0.000 1.400
-8.000 -0.000 0.200
-8.000 -0.000 0.800
-8.000 -0.000 1.400
-7.800 0.000 0.200
-7.800 0.000 0.800
-7.800 0.000 1.400
-8.000 -0.200 0.200
-8.000 -0.200 0.800
-8.000 -0.200 1.400
-8.000 -0.400 0.200
-8.000 -0.400 0.800
-8.000 -0.400 1.400
-8.000 -0.800 0.200
-8.000 -0.800 0.800
-8.000 -0.800 1.400
-8.000 -0.600 0.200
-8.000 -0.600 0.800
-8.000 -0.600 1.400
-8.000 -1.000 0.200
-8.000 -1.000 0.800
-8.000 -1.000 1.400
-8.000 -1.200 0.200
-8.000 -1.200 0.800
-8.000 -1.200 1.400
-8.000 -1.400 0.200
-8.000 -1.400 0.800
-8.000 -1.400 1.400
-8.000 -1.800 0.200
-8.000 -1.800 0.800
-8.000 -1.800 1.400
-8.000 -1.600 0.200
-8.000 -1.600 0.800
-8.000 -1.600 1.400
-8.000 -2.200 0.200
-8.000 -2.200 0.800
-8.000 -2.200 1.400
-8.000 -2.000 0.200
-8.000 -2.000 0.800
-8.000 -2.000 1.400
14.105 -1.942 0.200
14.105 -1.942 0.800
14.105 -1.942 1.400
14.105 -1.942 2.000
14.008 -1.880 0.200
14.008 -1.880 0.800
14.008 -1.880 1.400
14.008 -1.880 2.000
13.904 -1.928 0.200
13.904 -1.928 0.800
13.904 -1.928 1.400
13.904 -1.928 2.000
13.881 -1.983 0.200
13.881 -1.983 0.800
13.881 -1.983 1.400
13.881 -1.983 2.000
-8.000 -2.600 0.200
-8.000 -2.600 0.800
-8.000 -2.600 1.400
-8.000 -2.400 0.200
-8.000 -2.400 0.800
-8.000 -2.400 1.400
14.120 -2.000 0.200
14.120 -2.000 0.800
14.120 -2.000 1.400
14.120 -2.000 2.000
13.922 -2.091 0.200
13.922 -2.091 0.800
13.922 -2.091 1.400
13.922 -2.091 2.000
13.975 -2.117 0.200
13.975 -2.117 0.800
13.975 -2.117 1.400
13.975 -2.117 2.000
14.085 -2.085 0.200
14.085 -2.085 0.800
14.085 -2.085 1.400
14.085 -2.085 2.000
6.600 8.000 0.200
6.600 8.000 0.800
6.600 8.000 1.400
-8.000 -2.800 0.200
-8.000 -2.800 0.800
-8.000 -2.800 1.400
20.000 -1.800 0.200
20.000 -1.800 1.200
20.000 -1.800 2.000
20.000 -1.600 0.200
20.000 -1.600 1.200
20.000 -1.600 2.000
20.000 -1.400 0.200
20.000 -1.400 1.200
20.000 -1.400 2.000
20.000 -1.200 0.200
20.000 -1.200 1.200
20.000 -1.200 2.000
-8.000 -3.200 0.200
-8.000 -3.200 0.800
-8.000 -3.200 1.400
-8.000 -3.000 0.200
-8.000 -3.000 0.800
-8.000 -3.000 1.400
20.000 -2.600 0.200
20.000 -2.600 1.200
20.000 -2.600 2.000
20.000 -2.400 0.200
20.000 -2.400 1.200
20.000 -2.400 2.000
20.000 -2.200 0.200
20.000 -2.200 1.200
20.000 -2.200 2.000
20.000 -2.000 0.200
20.000 -2.000 1.200
20.000 -2.000 2.000
-8.000 -3.400 0.200
-8.000 -3.400 0.800
-8.000 -3.400 1.400
20.000 -3.200 0.200
20.000 -3.200 1.200
20.000 -3.200 2.000
20.000 -3.000 0.200
20.000 -3.000 1.200
20.000 -3.000 2.000
20.000 -2.800 0.200
20.000 -2.800 1.200
20.000 -2.800 2.000
20.000 -0.600 0.200
20.000 -0.600 1.200
20.000 -0.600 2.000
20.000 -0.400 0.200
20.000 -0.400 1.200
20.000 -0.400 2.000
2.400 8.000 0.200
2.400 8.000 0.800
2.400 8.000 1.400
-8.000 -3.600 0.200
-8.000 -3.600 0.800
-8.000 -3.600 1.400
-5.200 -3.850 0.200
-3.800 -3.850 0.200
-5.200 -3.850 0.500
-3.800 -3.850 0.500
-5.200 -3.850 0.900
-3.800 -3.850 0.900
20.000 -4.000 0.200
20.000 -4.000 1.200
20.000 -4.000 2.000
20.000 -3.800 0.200
20.000 -3.800 1.200
20.000 -3.800 2.000
20.000 -3.600 0.200
20.000 -3.600 1.200
20.000 -3.600 2.000
20.000 -3.400 0.200
20.000 -3.400 1.200
20.000 -3.400 2.000
20.000 -0.200 0.200
20.000 -0.200 1.200
20.000 -0.200 2.000
20.000 -0.000 0.200
20.000 -0.000 1.200
20.000 -0.000 2.000
-8.000 -3.800 0.200
-8.000 -3.800 0.800
-8.000 -3.800 1.400
8.000 -4.000 0.200
8.000 -4.000 0.800
8.000 -4.000 1.400
-3.800 -3.850 0.200
-3.800 -3.850 0.500
-3.800 -3.850 0.900
4.250 -4.000 0.200
4.250 -4.000 0.500
4.250 -4.000 0.800
4.500 -4.000 0.200
4.500 -4.000 0.500
4.500 -4.000 0.800
4.750 -4.000 0.200
4.750 -4.000 0.500
4.750 -4.000 0.800
5.000 -4.000 0.200
5.000 -4.000 0.500
5.000 -4.000 0.800
20.000 -4.200 0.200
20.000 -4.200 1.200
20.000 -4.200 2.000
20.000 -0.800 0.200
20.000 -0.800 1.200
20.000 -0.800 2.000
20.000 0.200 0.200
20.000 0.200 1.200
20.000 0.200 2.000
20.000 0.400 0.200
20.000 0.400 1.200
20.000 0.400 2.000
2.200 8.000 0.200
2.200 8.000 0.800
2.200 8.000 1.400
-3.800 -4.100 0.200
-3.800 -4.100 0.500
-3.800 -4.100 0.900
20.000 0.600 0.200
20.000 0.600 1.200
20.000 0.600 2.000
8.000 -4.200 0.200
8.000 -4.200 0.800
8.000 -4.200 1.400
-4.950 -3.900 0.200
-4.950 -3.900 0.500
-4.950 -3.900 0.900
-4.700 -3.900 0.200
-4.700 -3.900 0.500
-4.700 -3.900 0.900
-4.450 -3.900 0.200
-4.450 -3.900 0.500
-4.450 -3.900 0.900
-4.200 -3.900 0.200
-4.200 -3.900 0.500
-4.200 -3.900 0.900
-3.950 -3.900 0.200
-3.950 -3.900 0.500
-3.950 -3.900 0.900
-5.200 -3.850 0.200
-5.200 -3.850 0.500
-5.200 -3.850 0.900
20.000 -4.400 0.200
20.000 -4.400 1.200
20.000 -4.400 2.000
2.000 8.000 0.200
2.000 8.000 0.800
2.000 8.000 1.400
-4.450 -3.900 0.200
-4.450 -3.900 0.500
-4.450 -3.900 0.900
-3.800 -4.350 0.200
-3.800 -4.350 0.500
-3.800 -4.350 0.900
20.000 -4.600 0.200
20.000 -4.600 1.200
20.000 -4.600 2.000
1.800 8.000 0.200
1.800 8.000 0.800
1.800 8.000 1.400
8.000 -4.400 0.200
8.000 -4.400 0.800
8.000 -4.400 1.400
-3.800 -4.350 0.200
-3.800 -4.350 0.500
-3.800 -4.350 0.900
20.000 -4.800 0.200
20.000 -4.800 1.200
20.000 -4.800 2.000
1.600 8.000 0.200
1.600 8.000 0.800
1.600 8.000 1.400
-8.000 -4.000 0.200
-8.000 -4.000 0.800
-8.000 -4.000 1.400
-3.950 -3.900 0.200
-3.950 -3.900 0.500
-3.950 -3.900 0.900
4.250 -4.000 0.200
4.250 -4.000 0.500
4.250 -4.000 0.800
4.750 -4.000 0.200
4.750 -4.000 0.500
4.750 -4.000 0.800
20.000 -5.000 0.200
20.000 -5.000 1.200
20.000 -5.000 2.000
1.400 8.000 0.200
1.400 8.000 0.800
1.400 8.000 1.400
6.400 8.000 0.200
6.400 8.000 0.800
6.400 8.000 1.400
8.000 -4.600 0.200
8.000 -4.600 0.800
8.000 -4.600 1.400
-3.800 -4.600 0.200
-3.800 -4.600 0.500
-3.800 -4.600 0.900
20.000 -5.200 0.200
20.000 -5.200 1.200
20.000 -5.200 2.000
20.000 -1.000 0.200
20.000 -1.000 1.200
20.000 -1.000 2.000
1.200 8.000 0.200
1.200 8.000 0.800
1.200 8.000 1.400
20.000 -5.400 0.200
20.000 -5.400 1.200
20.000 -5.400 2.000
1.000 8.000 0.200
1.000 8.000 0.800
1.000 8.000 1.400
-4.950 -3.900 0.200
-4.950 -3.900 0.500
-4.950 -3.900 0.900
0.800 8.000 0.200
0.800 8.000 0.800
0.800 8.000 1.400
0.600 8.000 0.200
0.600 8.000 0.800
0.600 8.000 1.400
20.000 -5.600 0.200
20.000 -5.600 1.200
20.000 -5.600 2.000
0.400 8.000 0.200
0.400 8.000 0.800
0.400 8.000 1.400
0.000 8.000 0.200
0.000 8.000 0.800
0.000 8.000 1.400
0.200 8.000 0.200
0.200 8.000 0.800
0.200 8.000 1.400
20.000 -5.800 0.200
20.000 -5.800 1.200
20.000 -5.800 2.000
-0.000 7.400 0.200
-0.000 7.400 0.800
-0.000 7.400 1.400
-0.000 7.600 0.200
-0.000 7.600 0.800
-0.000 7.600 1.400
0.000 7.800 0.200
0.000 7.800 0.800
0.000 7.800 1.400
-0.000 6.600 0.200
-0.000 6.600 0.800
-0.000 6.600 1.400
-0.000 6.800 0.200
-0.000 6.800 0.800
-0.000 6.800 1.400
-0.000 7.000 0.200
-0.000 7.000 0.800
-0.000 7.000 1.400
0.000 7.200 0.200
0.000 7.200 0.800
0.000 7.200 1.400
0.000 6.200 0.200
0.000 6.200 0.800
0.000 6.200 1.400
-0.000 6.400 0.200
-0.000 6.400 0.800
-0.000 6.400 1.400
20.000 -6.000 0.200
20.000 -6.000 1.200
20.000 -6.000 2.000
0.000 5.800 0.200
0.000 5.800 0.800
0.000 5.800 1.400
0.000 6.000 0.200
0.000 6.000 0.800
0.000 6.000 1.400
-0.000 5.400 0.200
-0.000 5.400 0.800
-0.000 5.400 1.400
-0.000 5.600 0.200
-0.000 5.600 0.800
-0.000 5.600 1.400
20.000 -6.200 0.200
20.000 -6.200 1.200
20.000 -6.200 2.000
-0.000 5.000 0.200
-0.000 5.000 0.800
-0.000 5.000 1.400
-0.000 5.200 0.200
-0.000 5.200 0.800
-0.000 5.200 1.400
0.000 4.600 0.200
0.000 4.600 0.800
0.000 4.600 1.400
0.000 4.800 0.200
0.000 4.800 0.800
0.000 4.800 1.400
20.000 -6.400 0.200
20.000 -6.400 1.200
20.000 -6.400 2.000
-0.000 4.400 0.200
-0.000 4.400 0.800
-0.000 4.400 1.400
0.000 4.200 0.200
0.000 4.200 0.800
0.000 4.200 1.400
