# .PCD v0.7 - mock_mapper
VERSION 0.7
FIELDS x y z
SIZE 4 4 4
TYPE F F F
COUNT 1 1 1
WIDTH 436
HEIGHT 1
VIEWPOINT 0 0 0 1 0 0 0
POINTS 436
DATA ascii
12.699 5.539 0.200
12.699 5.539 1.200
12.699 5.539 2.000
12.524 5.636 0.200
12.524 5.636 1.200
12.524 5.636 2.000
12.349 5.733 0.200
12.349 5.733 1.200
12.349 5.733 2.000
12.174 5.830 0.200
12.174 5.830 1.200
12.174 5.830 2.000
11.999 5.927 0.200
11.999 5.927 1.200
11.999 5.927 2.000
11.824 6.024 0.200
11.824 6.024 1.200
11.824 6.024 2.000
11.650 6.121 0.200
11.650 6.121 1.200
11.650 6.121 2.000
11.475 6.218 0.200
11.475 6.218 1.200
11.475 6.218 2.000
11.300 6.316 0.200
-2.840 2.269 0.200
11.300 6.316 1.200
-2.840 2.269 1.200
11.300 6.316 2.000
-2.840 2.269 2.000
11.125 6.413 0.200
-2.743 2.444 0.200
11.125 6.413 1.200
-2.743 2.444 1.200
11.125 6.413 2.000
-2.743 2.444 2.000
10.950 6.510 0.200
-2.646 2.619 0.200
10.950 6.510 1.200
-2.646 2.619 1.200
10.950 6.510 2.000
-2.646 2.619 2.000
10.775 6.607 0.200
-2.549 2.794 0.200
10.775 6.607 1.200
-2.549 2.794 1.200
10.775 6.607 2.000
-2.549 2.794 2.000
10.600 6.704 0.200
-2.452 2.969 0.200
10.600 6.704 1.200
-2.452 2.969 1.200
10.600 6.704 2.000
-2.452 2.969 2.000
10.425 6.801 0.200
-2.355 3.144 0.200
10.425 6.801 1.200
-2.355 3.144 1.200
10.425 6.801 2.000
-2.355 3.144 2.000
10.251 6.898 0.200
-2.258 3.318 0.200
10.251 6.898 1.200
-2.258 3.318 1.200
10.251 6.898 2.000
-2.258 3.318 2.000
10.076 6.995 0.200
-2.161 3.493 0.200
10.076 6.995 1.200
-2.161 3.493 1.200
10.076 6.995 2.000
-2.161 3.493 2.000
9.901 7.092 0.200
-2.064 3.668 0.200
9.901 7.092 1.200
-2.064 3.668 1.200
9.901 7.092 2.000
-2.064 3.668 2.000
9.726 7.189 0.200
-1.967 3.843 0.200
9.726 7.189 1.200
-1.967 3.843 1.200
9.726 7.189 2.000
-1.967 3.843 2.000
9.551 7.286 0.200
-1.870 4.018 0.200
9.551 7.286 1.200
-1.870 4.018 1.200
9.551 7.286 2.000
-1.870 4.018 2.000
9.376 7.383 0.200
-1.773 4.193 0.200
9.376 7.383 1.200
-1.773 4.193 1.200
9.376 7.383 2.000
-1.773 4.193 2.000
9.201 7.480 0.200
-1.676 4.368 0.200
9.201 7.480 1.200
-1.676 4.368 1.200
9.201 7.480 2.000
-1.676 4.368 2.000
9.027 7.577 0.200
-1.579 4.543 0.200
9.027 7.577 1.200
-1.579 4.543 1.200
9.027 7.577 2.000
-1.579 4.543 2.000
8.852 7.674 0.200
-1.482 4.717 0.200
8.852 7.674 1.200
-1.482 4.717 1.200
8.852 7.674 2.000
-1.482 4.717 2.000
8.677 7.771 0.200
-1.385 4.892 0.200
8.677 7.771 1.200
-1.385 4.892 1.200
8.677 7.771 2.000
-1.385 4.892 2.000
8.502 7.868 0.200
-1.288 5.067 0.200
8.502 7.868 1.200
-1.288 5.067 1.200
8.502 7.868 2.000
-1.288 5.067 2.000
8.327 7.966 0.200
-1.190 5.242 0.200
8.327 7.966 1.200
-1.190 5.242 1.200
8.327 7.966 2.000
-1.190 5.242 2.000
8.152 8.063 0.200
-1.093 5.417 0.200
8.152 8.063 1.200
-1.093 5.417 1.200
8.152 8.063 2.000
-1.093 5.417 2.000
7.977 8.160 0.200
-0.996 5.592 0.200
7.977 8.160 1.200
-0.996 5.592 1.200
7.977 8.160 2.000
-0.996 5.592 2.000
7.802 8.257 0.200
-0.899 5.767 0.200
7.802 8.257 1.200
-0.899 5.767 1.200
7.802 8.257 2.000
-0.899 5.767 2.000
7.628 8.354 0.200
-0.802 5.941 0.200
7.628 8.354 1.200
-0.802 5.941 1.200
7.628 8.354 2.000
-0.802 5.941 2.000
7.453 8.451 0.200
-0.705 6.116 0.200
7.453 8.451 1.200
-0.705 6.116 1.200
7.453 8.451 2.000
-0.705 6.116 2.000
7.278 8.548 0.200
-0.608 6.291 0.200
7.278 8.548 1.200
-0.608 6.291 1.200
7.278 8.548 2.000
-0.608 6.291 2.000
7.103 8.645 0.200
-0.511 6.466 0.200
7.103 8.645 1.200
-0.511 6.466 1.200
7.103 8.645 2.000
-0.511 6.466 2.000
6.928 8.742 0.200
-0.414 6.641 0.200
6.928 8.742 1.200
-0.414 6.641 1.200
6.928 8.742 2.000
-0.414 6.641 2.000
6.753 8.839 0.200
-0.317 6.816 0.200
6.753 8.839 1.200
-0.317 6.816 1.200
6.753 8.839 2.000
-0.317 6.816 2.000
6.578 8.936 0.200
-0.220 6.991 0.200
6.578 8.936 1.200
-0.220 6.991 1.200
6.578 8.936 2.000
-0.220 6.991 2.000
6.403 9.033 0.200
-0.123 7.166 0.200
6.403 9.033 1.200
-0.123 7.166 1.200
6.403 9.033 2.000
-0.123 7.166 2.000
6.229 9.130 0.200
-0.026 7.340 0.200
6.229 9.130 1.200
-0.026 7.340 1.200
6.229 9.130 2.000
-0.026 7.340 2.000
6.054 9.227 0.200
0.071 7.515 0.200
6.054 9.227 1.200
0.071 7.515 1.200
6.054 9.227 2.000
0.071 7.515 2.000
5.879 9.324 0.200
0.168 7.690 0.200
5.879 9.324 1.200
0.168 7.690 1.200
5.879 9.324 2.000
0.168 7.690 2.000
5.704 9.421 0.200
0.265 7.865 0.200
5.704 9.421 1.200
0.265 7.865 1.200
5.704 9.421 2.000
0.265 7.865 2.000
5.529 9.518 0.200
0.362 8.040 0.200
5.529 9.518 1.200
0.362 8.040 1.200
5.529 9.518 2.000
0.362 8.040 2.000
5.354 9.615 0.200
0.460 8.215 0.200
5.354 9.615 1.200
0.460 8.215 1.200
5.354 9.615 2.000
0.460 8.215 2.000
5.179 9.713 0.200
0.557 8.390 0.200
5.179 9.713 1.200
0.557 8.390 1.200
5.179 9.713 2.000
0.557 8.390 2.000
5.004 9.810 0.200
0.654 8.565 0.200
5.004 9.810 1.200
0.654 8.565 1.200
5.004 9.810 2.000
0.654 8.565 2.000
4.830 9.907 0.200
0.751 8.739 0.200
4.830 9.907 1.200
0.751 8.739 1.200
4.830 9.907 2.000
0.751 8.739 2.000
4.655 10.004 0.200
0.848 8.914 0.200
4.655 10.004 1.200
0.848 8.914 1.200
4.655 10.004 2.000
0.848 8.914 2.000
4.480 10.101 0.200
0.945 9.089 0.200
4.480 10.101 1.200
0.945 9.089 1.200
4.480 10.101 2.000
0.945 9.089 2.000
4.305 10.198 0.200
1.042 9.264 0.200
4.305 10.198 1.200
1.042 9.264 1.200
4.305 10.198 2.000
1.042 9.264 2.000
4.130 10.295 0.200
4.130 10.295 1.200
4.130 10.295 2.000
3.955 10.392 0.200
3.955 10.392 1.200
3.955 10.392 2.000
3.780 10.489 0.200
3.780 10.489 1.200
3.780 10.489 2.000
3.606 10.586 0.200
3.606 10.586 1.200
3.606 10.586 2.000
3.431 10.683 0.200
3.431 10.683 1.200
3.431 10.683 2.000
3.256 10.780 0.200
1.624 10.313 0.200
3.256 10.780 1.200
1.624 10.313 1.200
3.256 10.780 2.000
1.624 10.313 2.000
3.081 10.877 0.200
1.721 10.488 0.200
3.081 10.877 1.200
1.721 10.488 1.200
3.081 10.877 2.000
1.721 10.488 2.000
2.906 10.974 0.200
1.818 10.663 0.200
2.906 10.974 1.200
1.818 10.663 1.200
2.906 10.974 2.000
1.818 10.663 2.000
2.731 11.071 0.200
1.915 10.838 0.200
2.731 11.071 1.200
1.915 10.838 1.200
2.731 11.071 2.000
1.915 10.838 2.000
2.556 11.168 0.200
2.012 11.013 0.200
2.556 11.168 1.200
2.012 11.013 1.200
2.556 11.168 2.000
2.012 11.013 2.000
2.381 11.265 0.200
2.109 11.188 0.200
2.381 11.265 1.200
2.109 11.188 1.200
2.381 11.265 2.000
2.109 11.188 2.000
2.207 11.362 0.200
2.207 11.362 1.200
2.207 11.362 2.000
3.653 5.875 0.200
3.653 5.875 0.800
3.653 5.875 1.400
3.653 5.875 2.000
3.690 5.828 0.200
3.690 5.828 0.800
3.690 5.828 1.400
3.690 5.828 2.000
3.804 5.811 0.200
3.804 5.811 0.800
3.804 5.811 1.400
3.804 5.811 2.000
3.853 5.845 0.200
3.853 5.845 0.800
3.853 5.845 1.400
3.853 5.845 2.000
3.880 5.898 0.200
3.880 5.898 0.800
3.880 5.898 1.400
3.880 5.898 2.000
3.878 5.957 0.200
3.878 5.957 0.800
3.878 5.957 1.400
3.878 5.957 2.000
3.848 6.008 0.200
3.848 6.008 0.800
3.848 6.008 1.400
3.848 6.008 2.000
1.202 -2.811 0.200
1.202 -2.811 0.800
1.202 -2.811 1.400
1.202 -2.811 2.000
1.145 -2.796 0.200
1.145 -2.796 0.800
1.145 -2.796 1.400
1.145 -2.796 2.000
1.043 -2.850 0.200
1.043 -2.850 0.800
1.043 -2.850 1.400
1.043 -2.850 2.000
1.234 -2.995 0.200
1.234 -2.995 0.800
1.234 -2.995 1.400
1.234 -2.995 2.000
1.261 -2.942 0.200
1.261 -2.942 0.800
1.261 -2.942 1.400
1.261 -2.942 2.000
5.474 2.824 0.200
5.474 2.824 0.800
5.474 2.824 1.400
5.474 2.824 2.000
5.416 2.839 0.200
5.416 2.839 0.800
5.416 2.839 1.400
5.416 2.839 2.000
5.315 2.785 0.200
5.315 2.785 0.800
5.315 2.785 1.400
5.315 2.785 2.000
5.296 2.729 0.200
5.296 2.729 0.800
5.296 2.729 1.400
5.296 2.729 2.000
8.817 -1.456 0.200
8.817 -1.456 0.500
8.817 -1.456 0.800
8.938 -1.237 0.200
11.317 -0.556 0.200
8.938 -1.237 0.500
11.317 -0.556 0.500
8.938 -1.237 0.800
11.317 -0.556 0.800
9.059 -1.019 0.200
11.099 -0.435 0.200
9.059 -1.019 0.500
11.099 -0.435 0.500
9.059 -1.019 0.800
11.099 -0.435 0.800
9.181 -0.800 0.200
10.880 -0.314 0.200
9.181 -0.800 0.500
10.880 -0.314 0.500
9.181 -0.800 0.800
10.880 -0.314 0.800
9.302 -0.581 0.200
10.661 -0.192 0.200
9.302 -0.581 0.500
10.661 -0.192 0.500
9.302 -0.581 0.800
10.661 -0.192 0.800
9.423 -0.363 0.200
10.443 -0.071 0.200
9.423 -0.363 0.500
10.443 -0.071 0.500
9.423 -0.363 0.800
10.443 -0.071 0.800
9.544 -0.144 0.200
10.224 0.050 0.200
9.544 -0.144 0.500
10.224 0.050 0.500
9.544 -0.144 0.800
10.224 0.050 0.800
9.666 0.074 0.200
10.006 0.172 0.200
9.666 0.074 0.500
10.006 0.172 0.500
9.666 0.074 0.800
10.006 0.172 0.800
9.787 0.293 0.200
9.787 0.293 0.500
9.787 0.293 0.800
