# .PCD v0.7 - mock_mapper
VERSION 0.7
FIELDS x y z
SIZE 4 4 4
TYPE F F F
COUNT 1 1 1
WIDTH 107
HEIGHT 1
VIEWPOINT 0 0 0 1 0 0 0
POINTS 107
DATA ascii
-2.880 4.000 0.200
-2.880 4.000 0.800
-2.880 4.000 1.400
-2.880 4.000 2.000
-2.895 4.058 0.200
-2.895 4.058 0.800
-2.895 4.058 1.400
-2.895 4.058 2.000
-2.992 4.120 0.200
-2.992 4.120 0.800
-2.992 4.120 1.400
-2.992 4.120 2.000
-3.119 4.017 0.200
-3.119 4.017 0.800
-3.119 4.017 1.400
-3.119 4.017 2.000
-3.078 3.909 0.200
-3.078 3.909 0.800
-3.078 3.909 1.400
-3.078 3.909 2.000
-3.025 3.883 0.200
-3.025 3.883 0.800
-3.025 3.883 1.400
-3.025 3.883 2.000
-2.915 3.915 0.200
-2.915 3.915 0.800
-2.915 3.915 1.400
-2.915 3.915 2.000
4.120 3.000 0.200
4.120 3.000 0.800
4.120 3.000 1.400
4.120 3.000 2.000
4.008 3.120 0.200
4.008 3.120 0.800
4.008 3.120 1.400
4.008 3.120 2.000
3.904 3.072 0.200
3.904 3.072 0.800
3.904 3.072 1.400
3.904 3.072 2.000
3.881 3.017 0.200
3.881 3.017 0.800
3.881 3.017 1.400
3.881 3.017 2.000
3.922 2.909 0.200
3.922 2.909 0.800
3.922 2.909 1.400
3.922 2.909 2.000
3.975 2.883 0.200
3.975 2.883 0.800
3.975 2.883 1.400
3.975 2.883 2.000
4.085 2.915 0.200
4.085 2.915 0.800
4.085 2.915 1.400
4.085 2.915 2.000
2.000 -4.000 0.200
2.000 -2.000 0.200
2.000 -4.000 0.500
2.000 -2.000 0.500
2.000 -4.000 0.800
2.000 -2.000 0.800
2.250 -2.000 0.200
2.000 -3.750 0.200
2.250 -2.000 0.500
2.000 -3.750 0.500
2.250 -2.000 0.800
2.000 -3.750 0.800
2.500 -2.000 0.200
2.000 -3.500 0.200
2.500 -2.000 0.500
2.000 -3.500 0.500
2.500 -2.000 0.800
2.000 -3.500 0.800
2.750 -2.000 0.200
2.000 -3.250 0.200
2.750 -2.000 0.500
2.000 -3.250 0.500
2.750 -2.000 0.800
2.000 -3.250 0.800
3.000 -2.000 0.200
2.000 -3.000 0.200
3.000 -2.000 0.500
2.000 -3.000 0.500
3.000 -2.000 0.800
2.000 -3.000 0.800
3.250 -2.000 0.200
2.000 -2.750 0.200
3.250 -2.000 0.500
2.000 -2.750 0.500
3.250 -2.000 0.800
2.000 -2.750 0.800
3.500 -2.000 0.200
2.000 -2.500 0.200
3.500 -2.000 0.500
2.000 -2.500 0.500
3.500 -2.000 0.800
2.000 -2.500 0.800
3.750 -2.000 0.200
2.000 -2.250 0.200
3.750 -2.000 0.500
2.000 -2.250 0.500
3.750 -2.000 0.800
2.000 -2.250 0.800
4.000 -2.000 0.200
4.000 -2.000 0.500
4.000 -2.000 0.800
